<?xml version="1.0" encoding="utf-8"?>
<!-- Generator: Adobe Illustrator 16.0.0, SVG Export Plug-In . SVG Version: 6.00 Build 0)  -->
<!DOCTYPE svg PUBLIC "-//W3C//DTD SVG 1.0//EN" "http://www.w3.org/TR/2001/REC-SVG-20010904/DTD/svg10.dtd">
<svg version="1.0" id="Ebene_1" xmlns="http://www.w3.org/2000/svg" xmlns:xlink="http://www.w3.org/1999/xlink" x="0px" y="0px"
	 width="80.492px" height="80.492px" viewBox="0 0 80.492 80.492" enable-background="new 0 0 80.492 80.492" xml:space="preserve">
<g id="background">
</g>
<g id="ò_x2021__xF8FF__x5F_3">
	<g>
		<path fill="#DBF3FB" d="M80.492,40.246c0,22.227-18.02,40.246-40.246,40.246C18.019,80.492,0,62.473,0,40.246
			C0,18.018,18.019,0,40.246,0C62.473,0,80.492,18.018,80.492,40.246"/>
		<path fill="#697478" d="M40.246,20.205c-11.556,0-20.922,9.367-20.922,20.923s9.366,20.923,20.922,20.923
			c11.557,0,20.924-9.367,20.924-20.923S51.803,20.205,40.246,20.205"/>
		<circle fill="#AAA9A7" cx="40.247" cy="40.246" r="20.923"/>
		<path fill="#FFFFFF" d="M41.57,29.03c-0.881-2.065-2.93-3.518-5.312-3.518c-3.18,0-5.765,2.587-5.765,5.766
			c0,3.179,2.585,5.766,5.765,5.766c0.441,0,0.869-0.055,1.281-0.15c-0.111-0.493-0.178-1.004-0.178-1.533
			C37.366,32.513,39.1,30.071,41.57,29.03z"/>
		<path fill="#FFFFFF" d="M37.102,43.371h8.071v-1.2l-0.003-0.013c-0.307,0.043-0.619,0.072-0.938,0.072
			c-1.805,0-3.442-0.703-4.667-1.84H29.129c-0.983,0-1.782,0.797-1.782,1.781v8.726h6.869v-4.641
			C34.219,44.661,35.508,43.371,37.102,43.371z"/>
		<path fill="#FFFFFF" d="M44.23,41.128c1.596,0,3.033-0.646,4.08-1.689c1.041-1.045,1.688-2.483,1.688-4.078
			c0-1.593-0.646-3.031-1.688-4.077c-1.047-1.044-2.484-1.689-4.08-1.689c-1.592,0-3.029,0.646-4.076,1.689
			c-1.043,1.045-1.688,2.483-1.688,4.077c0,1.594,0.645,3.033,1.688,4.078C41.201,40.482,42.639,41.128,44.23,41.128z"/>
		<path fill="#FFFFFF" d="M51.363,44.473H37.102c-0.982,0.002-1.78,0.799-1.781,1.783v8.725h17.826v-8.725
			C53.146,45.271,52.348,44.475,51.363,44.473z"/>
	</g>
</g>
<g id="camera">
</g>
</svg>
