<?xml version="1.0" encoding="utf-8"?>
<!-- Generator: Adobe Illustrator 16.0.0, SVG Export Plug-In . SVG Version: 6.00 Build 0)  -->
<!DOCTYPE svg PUBLIC "-//W3C//DTD SVG 1.0//EN" "http://www.w3.org/TR/2001/REC-SVG-20010904/DTD/svg10.dtd">
<svg version="1.0" id="Ebene_1" xmlns="http://www.w3.org/2000/svg" xmlns:xlink="http://www.w3.org/1999/xlink" x="0px" y="0px"
	 width="203.508px" height="58px" viewBox="0 0 203.508 58" enable-background="new 0 0 203.508 58" xml:space="preserve">
<polyline fill="#FFFFFF" points="52,58 0,58 0,0 52,0 52,58 "/>
<polyline fill="#DAF2FB" points="49,3 3,3 3,55 49,55 49,3 "/>
<g>
	<g>
		<defs>
			<polyline id="SVGID_1_" points="49,3 3,3 3,55 49,55 49,3 			"/>
		</defs>
		<clipPath id="SVGID_2_">
			<use xlink:href="#SVGID_1_"  overflow="visible"/>
		</clipPath>
		<g clip-path="url(#SVGID_2_)">
			<g>
				<circle fill="#FFA000" cx="26.001" cy="11.35" r="6.769"/>
				<path fill="#FFDBC5" d="M10.245,62.485v-7.15c0-7.5,6.081-13.581,13.582-13.581h5.004c7.5,0,13.581,6.081,13.581,13.581v7.15
					H10.245"/>
				<path fill="#62C1C3" d="M10.245,62.485v-7.15c0-6.144,4.08-11.334,9.678-13.012l6.168,6.104l6.489-6.149
					c5.678,1.627,9.833,6.858,9.833,13.058v7.15L10.245,62.485"/>
				<path fill="#FFDBC5" d="M10.063,26.63c0,8.984,8.427,16.266,16.263,16.266c7.837,0,16.264-7.28,16.264-16.266
					c0-8.979-7.281-16.262-16.264-16.262C17.345,10.369,10.063,17.65,10.063,26.63"/>
				<path fill="#FFDBC5" d="M10.063,26.63c0,8.984,8.427,16.266,16.263,16.266c7.837,0,16.264-7.28,16.264-16.266
					c0-8.979-7.281-16.262-16.264-16.262C17.345,10.369,10.063,17.65,10.063,26.63"/>
				<path fill="#FFC5A4" d="M26.344,42.896c-0.001,0-0.003,0-0.004,0C26.342,42.896,26.343,42.896,26.344,42.896 M26.309,42.896
					c0.002,0,0.003,0,0.004,0C26.312,42.896,26.311,42.896,26.309,42.896 M26.295,42.896c0.002,0,0.002,0,0.004,0
					C26.298,42.896,26.297,42.896,26.295,42.896 M26.358,42.896c-0.001,0-0.002,0-0.004,0
					C26.356,42.896,26.356,42.896,26.358,42.896 M26.282,42.896c0.001,0,0.002,0,0.003,0C26.285,42.896,26.283,42.896,26.282,42.896
					 M26.372,42.896c-0.001,0-0.002,0-0.004,0C26.37,42.896,26.371,42.896,26.372,42.896 M26.268,42.896L26.268,42.896
					L26.268,42.896 M26.387,42.896h-0.002H26.387 M26.25,42.896c0.002,0,0.002,0,0.004,0C26.253,42.896,26.253,42.896,26.25,42.896
					 M26.403,42.896c-0.001,0-0.002,0-0.004,0C26.4,42.896,26.402,42.896,26.403,42.896 M26.237,42.896c0.002,0,0.002,0,0.003,0
					C26.239,42.896,26.238,42.896,26.237,42.896 M26.416,42.896c0,0-0.001,0-0.003,0C26.415,42.896,26.416,42.896,26.416,42.896
					 M26.208,42.894C26.208,42.894,26.209,42.894,26.208,42.894L26.208,42.894 M26.446,42.894c0,0-0.001,0-0.002,0
					C26.444,42.894,26.445,42.894,26.446,42.894 M26.193,42.894L26.193,42.894L26.193,42.894 M26.461,42.894h-0.002
					C26.459,42.894,26.46,42.894,26.461,42.894 M26.489,42.894L26.489,42.894L26.489,42.894 M26.149,42.892
					c0,0.002,0,0.002,0.001,0.002C26.149,42.894,26.149,42.894,26.149,42.892 M26.505,42.892c0,0-0.001,0.002-0.002,0.002
					C26.503,42.894,26.503,42.894,26.505,42.892"/>
				<path fill="#FFC5A4" d="M12.88,35.347c3.094,4.482,8.285,7.477,13.269,7.545c0,0.002,0,0.002,0.001,0.002
					c0.015,0,0.029,0,0.043,0h0.001c0.004,0,0.009,0,0.013,0c0,0,0,0,0.001,0c0.009,0.002,0.019,0.002,0.028,0.002
					c0.001,0,0.002,0,0.003,0c0.003,0,0.007,0,0.011,0c0.002,0,0.002,0,0.004,0c0.003,0,0.008,0,0.013,0l0,0c0.005,0,0.01,0,0.014,0
					c0.001,0,0.003,0,0.003,0c0.003,0,0.007,0,0.011,0c0.001,0,0.002,0,0.004,0c0.003,0,0.006,0,0.009,0c0.002,0,0.003,0,0.004,0
					c0.005,0,0.009,0,0.013,0c0.005,0,0.01,0,0.014,0c0.001,0,0.003,0,0.004,0c0.003,0,0.006,0,0.01,0c0.002,0,0.002,0,0.004,0
					c0.003,0,0.007,0,0.01,0c0.001,0,0.002,0,0.004,0c0.004,0,0.008,0,0.013,0h0.002c0.004,0,0.008,0,0.012,0
					c0.001,0,0.002,0,0.004,0c0.003,0,0.006,0,0.01,0c0.001,0,0.002,0,0.003,0c0.01,0,0.019,0,0.028-0.002c0,0,0.001,0,0.002,0
					c0.004,0,0.009,0,0.013,0c0,0,0.001,0,0.002,0c0.01,0,0.019,0,0.028,0l0,0c0.005,0,0.009,0,0.014,0c0,0,0.001-0.002,0.002-0.002
					c4.984-0.068,10.174-3.062,13.268-7.545c-3.811,3.457-8.713,5.582-13.447,5.582C21.594,40.931,16.691,38.806,12.88,35.347"/>
				<circle fill="#302824" cx="32.225" cy="28.646" r="1.139"/>
				<circle fill="#302824" cx="20.429" cy="28.646" r="1.139"/>
				<ellipse fill="#FFB0B0" cx="32.092" cy="32.475" rx="2.25" ry="1.405"/>
				<ellipse fill="#FFB0B0" cx="20.563" cy="32.475" rx="2.25" ry="1.405"/>
				<path fill="#FF6760" d="M22.787,36.828c0.832,1.244,2.192,1.866,3.54,1.861c1.348,0.005,2.708-0.617,3.54-1.861
					c0.11-0.164,0.066-0.387-0.098-0.496c-0.165-0.111-0.387-0.064-0.497,0.098c-0.689,1.031-1.811,1.547-2.945,1.547
					c-1.135,0-2.256-0.516-2.945-1.547c-0.109-0.162-0.332-0.209-0.496-0.098C22.722,36.441,22.678,36.664,22.787,36.828z"/>
				<path fill="#FFFFFF" d="M32.814,41.919c0,0,1.795,2.762,0.178,6.569c-1.542,3.629-6.068,3.306-6.902-0.062L32.814,41.919z"/>
				<path fill="#FFFFFF" d="M19.839,41.919c0,0-1.795,2.762-0.178,6.569c1.542,3.629,5.596,3.306,6.429-0.062L19.839,41.919z"/>
				<path fill="#FFB300" d="M35.659,16.779c0,0,4.834,5.521,4.9,11.538c0.066,6.067-1.959,10.016-1.959,10.016
					s3.217-2.653,4.014-9.437c0,0,2.241-13.663-8.515-18.527c-10.753-4.866-18.384,0.154-22.221,6.396
					c-3.838,6.24-2.718,10.931-1.759,14.742c0.958,3.812,3.341,6.553,3.341,6.553c-0.596-2.383-2.978-5.48-1.067-13.773
					C13.931,23.775,30.666,19.851,35.659,16.779z"/>
				<path fill="#FFFFFF" d="M15.523,23.708c0.419,0.419,1.097,0.419,1.515,0c0.42-0.419,0.42-1.097,0-1.517l-2.779-2.779
					c-0.419-0.419-1.098-0.419-1.517,0c-0.419,0.418-0.418,1.098,0,1.518L15.523,23.708z"/>
			</g>
			<ellipse fill="#FFFFFF" cx="20.052" cy="28.35" rx="0.342" ry="0.327"/>
			<path d="M19.709,28.349h-0.006c0,0.186,0.155,0.334,0.349,0.334c0.193,0,0.349-0.148,0.349-0.334s-0.156-0.334-0.349-0.334
				c-0.193,0-0.349,0.148-0.349,0.334H19.709h0.007c0-0.176,0.149-0.319,0.335-0.319c0.187,0,0.335,0.144,0.336,0.319
				c0,0.179-0.149,0.32-0.336,0.32c-0.186,0-0.335-0.143-0.335-0.32H19.709z"/>
			<ellipse fill="#FFFFFF" cx="31.781" cy="28.35" rx="0.343" ry="0.327"/>
			<path d="M31.438,28.349h-0.006c0,0.186,0.157,0.334,0.35,0.334c0.193,0,0.348-0.148,0.348-0.334s-0.155-0.334-0.348-0.334
				c-0.193,0-0.35,0.148-0.35,0.334H31.438h0.007c0-0.176,0.149-0.319,0.336-0.319c0.186,0,0.335,0.144,0.335,0.319
				c0,0.179-0.15,0.32-0.335,0.32c-0.187,0-0.336-0.143-0.336-0.32H31.438z"/>
		</g>
	</g>
</g>
<g>
	<g>
		<g>
			<path d="M66.182,15.314c1.269-0.216,3.05-0.378,5.56-0.378c2.538,0,4.346,0.486,5.561,1.458c1.161,0.917,1.944,2.429,1.944,4.211
				c0,1.781-0.594,3.293-1.674,4.318c-1.403,1.322-3.482,1.917-5.911,1.917c-0.54,0-1.026-0.027-1.404-0.081v6.505h-4.076V15.314z
				 M70.257,23.574c0.351,0.081,0.783,0.108,1.376,0.108c2.187,0,3.536-1.107,3.536-2.97c0-1.674-1.161-2.672-3.212-2.672
				c-0.837,0-1.404,0.081-1.701,0.162V23.574z"/>
			<path d="M88.751,33.264l-0.243-1.322h-0.081c-0.864,1.053-2.213,1.619-3.779,1.619c-2.672,0-4.265-1.943-4.265-4.049
				c0-3.428,3.077-5.074,7.747-5.048v-0.188c0-0.702-0.378-1.701-2.402-1.701c-1.35,0-2.78,0.459-3.644,0.999l-0.756-2.646
				c0.918-0.513,2.726-1.16,5.128-1.16c4.4,0,5.804,2.591,5.804,5.695v4.589c0,1.269,0.054,2.483,0.189,3.212H88.751z
				 M88.266,27.029c-2.159-0.027-3.833,0.486-3.833,2.078c0,1.053,0.702,1.565,1.62,1.565c1.026,0,1.863-0.675,2.132-1.511
				c0.054-0.216,0.081-0.459,0.081-0.702V27.029z"/>
			<path d="M95.477,29.674c0.756,0.459,2.321,0.998,3.536,0.998c1.242,0,1.754-0.432,1.754-1.106s-0.405-0.998-1.943-1.512
				c-2.727-0.917-3.779-2.402-3.752-3.968c0-2.456,2.105-4.318,5.372-4.318c1.539,0,2.915,0.351,3.725,0.756l-0.729,2.834
				c-0.594-0.324-1.728-0.756-2.861-0.756c-0.999,0-1.565,0.405-1.565,1.08c0,0.62,0.513,0.944,2.132,1.511
				c2.51,0.864,3.563,2.133,3.59,4.076c0,2.456-1.943,4.265-5.722,4.265c-1.728,0-3.266-0.378-4.265-0.917L95.477,29.674z"/>
			<path d="M107.194,29.674c0.756,0.459,2.322,0.998,3.537,0.998c1.241,0,1.754-0.432,1.754-1.106s-0.404-0.998-1.943-1.512
				c-2.727-0.917-3.779-2.402-3.752-3.968c0-2.456,2.105-4.318,5.371-4.318c1.539,0,2.916,0.351,3.725,0.756l-0.729,2.834
				c-0.594-0.324-1.727-0.756-2.861-0.756c-0.998,0-1.564,0.405-1.564,1.08c0,0.62,0.512,0.944,2.132,1.511
				c2.511,0.864,3.563,2.133,3.59,4.076c0,2.456-1.943,4.265-5.722,4.265c-1.729,0-3.267-0.378-4.266-0.917L107.194,29.674z"/>
			<path d="M119.075,15.071h11.12v3.374h-6.991v4.157h6.533v3.347h-6.533v7.315h-4.129V15.071z"/>
			<path d="M145.504,26.516c0,4.832-3.429,7.045-6.965,7.045c-3.859,0-6.829-2.537-6.829-6.802c0-4.266,2.808-6.991,7.046-6.991
				C142.805,19.768,145.504,22.548,145.504,26.516z M135.948,26.651c0,2.268,0.945,3.968,2.7,3.968c1.593,0,2.618-1.593,2.618-3.968
				c0-1.971-0.756-3.968-2.618-3.968C136.677,22.683,135.948,24.708,135.948,26.651z"/>
			<path d="M152.633,16.286v3.779h2.943v3.022h-2.943v4.778c0,1.593,0.379,2.321,1.62,2.321c0.513,0,0.917-0.054,1.215-0.108
				l0.026,3.104c-0.539,0.216-1.512,0.351-2.672,0.351c-1.322,0-2.43-0.458-3.077-1.133c-0.756-0.783-1.134-2.052-1.134-3.914
				v-5.399h-1.754v-3.022h1.754v-2.861L152.633,16.286z"/>
			<path d="M170.856,26.516c0,4.832-3.428,7.045-6.964,7.045c-3.86,0-6.829-2.537-6.829-6.802c0-4.266,2.808-6.991,7.045-6.991
				C168.157,19.768,170.856,22.548,170.856,26.516z M161.301,26.651c0,2.268,0.944,3.968,2.699,3.968
				c1.592,0,2.618-1.593,2.618-3.968c0-1.971-0.756-3.968-2.618-3.968C162.03,22.683,161.301,24.708,161.301,26.651z"/>
			<path d="M172.183,31.078c0-1.457,0.999-2.51,2.429-2.51c1.432,0,2.402,1.025,2.402,2.51c0,1.431-0.971,2.483-2.429,2.483
				C173.182,33.561,172.183,32.508,172.183,31.078z"/>
			<path d="M179.5,24.411c0-1.943-0.055-3.212-0.108-4.346h3.536l0.135,2.429h0.107c0.676-1.916,2.295-2.726,3.564-2.726
				c0.377,0,0.566,0,0.863,0.054v3.86c-0.297-0.055-0.648-0.108-1.107-0.108c-1.512,0-2.537,0.81-2.807,2.078
				c-0.055,0.271-0.081,0.594-0.081,0.918v6.694H179.5V24.411z"/>
			<path d="M202.581,26.516c0,4.832-3.428,7.045-6.964,7.045c-3.86,0-6.829-2.537-6.829-6.802c0-4.266,2.808-6.991,7.045-6.991
				C199.881,19.768,202.581,22.548,202.581,26.516z M193.026,26.651c0,2.268,0.944,3.968,2.699,3.968
				c1.592,0,2.618-1.593,2.618-3.968c0-1.971-0.756-3.968-2.618-3.968C193.754,22.683,193.026,24.708,193.026,26.651z"/>
		</g>
	</g>
	<g>
		<path d="M65.679,42.375c0.346,0.213,0.853,0.391,1.385,0.391c0.791,0,1.252-0.417,1.252-1.021c0-0.559-0.32-0.879-1.128-1.189
			c-0.977-0.347-1.581-0.853-1.581-1.696c0-0.933,0.773-1.625,1.936-1.625c0.613,0,1.057,0.142,1.323,0.293l-0.213,0.631
			c-0.195-0.107-0.595-0.284-1.137-0.284c-0.817,0-1.128,0.488-1.128,0.896c0,0.56,0.364,0.835,1.19,1.154
			c1.013,0.391,1.527,0.879,1.527,1.759c0,0.923-0.684,1.723-2.096,1.723c-0.577,0-1.208-0.169-1.527-0.382L65.679,42.375z"/>
		<path d="M70.94,37.332v3.543c0,1.341,0.595,1.909,1.394,1.909c0.888,0,1.457-0.586,1.457-1.909v-3.543h0.781v3.49
			c0,1.838-0.968,2.593-2.265,2.593c-1.225,0-2.149-0.701-2.149-2.558v-3.525H70.94z"/>
		<path d="M75.917,37.403c0.373-0.062,0.861-0.116,1.483-0.116c0.764,0,1.323,0.178,1.678,0.498
			c0.329,0.284,0.524,0.719,0.524,1.252c0,0.542-0.16,0.968-0.462,1.278c-0.408,0.436-1.074,0.657-1.829,0.657
			c-0.231,0-0.444-0.009-0.622-0.053v2.397h-0.773V37.403z M76.69,40.289c0.168,0.044,0.382,0.062,0.639,0.062
			c0.933,0,1.501-0.453,1.501-1.279c0-0.79-0.56-1.172-1.412-1.172c-0.337,0-0.595,0.026-0.728,0.062V40.289z"/>
		<path d="M83.745,40.51h-2.327v2.158h2.593v0.648h-3.366v-5.985h3.232v0.648h-2.459v1.892h2.327V40.51z"/>
		<path d="M85.017,37.412c0.391-0.08,0.95-0.125,1.483-0.125c0.826,0,1.358,0.151,1.731,0.489c0.302,0.266,0.471,0.675,0.471,1.137
			c0,0.79-0.497,1.313-1.128,1.527v0.026c0.462,0.16,0.737,0.586,0.879,1.208c0.195,0.834,0.337,1.412,0.462,1.643h-0.799
			c-0.098-0.169-0.231-0.684-0.4-1.43c-0.177-0.826-0.497-1.137-1.199-1.163H85.79v2.593h-0.773V37.412z M85.79,40.137h0.79
			c0.826,0,1.35-0.452,1.35-1.137c0-0.772-0.56-1.109-1.376-1.118c-0.373,0-0.64,0.035-0.764,0.07V40.137z"/>
		<path d="M89.692,42.375c0.346,0.213,0.853,0.391,1.385,0.391c0.791,0,1.252-0.417,1.252-1.021c0-0.559-0.32-0.879-1.128-1.189
			c-0.977-0.347-1.581-0.853-1.581-1.696c0-0.933,0.773-1.625,1.936-1.625c0.613,0,1.057,0.142,1.323,0.293l-0.213,0.631
			c-0.195-0.107-0.595-0.284-1.137-0.284c-0.817,0-1.128,0.488-1.128,0.896c0,0.56,0.364,0.835,1.19,1.154
			c1.013,0.391,1.527,0.879,1.527,1.759c0,0.923-0.684,1.723-2.096,1.723c-0.577,0-1.208-0.169-1.527-0.382L89.692,42.375z"/>
		<path d="M98.363,43.122c-0.284,0.142-0.853,0.284-1.581,0.284c-1.687,0-2.957-1.065-2.957-3.028c0-1.874,1.27-3.144,3.126-3.144
			c0.746,0,1.216,0.159,1.421,0.267l-0.187,0.63c-0.293-0.142-0.71-0.248-1.208-0.248c-1.403,0-2.335,0.896-2.335,2.469
			c0,1.465,0.844,2.406,2.3,2.406c0.471,0,0.95-0.098,1.261-0.249L98.363,43.122z"/>
		<path d="M100.107,37.332v2.504h2.895v-2.504h0.781v5.985h-0.781V40.51h-2.895v2.807h-0.773v-5.985H100.107z"/>
		<path d="M105.128,43.317v-5.985h0.844l1.918,3.028c0.444,0.701,0.79,1.332,1.074,1.944l0.018-0.009
			c-0.071-0.799-0.089-1.527-0.089-2.46v-2.504h0.728v5.985h-0.781l-1.901-3.037c-0.417-0.666-0.817-1.35-1.119-1.998l-0.027,0.009
			c0.044,0.755,0.062,1.474,0.062,2.469v2.558H105.128z"/>
		<path d="M114.076,40.51h-2.327v2.158h2.594v0.648h-3.366v-5.985h3.232v0.648h-2.46v1.892h2.327V40.51z"/>
		<path d="M115.348,37.332h0.773v5.337h2.558v0.648h-3.331V37.332z"/>
		<path d="M119.543,37.332h0.773v5.337h2.557v0.648h-3.33V37.332z"/>
		<path d="M126.837,40.51h-2.327v2.158h2.594v0.648h-3.366v-5.985h3.232v0.648h-2.46v1.892h2.327V40.51z"/>
		<path d="M129.995,37.403c0.373-0.062,0.861-0.116,1.482-0.116c0.764,0,1.323,0.178,1.679,0.498
			c0.329,0.284,0.524,0.719,0.524,1.252c0,0.542-0.16,0.968-0.463,1.278c-0.408,0.436-1.074,0.657-1.828,0.657
			c-0.231,0-0.445-0.009-0.622-0.053v2.397h-0.772V37.403z M130.767,40.289c0.169,0.044,0.382,0.062,0.64,0.062
			c0.932,0,1.5-0.453,1.5-1.279c0-0.79-0.559-1.172-1.412-1.172c-0.337,0-0.595,0.026-0.728,0.062V40.289z"/>
		<path d="M134.722,37.412c0.391-0.08,0.95-0.125,1.483-0.125c0.826,0,1.358,0.151,1.731,0.489c0.302,0.266,0.471,0.675,0.471,1.137
			c0,0.79-0.497,1.313-1.128,1.527v0.026c0.462,0.16,0.737,0.586,0.879,1.208c0.195,0.834,0.338,1.412,0.463,1.643h-0.8
			c-0.098-0.169-0.231-0.684-0.399-1.43c-0.178-0.826-0.498-1.137-1.199-1.163h-0.729v2.593h-0.772V37.412z M135.495,40.137h0.791
			c0.826,0,1.35-0.452,1.35-1.137c0-0.772-0.56-1.109-1.377-1.118c-0.373,0-0.639,0.035-0.764,0.07V40.137z"/>
		<path d="M142.603,40.51h-2.327v2.158h2.594v0.648h-3.366v-5.985h3.232v0.648h-2.46v1.892h2.327V40.51z"/>
		<path d="M148.92,40.688c-0.045-0.835-0.098-1.838-0.089-2.584h-0.026c-0.205,0.701-0.453,1.447-0.756,2.273l-1.057,2.904h-0.586
			l-0.968-2.851c-0.284-0.844-0.524-1.617-0.692-2.327h-0.018c-0.018,0.746-0.062,1.749-0.115,2.646l-0.16,2.566h-0.737l0.417-5.985
			h0.986l1.021,2.895c0.248,0.737,0.453,1.395,0.604,2.017h0.026c0.151-0.604,0.364-1.262,0.631-2.017l1.065-2.895h0.986
			l0.373,5.985h-0.756L148.92,40.688z"/>
		<path d="M151.793,37.332v5.985h-0.772v-5.985H151.793z"/>
		<path d="M153.918,37.332v3.543c0,1.341,0.594,1.909,1.394,1.909c0.888,0,1.456-0.586,1.456-1.909v-3.543h0.781v3.49
			c0,1.838-0.967,2.593-2.264,2.593c-1.226,0-2.149-0.701-2.149-2.558v-3.525H153.918z"/>
		<path d="M163.94,40.688c-0.045-0.835-0.098-1.838-0.09-2.584h-0.026c-0.204,0.701-0.452,1.447-0.755,2.273l-1.057,2.904h-0.586
			l-0.969-2.851c-0.283-0.844-0.523-1.617-0.691-2.327h-0.019c-0.018,0.746-0.062,1.749-0.115,2.646l-0.16,2.566h-0.737l0.418-5.985
			h0.985l1.021,2.895c0.249,0.737,0.453,1.395,0.604,2.017h0.025c0.152-0.604,0.365-1.262,0.631-2.017l1.066-2.895h0.985
			l0.373,5.985h-0.755L163.94,40.688z"/>
		<path d="M172.862,44.196c-0.809-0.213-1.599-0.453-2.291-0.692c-0.125-0.044-0.249-0.089-0.365-0.089
			c-1.42-0.054-2.637-1.102-2.637-3.028c0-1.918,1.172-3.152,2.789-3.152c1.625,0,2.682,1.261,2.682,3.028
			c0,1.536-0.711,2.521-1.705,2.868v0.035c0.595,0.151,1.243,0.294,1.749,0.382L172.862,44.196z M172.222,40.297
			c0-1.199-0.622-2.434-1.892-2.434c-1.306,0-1.945,1.208-1.936,2.505c-0.01,1.27,0.692,2.415,1.9,2.415
			C171.53,42.784,172.222,41.666,172.222,40.297z"/>
		<path d="M174.821,37.332v3.543c0,1.341,0.594,1.909,1.394,1.909c0.888,0,1.456-0.586,1.456-1.909v-3.543h0.781v3.49
			c0,1.838-0.967,2.593-2.264,2.593c-1.226,0-2.149-0.701-2.149-2.558v-3.525H174.821z"/>
		<path d="M180.463,41.434l-0.621,1.883h-0.8l2.034-5.985h0.932l2.043,5.985h-0.826l-0.64-1.883H180.463z M182.426,40.831
			l-0.586-1.723c-0.134-0.392-0.223-0.746-0.312-1.093h-0.018c-0.089,0.355-0.187,0.72-0.302,1.083l-0.586,1.732H182.426z"/>
		<path d="M184.934,37.332h0.773v5.337h2.557v0.648h-3.33V37.332z"/>
		<path d="M189.901,37.332v5.985h-0.772v-5.985H189.901z"/>
		<path d="M192.389,37.989h-1.82v-0.657H195v0.657h-1.83v5.328h-0.781V37.989z"/>
		<path d="M195.971,41.434l-0.621,1.883h-0.8l2.034-5.985h0.932l2.043,5.985h-0.826l-0.64-1.883H195.971z M195.82,36.479
			c0-0.249,0.187-0.444,0.444-0.444c0.24,0,0.418,0.195,0.418,0.444c0,0.248-0.17,0.453-0.427,0.453
			C195.998,36.932,195.82,36.727,195.82,36.479z M197.934,40.831l-0.586-1.723c-0.134-0.392-0.223-0.746-0.312-1.093h-0.018
			c-0.089,0.355-0.187,0.72-0.302,1.083l-0.586,1.732H197.934z M197.471,36.479c0-0.249,0.188-0.444,0.436-0.444
			c0.249,0,0.427,0.195,0.427,0.444c0,0.248-0.169,0.453-0.436,0.453C197.641,36.932,197.471,36.727,197.471,36.479z"/>
		<path d="M200.895,37.989h-1.82v-0.657h4.431v0.657h-1.829v5.328h-0.781V37.989z"/>
	</g>
</g>
</svg>
