<?xml version="1.0" encoding="UTF-8" standalone="no"?>
<svg width="288px" height="289px" viewBox="0 0 288 289" version="1.1" xmlns="http://www.w3.org/2000/svg" xmlns:xlink="http://www.w3.org/1999/xlink">
    <!-- Generator: Sketch 3.7.2 (28276) - http://www.bohemiancoding.com/sketch -->
    <title>passfoto-rosenheim-garantiert</title>
    <desc>Created with Sketch.</desc>
    <defs></defs>
    <g id="Page-1" stroke="none" stroke-width="1" fill="none" fill-rule="evenodd">
        <g id="passfoto-rosenheim-garantiert" transform="translate(-13.000000, -12.000000)">
            <polygon id="Star-1" fill="#FF9600" transform="translate(157.000000, 156.432645) rotate(5.000000) translate(-157.000000, -156.432645) " points="157 279.156406 143.668308 300.304512 134.449568 277.066801 117.45892 295.405128 112.667064 270.869144 92.596055 285.773203 92.3942654 260.77449 69.9263896 271.73674 74.3215372 247.126599 50.2219114 253.773735 59.064325 230.390234 34.1536331 232.495896 47.1421947 211.135333 22.2687404 208.627813 38.9611402 190.017597 14.9719591 182.982288 34.7997575 167.756165 12.5117725 156.432645 34.7997575 145.109125 14.9719591 129.883003 38.9611402 122.847694 22.2687404 104.237477 47.1421947 101.729958 34.1536331 80.3693953 59.064325 82.4750567 50.2219114 59.091556 74.3215372 65.7386921 69.9263896 41.1285508 92.3942654 52.0908014 92.596055 27.0920882 112.667064 41.9961469 117.45892 17.4601631 134.449568 35.7984902 143.668308 12.5607793 157 33.708885 170.331692 12.5607793 179.550432 35.7984902 196.54108 17.4601631 201.332936 41.9961469 221.403945 27.0920882 221.605735 52.0908014 244.07361 41.1285508 239.678463 65.7386921 263.778089 59.091556 254.935675 82.4750567 279.846367 80.3693953 266.857805 101.729958 291.73126 104.237477 275.03886 122.847694 299.028041 129.883003 279.200243 145.109125 301.488227 156.432645 279.200243 167.756165 299.028041 182.982288 275.03886 190.017597 291.73126 208.627813 266.857805 211.135333 279.846367 232.495896 254.935675 230.390234 263.778089 253.773735 239.678463 247.126599 244.07361 271.73674 221.605735 260.77449 221.403945 285.773203 201.332936 270.869144 196.54108 295.405128 179.550432 277.066801 170.331692 300.304512"></polygon>
            <path d="M76.385,100.57 L76.865,103 L79.865,103 L79.865,91.42 L70.865,91.42 L70.865,94.93 L75.605,94.93 C75.4649993,96.4300075 74.9700042,97.5749961 74.12,98.365 C73.2699957,99.155004 72.0650078,99.55 70.505,99.55 C69.4449947,99.55 68.5450037,99.3450021 67.805,98.935 C67.0649963,98.5249979 66.4650023,97.9800034 66.005,97.3 C65.5449977,96.6199966 65.210001,95.8550043 65,95.005 C64.7899989,94.1549957 64.685,93.2800045 64.685,92.38 C64.685,91.4399953 64.7899989,90.5300044 65,89.65 C65.210001,88.7699956 65.5449977,87.9850035 66.005,87.295 C66.4650023,86.6049965 67.0649963,86.055002 67.805,85.645 C68.5450037,85.234998 69.4449947,85.03 70.505,85.03 C71.6450057,85.03 72.614996,85.329997 73.415,85.93 C74.215004,86.530003 74.7549986,87.429994 75.035,88.63 L79.535,88.63 C79.4149994,87.4099939 79.0850027,86.3300047 78.545,85.39 C78.0049973,84.4499953 77.3200041,83.6600032 76.49,83.02 C75.6599958,82.3799968 74.7300051,81.8950016 73.7,81.565 C72.6699948,81.2349984 71.6050055,81.07 70.505,81.07 C68.8649918,81.07 67.3900065,81.3599971 66.08,81.94 C64.7699934,82.5200029 63.6650045,83.3199949 62.765,84.34 C61.8649955,85.3600051 61.1750024,86.5549932 60.695,87.925 C60.2149976,89.2950068 59.975,90.779992 59.975,92.38 C59.975,93.9400078 60.2149976,95.3949932 60.695,96.745 C61.1750024,98.0950068 61.8649955,99.269995 62.765,100.27 C63.6650045,101.270005 64.7699934,102.054997 66.08,102.625 C67.3900065,103.195003 68.8649918,103.48 70.505,103.48 C71.5450052,103.48 72.5749949,103.265002 73.595,102.835 C74.6150051,102.404998 75.5449958,101.650005 76.385,100.57 L76.385,100.57 Z M89.225,94.72 L92.015,86.86 L92.075,86.86 L94.775,94.72 L89.225,94.72 Z M89.675,81.58 L81.575,103 L86.315,103 L87.995,98.23 L96.005,98.23 L97.625,103 L102.515,103 L94.505,81.58 L89.675,81.58 Z M109.235,91.27 L109.235,85.24 L114.395,85.24 C115.475005,85.24 116.284997,85.4749977 116.825,85.945 C117.365003,86.4150024 117.635,87.1699948 117.635,88.21 C117.635,89.2900054 117.365003,90.0699976 116.825,90.55 C116.284997,91.0300024 115.475005,91.27 114.395,91.27 L109.235,91.27 Z M104.525,81.58 L104.525,103 L109.235,103 L109.235,94.63 L113.945,94.63 C115.125006,94.63 115.974997,94.8899974 116.495,95.41 C117.015003,95.9300026 117.354999,96.7499944 117.515,97.87 C117.635001,98.7300043 117.725,99.6299953 117.785,100.57 C117.845,101.510005 118.004999,102.319997 118.265,103 L122.975,103 C122.754999,102.699998 122.590001,102.335002 122.48,101.905 C122.369999,101.474998 122.29,101.020002 122.24,100.54 C122.19,100.059998 122.155,99.5900023 122.135,99.13 C122.115,98.6699977 122.095,98.2700017 122.075,97.93 C122.035,97.3899973 121.960001,96.8500027 121.85,96.31 C121.739999,95.7699973 121.565001,95.2750023 121.325,94.825 C121.084999,94.3749978 120.775002,93.9850017 120.395,93.655 C120.014998,93.3249983 119.535003,93.0800008 118.955,92.92 L118.955,92.86 C120.155006,92.3799976 121.019997,91.6800046 121.55,90.76 C122.080003,89.8399954 122.345,88.7500063 122.345,87.49 C122.345,86.6699959 122.200001,85.9050035 121.91,85.195 C121.619999,84.4849964 121.200003,83.8600027 120.65,83.32 C120.099997,82.7799973 119.440004,82.3550015 118.67,82.045 C117.899996,81.7349985 117.035005,81.58 116.075,81.58 L104.525,81.58 Z M131.735,94.72 L134.525,86.86 L134.585,86.86 L137.285,94.72 L131.735,94.72 Z M132.185,81.58 L124.085,103 L128.825,103 L130.505,98.23 L138.515,98.23 L140.135,103 L145.025,103 L137.015,81.58 L132.185,81.58 Z M147.035,81.58 L147.035,103 L151.445,103 L151.445,88.66 L151.505,88.66 L160.415,103 L165.125,103 L165.125,81.58 L160.715,81.58 L160.715,95.95 L160.655,95.95 L151.715,81.58 L147.035,81.58 Z M174.155,85.54 L174.155,103 L178.865,103 L178.865,85.54 L185.285,85.54 L185.285,81.58 L167.735,81.58 L167.735,85.54 L174.155,85.54 Z M187.895,81.58 L187.895,103 L192.605,103 L192.605,81.58 L187.895,81.58 Z M196.895,81.58 L196.895,103 L213.155,103 L213.155,99.04 L201.605,99.04 L201.605,93.79 L211.985,93.79 L211.985,90.13 L201.605,90.13 L201.605,85.54 L212.915,85.54 L212.915,81.58 L196.895,81.58 Z M221.195,91.27 L221.195,85.24 L226.355,85.24 C227.435005,85.24 228.244997,85.4749977 228.785,85.945 C229.325003,86.4150024 229.595,87.1699948 229.595,88.21 C229.595,89.2900054 229.325003,90.0699976 228.785,90.55 C228.244997,91.0300024 227.435005,91.27 226.355,91.27 L221.195,91.27 Z M216.485,81.58 L216.485,103 L221.195,103 L221.195,94.63 L225.905,94.63 C227.085006,94.63 227.934997,94.8899974 228.455,95.41 C228.975003,95.9300026 229.314999,96.7499944 229.475,97.87 C229.595001,98.7300043 229.685,99.6299953 229.745,100.57 C229.805,101.510005 229.964999,102.319997 230.225,103 L234.935,103 C234.714999,102.699998 234.550001,102.335002 234.44,101.905 C234.329999,101.474998 234.25,101.020002 234.2,100.54 C234.15,100.059998 234.115,99.5900023 234.095,99.13 C234.075,98.6699977 234.055,98.2700017 234.035,97.93 C233.995,97.3899973 233.920001,96.8500027 233.81,96.31 C233.699999,95.7699973 233.525001,95.2750023 233.285,94.825 C233.044999,94.3749978 232.735002,93.9850017 232.355,93.655 C231.974998,93.3249983 231.495003,93.0800008 230.915,92.92 L230.915,92.86 C232.115006,92.3799976 232.979997,91.6800046 233.51,90.76 C234.040003,89.8399954 234.305,88.7500063 234.305,87.49 C234.305,86.6699959 234.160001,85.9050035 233.87,85.195 C233.579999,84.4849964 233.160003,83.8600027 232.61,83.32 C232.059997,82.7799973 231.400004,82.3550015 230.63,82.045 C229.859996,81.7349985 228.995005,81.58 228.035,81.58 L216.485,81.58 Z M242.495,85.54 L242.495,103 L247.205,103 L247.205,85.54 L253.625,85.54 L253.625,81.58 L236.075,81.58 L236.075,85.54 L242.495,85.54 Z M83.3885,185 L83.3885,131.1 L74.6875,131.1 C74.3794985,133.153344 73.7378382,134.872993 72.7625,136.259 C71.7871618,137.645007 70.5936737,138.761496 69.182,139.6085 C67.7703263,140.455504 66.1790089,141.045832 64.408,141.3795 C62.6369912,141.713168 60.8018429,141.854334 58.9025,141.803 L58.9025,150.042 L72.4545,150.042 L72.4545,185 L83.3885,185 Z M108.7985,157.819 C108.7985,156.894995 108.811333,155.778507 108.837,154.4695 C108.862667,153.160493 108.952499,151.813007 109.1065,150.427 C109.260501,149.040993 109.517165,147.66784 109.8765,146.3075 C110.235835,144.94716 110.73633,143.728005 111.378,142.65 C112.01967,141.571995 112.840995,140.699337 113.842,140.032 C114.843005,139.364663 116.087826,139.031 117.5765,139.031 C119.065174,139.031 120.322828,139.364663 121.3495,140.032 C122.376172,140.699337 123.223163,141.571995 123.8905,142.65 C124.557837,143.728005 125.058332,144.94716 125.392,146.3075 C125.725668,147.66784 125.982332,149.040993 126.162,150.427 C126.341668,151.813007 126.444333,153.160493 126.47,154.4695 C126.495667,155.778507 126.5085,156.894995 126.5085,157.819 C126.5085,159.359008 126.457167,161.219822 126.3545,163.4015 C126.251833,165.583178 125.931003,167.687823 125.392,169.7155 C124.852997,171.743177 123.980339,173.475659 122.774,174.913 C121.567661,176.350341 119.835178,177.069 117.5765,177.069 C115.369156,177.069 113.675173,176.350341 112.4945,174.913 C111.313827,173.475659 110.454003,171.743177 109.915,169.7155 C109.375997,167.687823 109.055167,165.583178 108.9525,163.4015 C108.849833,161.219822 108.7985,159.359008 108.7985,157.819 L108.7985,157.819 Z M97.8645,157.819 C97.8645,163.209027 98.3906614,167.713482 99.443,171.3325 C100.495339,174.951518 101.919824,177.838989 103.7165,179.995 C105.513176,182.151011 107.604988,183.690995 109.992,184.615 C112.379012,185.539005 114.907153,186.001 117.5765,186.001 C120.29718,186.001 122.850988,185.539005 125.238,184.615 C127.625012,183.690995 129.729658,182.151011 131.552,179.995 C133.374342,177.838989 134.811661,174.951518 135.864,171.3325 C136.916339,167.713482 137.4425,163.209027 137.4425,157.819 C137.4425,152.582974 136.916339,148.181185 135.864,144.6135 C134.811661,141.045815 133.374342,138.184011 131.552,136.028 C129.729658,133.871989 127.625012,132.332005 125.238,131.408 C122.850988,130.483995 120.29718,130.022 117.5765,130.022 C114.907153,130.022 112.379012,130.483995 109.992,131.408 C107.604988,132.332005 105.513176,133.871989 103.7165,136.028 C101.919824,138.184011 100.495339,141.045815 99.443,144.6135 C98.3906614,148.181185 97.8645,152.582974 97.8645,157.819 L97.8645,157.819 Z M151.8415,157.819 C151.8415,156.894995 151.854333,155.778507 151.88,154.4695 C151.905667,153.160493 151.995499,151.813007 152.1495,150.427 C152.303501,149.040993 152.560165,147.66784 152.9195,146.3075 C153.278835,144.94716 153.77933,143.728005 154.421,142.65 C155.06267,141.571995 155.883995,140.699337 156.885,140.032 C157.886005,139.364663 159.130826,139.031 160.6195,139.031 C162.108174,139.031 163.365828,139.364663 164.3925,140.032 C165.419172,140.699337 166.266163,141.571995 166.9335,142.65 C167.600837,143.728005 168.101332,144.94716 168.435,146.3075 C168.768668,147.66784 169.025332,149.040993 169.205,150.427 C169.384668,151.813007 169.487333,153.160493 169.513,154.4695 C169.538667,155.778507 169.5515,156.894995 169.5515,157.819 C169.5515,159.359008 169.500167,161.219822 169.3975,163.4015 C169.294833,165.583178 168.974003,167.687823 168.435,169.7155 C167.895997,171.743177 167.023339,173.475659 165.817,174.913 C164.610661,176.350341 162.878178,177.069 160.6195,177.069 C158.412156,177.069 156.718173,176.350341 155.5375,174.913 C154.356827,173.475659 153.497003,171.743177 152.958,169.7155 C152.418997,167.687823 152.098167,165.583178 151.9955,163.4015 C151.892833,161.219822 151.8415,159.359008 151.8415,157.819 L151.8415,157.819 Z M140.9075,157.819 C140.9075,163.209027 141.433661,167.713482 142.486,171.3325 C143.538339,174.951518 144.962824,177.838989 146.7595,179.995 C148.556176,182.151011 150.647988,183.690995 153.035,184.615 C155.422012,185.539005 157.950153,186.001 160.6195,186.001 C163.34018,186.001 165.893988,185.539005 168.281,184.615 C170.668012,183.690995 172.772658,182.151011 174.595,179.995 C176.417342,177.838989 177.854661,174.951518 178.907,171.3325 C179.959339,167.713482 180.4855,163.209027 180.4855,157.819 C180.4855,152.582974 179.959339,148.181185 178.907,144.6135 C177.854661,141.045815 176.417342,138.184011 174.595,136.028 C172.772658,133.871989 170.668012,132.332005 168.281,131.408 C165.893988,130.483995 163.34018,130.022 160.6195,130.022 C157.950153,130.022 155.422012,130.483995 153.035,131.408 C150.647988,132.332005 148.556176,133.871989 146.7595,136.028 C144.962824,138.184011 143.538339,141.045815 142.486,144.6135 C141.433661,148.181185 140.9075,152.582974 140.9075,157.819 L140.9075,157.819 Z M235.6945,170.986 C235.6945,170.113329 235.733,169.138005 235.81,168.06 C235.887,166.981995 236.105165,165.981005 236.4645,165.057 C236.823835,164.132995 237.349997,163.363003 238.043,162.747 C238.736003,162.130997 239.698494,161.823 240.9305,161.823 C242.059839,161.823 242.94533,162.169497 243.587,162.8625 C244.22867,163.555503 244.703498,164.376829 245.0115,165.3265 C245.319502,166.276171 245.512,167.277161 245.589,168.3295 C245.666,169.381839 245.7045,170.292996 245.7045,171.063 C245.7045,171.884337 245.666,172.821161 245.589,173.8735 C245.512,174.925839 245.306668,175.926829 244.973,176.8765 C244.639332,177.826171 244.126003,178.634663 243.433,179.302 C242.739997,179.969337 241.803173,180.303 240.6225,180.303 C239.390494,180.303 238.440837,179.969337 237.7735,179.302 C237.106163,178.634663 236.618502,177.826171 236.3105,176.8765 C236.002498,175.926829 235.822834,174.913005 235.7715,173.835 C235.720166,172.756995 235.6945,171.807337 235.6945,170.986 L235.6945,170.986 Z M227.8405,170.909 C227.8405,173.013677 228.058664,174.989991 228.495,176.838 C228.931336,178.686009 229.649995,180.29016 230.651,181.6505 C231.652005,183.01084 232.960992,184.075996 234.578,184.846 C236.195008,185.616004 238.184155,186.001 240.5455,186.001 C242.804178,186.001 244.754825,185.628837 246.3975,184.8845 C248.040175,184.140163 249.387661,183.100673 250.44,181.766 C251.492339,180.431327 252.275164,178.865676 252.7885,177.069 C253.301836,175.272324 253.5585,173.321677 253.5585,171.217 C253.5585,169.112323 253.353169,167.136009 252.9425,165.288 C252.531831,163.439991 251.826005,161.83584 250.825,160.4755 C249.823995,159.11516 248.527841,158.037171 246.9365,157.2415 C245.345159,156.445829 243.343179,156.048 240.9305,156.048 C238.671822,156.048 236.721175,156.432996 235.0785,157.203 C233.435825,157.973004 232.075505,159.025327 230.9975,160.36 C229.919495,161.694673 229.123836,163.260324 228.6105,165.057 C228.097164,166.853676 227.8405,168.804323 227.8405,170.909 L227.8405,170.909 Z M233.7695,129.406 L201.8915,186.617 L208.5905,186.617 L240.3145,129.406 L233.7695,129.406 Z M195.9625,145.422 C195.9625,144.549329 196.001,143.548339 196.078,142.419 C196.155,141.289661 196.373165,140.237338 196.7325,139.262 C197.091835,138.286662 197.617997,137.465337 198.311,136.798 C199.004003,136.130663 199.966494,135.797 201.1985,135.797 C202.327839,135.797 203.21333,136.15633 203.855,136.875 C204.49667,137.59367 204.971498,138.466328 205.2795,139.493 C205.587502,140.519672 205.78,141.584828 205.857,142.6885 C205.934,143.792172 205.9725,144.728996 205.9725,145.499 C205.9725,146.320337 205.934,147.231495 205.857,148.2325 C205.78,149.233505 205.574668,150.183162 205.241,151.0815 C204.907332,151.979838 204.394003,152.736997 203.701,153.353 C203.007997,153.969003 202.071173,154.277 200.8905,154.277 C199.658494,154.277 198.708837,153.969003 198.0415,153.353 C197.374163,152.736997 196.886502,151.979838 196.5785,151.0815 C196.270498,150.183162 196.090834,149.220672 196.0395,148.194 C195.988166,147.167328 195.9625,146.243337 195.9625,145.422 L195.9625,145.422 Z M188.1085,145.268 C188.1085,147.372677 188.326664,149.336158 188.763,151.1585 C189.199336,152.980842 189.917995,154.546493 190.919,155.8555 C191.920005,157.164507 193.228992,158.191163 194.846,158.9355 C196.463008,159.679837 198.452155,160.052 200.8135,160.052 C203.072178,160.052 205.022825,159.69267 206.6655,158.974 C208.308175,158.25533 209.655661,157.25434 210.708,155.971 C211.760339,154.68766 212.543164,153.160509 213.0565,151.3895 C213.569836,149.618491 213.8265,147.680677 213.8265,145.576 C213.8265,143.471323 213.621169,141.469343 213.2105,139.57 C212.799831,137.670657 212.094005,136.015174 211.093,134.6035 C210.091995,133.191826 208.795841,132.075337 207.2045,131.254 C205.613159,130.432663 203.611179,130.022 201.1985,130.022 C198.939822,130.022 196.989175,130.419829 195.3465,131.2155 C193.703825,132.011171 192.343505,133.101993 191.2655,134.488 C190.187495,135.874007 189.391836,137.490991 188.8785,139.339 C188.365164,141.187009 188.1085,143.163323 188.1085,145.268 L188.1085,145.268 Z M76.04,218.25 L76.04,213.24 L80.45,213.24 C80.8700021,213.24 81.274998,213.275 81.665,213.345 C82.0550019,213.415 82.3999985,213.539999 82.7,213.72 C83.0000015,213.900001 83.2399991,214.149998 83.42,214.47 C83.6000009,214.790002 83.69,215.199997 83.69,215.7 C83.69,216.600005 83.4200027,217.249998 82.88,217.65 C82.3399973,218.050002 81.6500042,218.25 80.81,218.25 L76.04,218.25 Z M71.33,209.58 L71.33,231 L81.71,231 C82.6700048,231 83.6049954,230.880001 84.515,230.64 C85.4250045,230.399999 86.2349964,230.030003 86.945,229.53 C87.6550035,229.029998 88.2199979,228.385004 88.64,227.595 C89.0600021,226.804996 89.27,225.870005 89.27,224.79 C89.27,223.449993 88.9450032,222.305005 88.295,221.355 C87.6449967,220.404995 86.6600066,219.740002 85.34,219.36 C86.3000048,218.899998 87.0249975,218.310004 87.515,217.59 C88.0050024,216.869996 88.25,215.970005 88.25,214.89 C88.25,213.889995 88.0850016,213.050003 87.755,212.37 C87.4249983,211.689997 86.960003,211.145002 86.36,210.735 C85.759997,210.324998 85.0400042,210.030001 84.2,209.85 C83.3599958,209.669999 82.4300051,209.58 81.41,209.58 L71.33,209.58 Z M76.04,227.34 L76.04,221.46 L81.17,221.46 C82.1900051,221.46 83.0099969,221.694998 83.63,222.165 C84.2500031,222.635002 84.56,223.419995 84.56,224.52 C84.56,225.080003 84.4650009,225.539998 84.275,225.9 C84.084999,226.260002 83.8300016,226.544999 83.51,226.755 C83.1899984,226.965001 82.8200021,227.115 82.4,227.205 C81.9799979,227.295 81.5400023,227.34 81.08,227.34 L76.04,227.34 Z M96.53,213.09 L96.53,209.58 L92.27,209.58 L92.27,213.09 L96.53,213.09 Z M92.27,215.49 L92.27,231 L96.53,231 L96.53,215.49 L92.27,215.49 Z M103.82,223.26 C103.82,222.639997 103.879999,222.030003 104,221.43 C104.120001,220.829997 104.324999,220.300002 104.615,219.84 C104.905001,219.379998 105.289998,219.005001 105.77,218.715 C106.250002,218.424999 106.849996,218.28 107.57,218.28 C108.290004,218.28 108.894998,218.424999 109.385,218.715 C109.875002,219.005001 110.264999,219.379998 110.555,219.84 C110.845001,220.300002 111.049999,220.829997 111.17,221.43 C111.290001,222.030003 111.35,222.639997 111.35,223.26 C111.35,223.880003 111.290001,224.484997 111.17,225.075 C111.049999,225.665003 110.845001,226.194998 110.555,226.665 C110.264999,227.135002 109.875002,227.509999 109.385,227.79 C108.894998,228.070001 108.290004,228.21 107.57,228.21 C106.849996,228.21 106.250002,228.070001 105.77,227.79 C105.289998,227.509999 104.905001,227.135002 104.615,226.665 C104.324999,226.194998 104.120001,225.665003 104,225.075 C103.879999,224.484997 103.82,223.880003 103.82,223.26 L103.82,223.26 Z M99.56,223.26 C99.56,224.500006 99.7499981,225.619995 100.13,226.62 C100.510002,227.620005 101.049996,228.474996 101.75,229.185 C102.450003,229.895004 103.289995,230.439998 104.27,230.82 C105.250005,231.200002 106.349994,231.39 107.57,231.39 C108.790006,231.39 109.894995,231.200002 110.885,230.82 C111.875005,230.439998 112.719996,229.895004 113.42,229.185 C114.120003,228.474996 114.659998,227.620005 115.04,226.62 C115.420002,225.619995 115.61,224.500006 115.61,223.26 C115.61,222.019994 115.420002,220.895005 115.04,219.885 C114.659998,218.874995 114.120003,218.015004 113.42,217.305 C112.719996,216.594996 111.875005,216.045002 110.885,215.655 C109.894995,215.264998 108.790006,215.07 107.57,215.07 C106.349994,215.07 105.250005,215.264998 104.27,215.655 C103.289995,216.045002 102.450003,216.594996 101.75,217.305 C101.049996,218.015004 100.510002,218.874995 100.13,219.885 C99.7499981,220.895005 99.56,222.019994 99.56,223.26 L99.56,223.26 Z M118.64,215.49 L118.64,231 L122.9,231 L122.9,222 C122.9,221.239996 123.009999,220.625002 123.23,220.155 C123.450001,219.684998 123.714998,219.325001 124.025,219.075 C124.335002,218.824999 124.654998,218.655 124.985,218.565 C125.315002,218.475 125.579999,218.43 125.78,218.43 C126.460003,218.43 126.974998,218.544999 127.325,218.775 C127.675002,219.005001 127.924999,219.309998 128.075,219.69 C128.225001,220.070002 128.31,220.484998 128.33,220.935 C128.35,221.385002 128.36,221.839998 128.36,222.3 L128.36,231 L132.62,231 L132.62,222.36 C132.62,221.879998 132.655,221.405002 132.725,220.935 C132.795,220.464998 132.934999,220.045002 133.145,219.675 C133.355001,219.304998 133.644998,219.005001 134.015,218.775 C134.385002,218.544999 134.869997,218.43 135.47,218.43 C136.070003,218.43 136.544998,218.529999 136.895,218.73 C137.245002,218.930001 137.509999,219.199998 137.69,219.54 C137.870001,219.880002 137.98,220.279998 138.02,220.74 C138.06,221.200002 138.08,221.689997 138.08,222.21 L138.08,231 L142.34,231 L142.34,220.62 C142.34,219.619995 142.200001,218.765004 141.92,218.055 C141.639999,217.344996 141.250002,216.770002 140.75,216.33 C140.249997,215.889998 139.650003,215.570001 138.95,215.37 C138.249996,215.169999 137.490004,215.07 136.67,215.07 C135.589995,215.07 134.655004,215.329997 133.865,215.85 C133.074996,216.370003 132.450002,216.969997 131.99,217.65 C131.569998,216.689995 130.955004,216.020002 130.145,215.64 C129.334996,215.259998 128.440005,215.07 127.46,215.07 C126.439995,215.07 125.535004,215.289998 124.745,215.73 C123.954996,216.170002 123.280003,216.789996 122.72,217.59 L122.66,217.59 L122.66,215.49 L118.64,215.49 Z M156.29,221.58 L149.36,221.58 C149.38,221.279998 149.444999,220.940002 149.555,220.56 C149.665001,220.179998 149.854999,219.820002 150.125,219.48 C150.395001,219.139998 150.754998,218.855001 151.205,218.625 C151.655002,218.394999 152.219997,218.28 152.9,218.28 C153.940005,218.28 154.714997,218.559997 155.225,219.12 C155.735003,219.680003 156.089999,220.499995 156.29,221.58 L156.29,221.58 Z M149.36,224.28 L160.55,224.28 C160.63,223.079994 160.530001,221.930005 160.25,220.83 C159.969999,219.729995 159.515003,218.750004 158.885,217.89 C158.254997,217.029996 157.450005,216.345003 156.47,215.835 C155.489995,215.324997 154.340007,215.07 153.02,215.07 C151.839994,215.07 150.765005,215.279998 149.795,215.7 C148.824995,216.120002 147.990003,216.694996 147.29,217.425 C146.589996,218.155004 146.050002,219.019995 145.67,220.02 C145.289998,221.020005 145.1,222.099994 145.1,223.26 C145.1,224.460006 145.284998,225.559995 145.655,226.56 C146.025002,227.560005 146.549997,228.419996 147.23,229.14 C147.910003,229.860004 148.739995,230.414998 149.72,230.805 C150.700005,231.195002 151.799994,231.39 153.02,231.39 C154.780009,231.39 156.279994,230.990004 157.52,230.19 C158.760006,229.389996 159.679997,228.060009 160.28,226.2 L156.53,226.2 C156.389999,226.680002 156.010003,227.134998 155.39,227.565 C154.769997,227.995002 154.030004,228.21 153.17,228.21 C151.969994,228.21 151.050003,227.900003 150.41,227.28 C149.769997,226.659997 149.42,225.660007 149.36,224.28 L149.36,224.28 Z M168.62,215.49 L168.62,210.84 L164.36,210.84 L164.36,215.49 L161.78,215.49 L161.78,218.34 L164.36,218.34 L164.36,227.49 C164.36,228.270004 164.489999,228.899998 164.75,229.38 C165.010001,229.860002 165.364998,230.229999 165.815,230.49 C166.265002,230.750001 166.784997,230.925 167.375,231.015 C167.965003,231.105 168.589997,231.15 169.25,231.15 C169.670002,231.15 170.099998,231.14 170.54,231.12 C170.980002,231.1 171.379998,231.06 171.74,231 L171.74,227.7 C171.539999,227.74 171.330001,227.77 171.11,227.79 C170.889999,227.81 170.660001,227.82 170.42,227.82 C169.699996,227.82 169.220001,227.700001 168.98,227.46 C168.739999,227.219999 168.62,226.740004 168.62,226.02 L168.62,218.34 L171.74,218.34 L171.74,215.49 L168.62,215.49 Z M173.93,215.49 L173.93,231 L178.19,231 L178.19,224.01 C178.19,223.309997 178.259999,222.660003 178.4,222.06 C178.540001,221.459997 178.774998,220.935002 179.105,220.485 C179.435002,220.034998 179.869997,219.680001 180.41,219.42 C180.950003,219.159999 181.609996,219.03 182.39,219.03 C182.650001,219.03 182.919999,219.045 183.2,219.075 C183.480001,219.105 183.719999,219.14 183.92,219.18 L183.92,215.22 C183.579998,215.12 183.270001,215.07 182.99,215.07 C182.449997,215.07 181.930003,215.149999 181.43,215.31 C180.929998,215.470001 180.460002,215.694999 180.02,215.985 C179.579998,216.275001 179.190002,216.624998 178.85,217.035 C178.509998,217.445002 178.240001,217.889998 178.04,218.37 L177.98,218.37 L177.98,215.49 L173.93,215.49 Z M190.13,213.09 L190.13,209.58 L185.87,209.58 L185.87,213.09 L190.13,213.09 Z M185.87,215.49 L185.87,231 L190.13,231 L190.13,215.49 L185.87,215.49 Z M196.94,225.96 L192.89,225.96 C192.93,227.000005 193.164998,227.864997 193.595,228.555 C194.025002,229.245003 194.574997,229.799998 195.245,230.22 C195.915003,230.640002 196.679996,230.939999 197.54,231.12 C198.400004,231.300001 199.279996,231.39 200.18,231.39 C201.060004,231.39 201.924996,231.305001 202.775,231.135 C203.625004,230.964999 204.379997,230.670002 205.04,230.25 C205.700003,229.829998 206.234998,229.275003 206.645,228.585 C207.055002,227.894997 207.26,227.040005 207.26,226.02 C207.26,225.299996 207.120001,224.695002 206.84,224.205 C206.559999,223.714998 206.190002,223.305002 205.73,222.975 C205.269998,222.644998 204.745003,222.380001 204.155,222.18 C203.564997,221.979999 202.960003,221.810001 202.34,221.67 C201.739997,221.529999 201.150003,221.400001 200.57,221.28 C199.989997,221.159999 199.475002,221.025001 199.025,220.875 C198.574998,220.724999 198.210001,220.530001 197.93,220.29 C197.649999,220.049999 197.51,219.740002 197.51,219.36 C197.51,219.039998 197.589999,218.785001 197.75,218.595 C197.910001,218.404999 198.104999,218.26 198.335,218.16 C198.565001,218.06 198.819999,217.995 199.1,217.965 C199.380001,217.935 199.639999,217.92 199.88,217.92 C200.640004,217.92 201.299997,218.064999 201.86,218.355 C202.420003,218.645001 202.73,219.199996 202.79,220.02 L206.84,220.02 C206.76,219.059995 206.515002,218.265003 206.105,217.635 C205.694998,217.004997 205.180003,216.500002 204.56,216.12 C203.939997,215.739998 203.235004,215.470001 202.445,215.31 C201.654996,215.149999 200.840004,215.07 200,215.07 C199.159996,215.07 198.340004,215.144999 197.54,215.295 C196.739996,215.445001 196.020003,215.704998 195.38,216.075 C194.739997,216.445002 194.225002,216.949997 193.835,217.59 C193.444998,218.230003 193.25,219.049995 193.25,220.05 C193.25,220.730003 193.389999,221.304998 193.67,221.775 C193.950001,222.245002 194.319998,222.634998 194.78,222.945 C195.240002,223.255002 195.764997,223.504999 196.355,223.695 C196.945003,223.885001 197.549997,224.049999 198.17,224.19 C199.690008,224.510002 200.874996,224.829998 201.725,225.15 C202.575004,225.470002 203,225.949997 203,226.59 C203,226.970002 202.910001,227.284999 202.73,227.535 C202.549999,227.785001 202.325001,227.984999 202.055,228.135 C201.784999,228.285001 201.485002,228.395 201.155,228.465 C200.824998,228.535 200.510002,228.57 200.21,228.57 C199.789998,228.57 199.385002,228.520001 198.995,228.42 C198.604998,228.319999 198.260002,228.165001 197.96,227.955 C197.659999,227.744999 197.415001,227.475002 197.225,227.145 C197.034999,226.814998 196.94,226.420002 196.94,225.96 L196.94,225.96 Z M220.46,220.95 L224.63,220.95 C224.57,219.949995 224.330002,219.085004 223.91,218.355 C223.489998,217.624996 222.945003,217.015002 222.275,216.525 C221.604997,216.034998 220.845004,215.670001 219.995,215.43 C219.144996,215.189999 218.260005,215.07 217.34,215.07 C216.079994,215.07 214.960005,215.279998 213.98,215.7 C212.999995,216.120002 212.170003,216.704996 211.49,217.455 C210.809997,218.205004 210.295002,219.094995 209.945,220.125 C209.594998,221.155005 209.42,222.269994 209.42,223.47 C209.42,224.630006 209.609998,225.694995 209.99,226.665 C210.370002,227.635005 210.899997,228.469997 211.58,229.17 C212.260003,229.870003 213.084995,230.414998 214.055,230.805 C215.025005,231.195002 216.089994,231.39 217.25,231.39 C219.31001,231.39 220.999993,230.850005 222.32,229.77 C223.640007,228.689995 224.439999,227.12001 224.72,225.06 L220.61,225.06 C220.469999,226.020005 220.125003,226.784997 219.575,227.355 C219.024997,227.925003 218.240005,228.21 217.22,228.21 C216.559997,228.21 216.000002,228.060001 215.54,227.76 C215.079998,227.459999 214.715001,227.075002 214.445,226.605 C214.174999,226.134998 213.980001,225.610003 213.86,225.03 C213.739999,224.449997 213.68,223.880003 213.68,223.32 C213.68,222.739997 213.739999,222.155003 213.86,221.565 C213.980001,220.974997 214.184999,220.435002 214.475,219.945 C214.765001,219.454998 215.139998,219.055002 215.6,218.745 C216.060002,218.434998 216.629997,218.28 217.31,218.28 C219.130009,218.28 220.179999,219.169991 220.46,220.95 L220.46,220.95 Z M227.27,209.58 L227.27,231 L231.53,231 L231.53,222.87 C231.53,221.289992 231.789997,220.155003 232.31,219.465 C232.830003,218.774997 233.669994,218.43 234.83,218.43 C235.850005,218.43 236.559998,218.744997 236.96,219.375 C237.360002,220.005003 237.56,220.959994 237.56,222.24 L237.56,231 L241.82,231 L241.82,221.46 C241.82,220.499995 241.735001,219.625004 241.565,218.835 C241.394999,218.044996 241.100002,217.375003 240.68,216.825 C240.259998,216.274997 239.685004,215.845002 238.955,215.535 C238.224996,215.224998 237.290006,215.07 236.15,215.07 C235.349996,215.07 234.530004,215.274998 233.69,215.685 C232.849996,216.095002 232.160003,216.749996 231.62,217.65 L231.53,217.65 L231.53,209.58 L227.27,209.58 Z" id="GARANTIERT" fill="#FFFFFF"></path>
        </g>
    </g>
</svg>