<?xml version="1.0" encoding="utf-8"?>
<!-- Generator: Adobe Illustrator 16.0.0, SVG Export Plug-In . SVG Version: 6.00 Build 0)  -->
<!DOCTYPE svg PUBLIC "-//W3C//DTD SVG 1.0//EN" "http://www.w3.org/TR/2001/REC-SVG-20010904/DTD/svg10.dtd">
<svg version="1.0" xmlns="http://www.w3.org/2000/svg" xmlns:xlink="http://www.w3.org/1999/xlink" x="0px" y="0px"
	 width="80.492px" height="80.492px" viewBox="0 0 80.492 80.492" enable-background="new 0 0 80.492 80.492" xml:space="preserve">
<g id="background">
</g>
<g id="ò_x2021__xF8FF__x5F_3">
	<g>
		<circle fill="#DBF3FB" cx="40.246" cy="40.246" r="40.246"/>
	</g>
	<g>
		<path fill="#FFB300" d="M40.246,69.095c-15.907,0-28.849-12.941-28.849-28.849s12.941-28.849,28.849-28.849
			s28.849,12.941,28.849,28.849S56.153,69.095,40.246,69.095z M40.246,12.248c-15.438,0-27.999,12.56-27.999,27.998
			s12.561,27.998,27.999,27.998s27.999-12.56,27.999-27.998S55.685,12.248,40.246,12.248z"/>
	</g>
	<g>
		<path fill="#FFB300" d="M40.246,70.795c-16.846,0-30.55-13.705-30.55-30.549h4.252c0,14.5,11.797,26.297,26.298,26.297
			s26.298-11.797,26.298-26.297S54.747,13.949,40.246,13.949V9.697c16.846,0,30.55,13.705,30.55,30.549S57.092,70.795,40.246,70.795
			z"/>
	</g>
	<g>
		<g>
			<path fill="#FFB300" d="M46.897,28.291h-8.444l-0.469,3.351c0.469-0.067,0.871-0.067,1.407-0.067
				c2.077,0,4.188,0.469,5.729,1.575c1.643,1.106,2.647,2.916,2.647,5.462c0,4.055-3.485,7.64-9.349,7.64
				c-2.647,0-4.859-0.603-6.065-1.24l0.905-3.82c0.972,0.469,2.948,1.072,4.926,1.072c2.11,0,4.355-1.005,4.355-3.317
				c0-2.245-1.775-3.619-6.132-3.619c-1.206,0-2.044,0.067-2.949,0.201l1.441-11.426h11.996V28.291z"/>
		</g>
		<g>
			<path fill="#FFB300" d="M29.855,55.076c0-0.793-0.026-1.469-0.052-2.028h1.664l0.091,0.858h0.039
				c0.273-0.403,0.832-1.001,1.924-1.001c0.819,0,1.469,0.416,1.742,1.079h0.026c0.233-0.325,0.52-0.585,0.818-0.767
				c0.352-0.208,0.741-0.312,1.209-0.312c1.223,0,2.146,0.858,2.146,2.756v3.744h-1.924v-3.458c0-0.923-0.299-1.456-0.937-1.456
				c-0.455,0-0.78,0.312-0.91,0.689c-0.052,0.143-0.077,0.351-0.077,0.507v3.718H33.69v-3.562c0-0.806-0.286-1.352-0.91-1.352
				c-0.507,0-0.806,0.39-0.923,0.715c-0.064,0.156-0.078,0.338-0.078,0.494v3.705h-1.924V55.076z"/>
			<path fill="#FFB300" d="M43.08,51.28c0,0.546-0.416,0.988-1.066,0.988c-0.623,0-1.039-0.442-1.026-0.988
				c-0.013-0.572,0.403-1.001,1.04-1.001S43.067,50.708,43.08,51.28z M41.039,59.405v-6.357h1.977v6.357H41.039z"/>
			<path fill="#FFB300" d="M44.602,55.076c0-0.793-0.026-1.469-0.052-2.028h1.716l0.091,0.871h0.039
				c0.26-0.403,0.91-1.014,1.963-1.014c1.301,0,2.275,0.858,2.275,2.73v3.77h-1.976v-3.523c0-0.819-0.286-1.378-1.002-1.378
				c-0.546,0-0.87,0.377-1.001,0.741c-0.052,0.117-0.077,0.312-0.077,0.494v3.666h-1.977V55.076z"/>
		</g>
	</g>
	<circle fill="none" stroke="#FFB300" stroke-width="0.8504" stroke-miterlimit="10" cx="40.246" cy="40.015" r="28.424"/>
	<circle fill="none" stroke="#FFB300" stroke-width="0.8504" stroke-miterlimit="10" cx="40.246" cy="40.015" r="28.424"/>
</g>
<g id="camera">
</g>
</svg>
