<?xml version="1.0" encoding="utf-8"?>
<!-- Generator: Adobe Illustrator 16.0.0, SVG Export Plug-In . SVG Version: 6.00 Build 0)  -->
<!DOCTYPE svg PUBLIC "-//W3C//DTD SVG 1.0//EN" "http://www.w3.org/TR/2001/REC-SVG-20010904/DTD/svg10.dtd">
<svg version="1.0" id="Ebene_1" xmlns="http://www.w3.org/2000/svg" xmlns:xlink="http://www.w3.org/1999/xlink" x="0px" y="0px"
	 width="261.248px" height="71px" viewBox="0 0 261.248 71" enable-background="new 0 0 261.248 71" xml:space="preserve">
<g>
	<g>
		<defs>
			<polyline id="SVGID_1_" points="65.124,0 0.124,0 0.124,70 65.124,70 65.124,0 			"/>
		</defs>
		<clipPath id="SVGID_2_">
			<use xlink:href="#SVGID_1_"  overflow="visible"/>
		</clipPath>
		<g clip-path="url(#SVGID_2_)">
			<image overflow="visible" width="67" height="72" xlink:href="E66CE3187D2F36D9.jpg"  transform="matrix(1 0 0 1 -0.876 -1)">
			</image>
		</g>
	</g>
	<polyline fill="#FFFFFF" points="59,64 7,64 7,6 59,6 59,64 	"/>
	<polyline fill="#E6E6E6" points="56,9 10,9 10,61 56,61 56,9 	"/>
	<g>
		<defs>
			<polyline id="SVGID_3_" points="56,61 10,61 10,9 56,9 56,61 			"/>
		</defs>
		<clipPath id="SVGID_4_">
			<use xlink:href="#SVGID_3_"  overflow="visible"/>
		</clipPath>
		<circle clip-path="url(#SVGID_4_)" fill="#FFA000" cx="33.215" cy="17.928" r="7.072"/>
	</g>
	<g>
		<defs>
			<polyline id="SVGID_5_" points="56,61 10,61 10,9 56,9 56,61 			"/>
		</defs>
		<clipPath id="SVGID_6_">
			<use xlink:href="#SVGID_5_"  overflow="visible"/>
		</clipPath>
		<path clip-path="url(#SVGID_6_)" fill="#FFDBC5" d="M16.754,71.298v-7.469c0-7.837,6.353-14.19,14.189-14.19h5.228
			c7.836,0,14.189,6.354,14.189,14.19v7.469H16.754"/>
	</g>
	<g>
		<defs>
			<polyline id="SVGID_7_" points="56,61 10,61 10,9 56,9 56,61 			"/>
		</defs>
		<clipPath id="SVGID_8_">
			<use xlink:href="#SVGID_7_"  overflow="visible"/>
		</clipPath>
		<path clip-path="url(#SVGID_8_)" fill="#FFA000" d="M16.754,71.298v-7.469c0-6.419,4.262-11.843,10.111-13.595l6.443,6.375
			l6.779-6.424c5.933,1.7,10.274,7.164,10.274,13.644v7.469H16.754"/>
	</g>
	<g>
		<defs>
			<polyline id="SVGID_9_" points="56,61 10,61 10,9 56,9 56,61 			"/>
		</defs>
		<clipPath id="SVGID_10_">
			<use xlink:href="#SVGID_9_"  overflow="visible"/>
		</clipPath>
		<path clip-path="url(#SVGID_10_)" fill="#FFDBC5" d="M16.564,33.892c0,9.385,8.805,16.991,16.991,16.991
			c8.188,0,16.991-7.605,16.991-16.991c0-9.383-7.607-16.99-16.991-16.99C24.172,16.901,16.564,24.509,16.564,33.892"/>
	</g>
	<g>
		<defs>
			<polyline id="SVGID_11_" points="56,61 10,61 10,9 56,9 56,61 			"/>
		</defs>
		<clipPath id="SVGID_12_">
			<use xlink:href="#SVGID_11_"  overflow="visible"/>
		</clipPath>
		<path clip-path="url(#SVGID_12_)" fill="#FFB300" d="M46.302,38.65c0,0-2.333,2.277-0.491,5.574
			c1.842,3.295,4.471,2.305,4.471,2.305s-1.27,2.447-3.759,3.213c-1.833,0.562-4.87,0.255-6.627-2.09
			c-3.966-5.287,0.109-11.414,0.109-11.414L46.302,38.65"/>
	</g>
	<g>
		<defs>
			<polyline id="SVGID_13_" points="56,61 10,61 10,9 56,9 56,61 			"/>
		</defs>
		<clipPath id="SVGID_14_">
			<use xlink:href="#SVGID_13_"  overflow="visible"/>
		</clipPath>
		<path clip-path="url(#SVGID_14_)" fill="#FFDBC5" d="M16.564,33.892c0,9.385,8.805,16.991,16.991,16.991
			c8.188,0,16.991-7.605,16.991-16.991c0-9.383-7.607-16.99-16.991-16.99C24.172,16.901,16.564,24.509,16.564,33.892"/>
	</g>
	<g>
		<defs>
			<polyline id="SVGID_15_" points="56,61 10,61 10,9 56,9 56,61 			"/>
		</defs>
		<clipPath id="SVGID_16_">
			<use xlink:href="#SVGID_15_"  overflow="visible"/>
		</clipPath>
		<polyline clip-path="url(#SVGID_16_)" fill="#FFC5A4" points="33.835,50.88 33.83,50.88 33.835,50.88 		"/>
	</g>
	<g>
		<defs>
			<polyline id="SVGID_17_" points="56,61 10,61 10,9 56,9 56,61 			"/>
		</defs>
		<clipPath id="SVGID_18_">
			<use xlink:href="#SVGID_17_"  overflow="visible"/>
		</clipPath>
		<polyline clip-path="url(#SVGID_18_)" fill="#FFC5A4" points="33.276,50.88 33.28,50.88 33.276,50.88 		"/>
	</g>
	<g>
		<defs>
			<polyline id="SVGID_19_" points="56,61 10,61 10,9 56,9 56,61 			"/>
		</defs>
		<clipPath id="SVGID_20_">
			<use xlink:href="#SVGID_19_"  overflow="visible"/>
		</clipPath>
		<polyline clip-path="url(#SVGID_20_)" fill="#FFC5A4" points="33.806,50.881 33.8,50.881 33.806,50.881 		"/>
	</g>
	<g>
		<defs>
			<polyline id="SVGID_21_" points="56,61 10,61 10,9 56,9 56,61 			"/>
		</defs>
		<clipPath id="SVGID_22_">
			<use xlink:href="#SVGID_21_"  overflow="visible"/>
		</clipPath>
		<polyline clip-path="url(#SVGID_22_)" fill="#FFC5A4" points="33.305,50.881 33.31,50.881 33.305,50.881 		"/>
	</g>
	<g>
		<defs>
			<polyline id="SVGID_23_" points="56,61 10,61 10,9 56,9 56,61 			"/>
		</defs>
		<clipPath id="SVGID_24_">
			<use xlink:href="#SVGID_23_"  overflow="visible"/>
		</clipPath>
		<polyline clip-path="url(#SVGID_24_)" fill="#FFC5A4" points="33.369,50.882 33.374,50.882 33.369,50.882 		"/>
	</g>
	<g>
		<defs>
			<polyline id="SVGID_25_" points="56,61 10,61 10,9 56,9 56,61 			"/>
		</defs>
		<clipPath id="SVGID_26_">
			<use xlink:href="#SVGID_25_"  overflow="visible"/>
		</clipPath>
		<polyline clip-path="url(#SVGID_26_)" fill="#FFC5A4" points="33.742,50.882 33.737,50.882 33.742,50.882 		"/>
	</g>
	<g>
		<defs>
			<polyline id="SVGID_27_" points="56,61 10,61 10,9 56,9 56,61 			"/>
		</defs>
		<clipPath id="SVGID_28_">
			<use xlink:href="#SVGID_27_"  overflow="visible"/>
		</clipPath>
		<polyline clip-path="url(#SVGID_28_)" fill="#FFC5A4" points="33.397,50.882 33.404,50.882 33.397,50.882 		"/>
	</g>
	<g>
		<defs>
			<polyline id="SVGID_29_" points="56,61 10,61 10,9 56,9 56,61 			"/>
		</defs>
		<clipPath id="SVGID_30_">
			<use xlink:href="#SVGID_29_"  overflow="visible"/>
		</clipPath>
		<polyline clip-path="url(#SVGID_30_)" fill="#FFC5A4" points="33.713,50.882 33.707,50.882 33.713,50.882 		"/>
	</g>
	<g>
		<defs>
			<polyline id="SVGID_31_" points="56,61 10,61 10,9 56,9 56,61 			"/>
		</defs>
		<clipPath id="SVGID_32_">
			<use xlink:href="#SVGID_31_"  overflow="visible"/>
		</clipPath>
		<polyline clip-path="url(#SVGID_32_)" fill="#FFC5A4" points="33.426,50.882 33.434,50.882 33.426,50.882 		"/>
	</g>
	<g>
		<defs>
			<polyline id="SVGID_33_" points="56,61 10,61 10,9 56,9 56,61 			"/>
		</defs>
		<clipPath id="SVGID_34_">
			<use xlink:href="#SVGID_33_"  overflow="visible"/>
		</clipPath>
		<polyline clip-path="url(#SVGID_34_)" fill="#FFC5A4" points="33.684,50.882 33.677,50.882 33.684,50.882 		"/>
	</g>
	<g>
		<defs>
			<polyline id="SVGID_35_" points="56,61 10,61 10,9 56,9 56,61 			"/>
		</defs>
		<clipPath id="SVGID_36_">
			<use xlink:href="#SVGID_35_"  overflow="visible"/>
		</clipPath>
		<polyline clip-path="url(#SVGID_36_)" fill="#FFC5A4" points="33.462,50.883 33.467,50.883 33.462,50.883 		"/>
	</g>
	<g>
		<defs>
			<polyline id="SVGID_37_" points="56,61 10,61 10,9 56,9 56,61 			"/>
		</defs>
		<clipPath id="SVGID_38_">
			<use xlink:href="#SVGID_37_"  overflow="visible"/>
		</clipPath>
		<polyline clip-path="url(#SVGID_38_)" fill="#FFC5A4" points="33.648,50.883 33.644,50.883 33.648,50.883 		"/>
	</g>
	<g>
		<defs>
			<polyline id="SVGID_39_" points="56,61 10,61 10,9 56,9 56,61 			"/>
		</defs>
		<clipPath id="SVGID_40_">
			<use xlink:href="#SVGID_39_"  overflow="visible"/>
		</clipPath>
		<polyline clip-path="url(#SVGID_40_)" fill="#FFC5A4" points="33.489,50.883 33.499,50.883 33.489,50.883 		"/>
	</g>
	<g>
		<defs>
			<polyline id="SVGID_41_" points="56,61 10,61 10,9 56,9 56,61 			"/>
		</defs>
		<clipPath id="SVGID_42_">
			<use xlink:href="#SVGID_41_"  overflow="visible"/>
		</clipPath>
		<polyline clip-path="url(#SVGID_42_)" fill="#FFC5A4" points="33.621,50.883 33.611,50.883 33.621,50.883 		"/>
	</g>
	<g>
		<defs>
			<polyline id="SVGID_43_" points="56,61 10,61 10,9 56,9 56,61 			"/>
		</defs>
		<clipPath id="SVGID_44_">
			<use xlink:href="#SVGID_43_"  overflow="visible"/>
		</clipPath>
		<polyline clip-path="url(#SVGID_44_)" fill="#FFC5A4" points="33.519,50.883 33.527,50.883 33.519,50.883 		"/>
	</g>
	<g>
		<defs>
			<polyline id="SVGID_45_" points="56,61 10,61 10,9 56,9 56,61 			"/>
		</defs>
		<clipPath id="SVGID_46_">
			<use xlink:href="#SVGID_45_"  overflow="visible"/>
		</clipPath>
		<polyline clip-path="url(#SVGID_46_)" fill="#FFC5A4" points="33.592,50.883 33.583,50.883 33.592,50.883 		"/>
	</g>
	<g>
		<defs>
			<polyline id="SVGID_47_" points="56,61 10,61 10,9 56,9 56,61 			"/>
		</defs>
		<clipPath id="SVGID_48_">
			<use xlink:href="#SVGID_47_"  overflow="visible"/>
		</clipPath>
		<path clip-path="url(#SVGID_48_)" fill="#FFC5A4" d="M19.508,42.997c3.212,4.653,8.59,7.772,13.768,7.883h0.004l0.025,0.001h0.005
			l0.059,0.001h0.005h0.023h0.007h0.022h0.007l0.028,0.001h0.005h0.022h0.01h0.02h0.009h0.028h0.028h0.009h0.02h0.01h0.023h0.004
			l0.028-0.001h0.007h0.023h0.006h0.024h0.004l0.059-0.001h0.005l0.024-0.001h0.005l0.091-0.002
			c5.15-0.144,10.483-3.253,13.677-7.88c-3.981,3.611-9.102,5.831-14.047,5.831C28.611,48.829,23.49,46.609,19.508,42.997"/>
	</g>
	<g>
		<defs>
			<polyline id="SVGID_49_" points="56,61 10,61 10,9 56,9 56,61 			"/>
		</defs>
		<clipPath id="SVGID_50_">
			<use xlink:href="#SVGID_49_"  overflow="visible"/>
		</clipPath>
		<ellipse clip-path="url(#SVGID_50_)" fill="#FFB0B0" cx="42.192" cy="39.997" rx="2.35" ry="1.198"/>
	</g>
	<g>
		<defs>
			<polyline id="SVGID_51_" points="56,61 10,61 10,9 56,9 56,61 			"/>
		</defs>
		<clipPath id="SVGID_52_">
			<use xlink:href="#SVGID_51_"  overflow="visible"/>
		</clipPath>
		<ellipse clip-path="url(#SVGID_52_)" fill="#FFB0B0" cx="24.92" cy="39.997" rx="2.35" ry="1.198"/>
	</g>
	<g>
		<defs>
			<polyline id="SVGID_53_" points="56,61 10,61 10,9 56,9 56,61 			"/>
		</defs>
		<clipPath id="SVGID_54_">
			<use xlink:href="#SVGID_53_"  overflow="visible"/>
		</clipPath>
		<path clip-path="url(#SVGID_54_)" fill="#FF6760" d="M33.555,46.439L33.555,46.439c-1.5,0-2.883-0.729-3.697-1.947
			c-0.114-0.172-0.068-0.402,0.103-0.52c0.172-0.113,0.403-0.066,0.518,0.104c0.676,1.012,1.825,1.614,3.076,1.614
			s2.401-0.604,3.078-1.614c0.113-0.171,0.346-0.218,0.518-0.104c0.172,0.116,0.217,0.348,0.102,0.52
			C36.438,45.711,35.055,46.439,33.555,46.439z"/>
	</g>
	<g>
		<defs>
			<polyline id="SVGID_55_" points="56,61 10,61 10,9 56,9 56,61 			"/>
		</defs>
		<clipPath id="SVGID_56_">
			<use xlink:href="#SVGID_55_"  overflow="visible"/>
		</clipPath>
		<path clip-path="url(#SVGID_56_)" fill="#FFB300" d="M43.306,23.599c0,0,5.05,5.77,5.119,12.056
			c0.069,6.338-2.047,10.463-2.047,10.463s3.361-2.775,4.194-9.859c0,0,2.341-14.274-8.895-19.356
			c-11.234-5.083-19.207,0.162-23.216,6.684c-4.009,6.52-2.838,11.417-1.837,15.399c1.001,3.983,3.491,6.848,3.491,6.848
			c-0.622-2.49-3.112-5.727-1.115-14.39C20.605,30.907,38.088,26.809,43.306,23.599z"/>
	</g>
	<g>
		<defs>
			<polyline id="SVGID_57_" points="56,61 10,61 10,9 56,9 56,61 			"/>
		</defs>
		<clipPath id="SVGID_58_">
			<use xlink:href="#SVGID_57_"  overflow="visible"/>
		</clipPath>
		<path clip-path="url(#SVGID_58_)" fill="#FFFFFF" d="M22.269,30.836c0.438,0.438,1.146,0.438,1.583,0
			c0.438-0.437,0.438-1.145,0-1.583l-2.904-2.904c-0.438-0.438-1.147-0.438-1.585,0c-0.437,0.438-0.437,1.146,0,1.583L22.269,30.836
			z"/>
	</g>
	<g>
		<defs>
			<polyline id="SVGID_59_" points="56,61 10,61 10,9 56,9 56,61 			"/>
		</defs>
		<clipPath id="SVGID_60_">
			<use xlink:href="#SVGID_59_"  overflow="visible"/>
		</clipPath>
		<polygon clip-path="url(#SVGID_60_)" fill="#FFFFFF" points="33.319,56.66 31.078,56.286 29.514,58.402 24.854,51.061 
			26.598,49.564 		"/>
	</g>
	<g>
		<defs>
			<polyline id="SVGID_61_" points="56,61 10,61 10,9 56,9 56,61 			"/>
		</defs>
		<clipPath id="SVGID_62_">
			<use xlink:href="#SVGID_61_"  overflow="visible"/>
		</clipPath>
		<polygon clip-path="url(#SVGID_62_)" fill="#FFFFFF" points="33.319,56.66 35.56,56.286 37.124,58.402 41.784,51.061 
			40.041,49.564 		"/>
	</g>
	<g>
		<defs>
			<polyline id="SVGID_63_" points="56,61 10,61 10,9 56,9 56,61 			"/>
		</defs>
		<clipPath id="SVGID_64_">
			<use xlink:href="#SVGID_63_"  overflow="visible"/>
		</clipPath>
		<ellipse clip-path="url(#SVGID_64_)" cx="27.332" cy="35.401" rx="1.486" ry="2.506"/>
	</g>
	<g>
		<defs>
			<polyline id="SVGID_65_" points="56,61 10,61 10,9 56,9 56,61 			"/>
		</defs>
		<clipPath id="SVGID_66_">
			<use xlink:href="#SVGID_65_"  overflow="visible"/>
		</clipPath>
		<path clip-path="url(#SVGID_66_)" d="M27.334,37.912c-0.825,0-1.495-1.125-1.495-2.511c0-1.385,0.67-2.512,1.495-2.512
			c0.822,0,1.491,1.127,1.491,2.512C28.825,36.787,28.157,37.912,27.334,37.912z M27.334,32.903c-0.816,0-1.481,1.12-1.481,2.498
			c0,1.378,0.665,2.498,1.481,2.498c0.815,0,1.477-1.119,1.477-2.498C28.811,34.023,28.149,32.903,27.334,32.903z"/>
	</g>
	<g>
		<defs>
			<polyline id="SVGID_67_" points="56,61 10,61 10,9 56,9 56,61 			"/>
		</defs>
		<clipPath id="SVGID_68_">
			<use xlink:href="#SVGID_67_"  overflow="visible"/>
		</clipPath>
		<ellipse clip-path="url(#SVGID_68_)" fill="#FFFFFF" cx="27.834" cy="33.979" rx="0.428" ry="0.41"/>
	</g>
	<g>
		<defs>
			<polyline id="SVGID_69_" points="56,61 10,61 10,9 56,9 56,61 			"/>
		</defs>
		<clipPath id="SVGID_70_">
			<use xlink:href="#SVGID_69_"  overflow="visible"/>
		</clipPath>
		<path clip-path="url(#SVGID_70_)" d="M27.834,34.395c-0.24,0-0.435-0.187-0.435-0.416s0.195-0.418,0.435-0.418
			c0.24,0,0.435,0.188,0.435,0.418S28.074,34.395,27.834,34.395z M27.834,33.574c-0.233,0-0.422,0.182-0.422,0.404
			s0.189,0.402,0.422,0.402c0.232,0,0.421-0.181,0.421-0.402C28.255,33.756,28.066,33.574,27.834,33.574z"/>
	</g>
	<g>
		<defs>
			<polyline id="SVGID_71_" points="56,61 10,61 10,9 56,9 56,61 			"/>
		</defs>
		<clipPath id="SVGID_72_">
			<use xlink:href="#SVGID_71_"  overflow="visible"/>
		</clipPath>
		<path clip-path="url(#SVGID_72_)" d="M27.282,32.326c-0.104,0-0.187-0.083-0.187-0.187v-0.746c0-0.104,0.083-0.187,0.187-0.187
			c0.103,0,0.187,0.083,0.187,0.187v0.746C27.469,32.243,27.385,32.326,27.282,32.326z"/>
	</g>
	<g>
		<defs>
			<polyline id="SVGID_73_" points="56,61 10,61 10,9 56,9 56,61 			"/>
		</defs>
		<clipPath id="SVGID_74_">
			<use xlink:href="#SVGID_73_"  overflow="visible"/>
		</clipPath>
		<path clip-path="url(#SVGID_74_)" d="M26.663,32.678l-0.175-0.123l-0.255-0.702c-0.035-0.097,0.015-0.204,0.112-0.239
			c0.096-0.035,0.204,0.015,0.239,0.111l0.255,0.702c0.035,0.098-0.015,0.204-0.112,0.239L26.663,32.678z"/>
	</g>
	<g>
		<defs>
			<polyline id="SVGID_75_" points="56,61 10,61 10,9 56,9 56,61 			"/>
		</defs>
		<clipPath id="SVGID_76_">
			<use xlink:href="#SVGID_75_"  overflow="visible"/>
		</clipPath>
		<path clip-path="url(#SVGID_76_)" d="M27.901,32.678l-0.063-0.012c-0.098-0.035-0.147-0.142-0.111-0.239l0.255-0.702
			c0.035-0.097,0.143-0.146,0.24-0.111c0.096,0.035,0.146,0.143,0.111,0.239l-0.255,0.702L27.901,32.678z"/>
	</g>
	<g>
		<defs>
			<polyline id="SVGID_77_" points="56,61 10,61 10,9 56,9 56,61 			"/>
		</defs>
		<clipPath id="SVGID_78_">
			<use xlink:href="#SVGID_77_"  overflow="visible"/>
		</clipPath>
		<path clip-path="url(#SVGID_78_)" d="M41.141,35.401c0-1.384-0.667-2.506-1.484-2.506c-0.822,0-1.488,1.122-1.488,2.506
			c0,1.383,0.666,2.505,1.488,2.505C40.474,37.906,41.141,36.784,41.141,35.401z"/>
	</g>
	<g>
		<defs>
			<polyline id="SVGID_79_" points="56,61 10,61 10,9 56,9 56,61 			"/>
		</defs>
		<clipPath id="SVGID_80_">
			<use xlink:href="#SVGID_79_"  overflow="visible"/>
		</clipPath>
		<path clip-path="url(#SVGID_80_)" d="M39.657,37.912c-0.824,0-1.495-1.125-1.495-2.511c0-1.385,0.67-2.512,1.495-2.512
			c0.822,0,1.491,1.127,1.491,2.512C41.147,36.787,40.479,37.912,39.657,37.912z M39.657,32.903c-0.816,0-1.481,1.12-1.481,2.498
			c0,1.378,0.665,2.498,1.481,2.498c0.815,0,1.478-1.119,1.478-2.498C41.135,34.023,40.472,32.903,39.657,32.903z"/>
	</g>
	<g>
		<defs>
			<polyline id="SVGID_81_" points="56,61 10,61 10,9 56,9 56,61 			"/>
		</defs>
		<clipPath id="SVGID_82_">
			<use xlink:href="#SVGID_81_"  overflow="visible"/>
		</clipPath>
		<ellipse clip-path="url(#SVGID_82_)" fill="#FFFFFF" cx="40.156" cy="33.979" rx="0.428" ry="0.41"/>
	</g>
	<g>
		<defs>
			<polyline id="SVGID_83_" points="56,61 10,61 10,9 56,9 56,61 			"/>
		</defs>
		<clipPath id="SVGID_84_">
			<use xlink:href="#SVGID_83_"  overflow="visible"/>
		</clipPath>
		<path clip-path="url(#SVGID_84_)" d="M40.156,34.395c-0.239,0-0.435-0.187-0.435-0.416s0.195-0.418,0.435-0.418
			c0.241,0,0.436,0.188,0.436,0.418S40.396,34.395,40.156,34.395z M40.156,33.574c-0.232,0-0.421,0.182-0.421,0.404
			s0.189,0.402,0.421,0.402c0.233,0,0.422-0.181,0.422-0.402C40.578,33.756,40.389,33.574,40.156,33.574z"/>
	</g>
	<g>
		<defs>
			<polyline id="SVGID_85_" points="56,61 10,61 10,9 56,9 56,61 			"/>
		</defs>
		<clipPath id="SVGID_86_">
			<use xlink:href="#SVGID_85_"  overflow="visible"/>
		</clipPath>
		<path clip-path="url(#SVGID_86_)" d="M39.604,32.326c-0.104,0-0.187-0.083-0.187-0.187v-0.746c0-0.104,0.083-0.187,0.187-0.187
			c0.103,0,0.187,0.083,0.187,0.187v0.746C39.791,32.243,39.708,32.326,39.604,32.326z"/>
	</g>
	<g>
		<defs>
			<polyline id="SVGID_87_" points="56,61 10,61 10,9 56,9 56,61 			"/>
		</defs>
		<clipPath id="SVGID_88_">
			<use xlink:href="#SVGID_87_"  overflow="visible"/>
		</clipPath>
		<path clip-path="url(#SVGID_88_)" d="M38.985,32.678l-0.176-0.123l-0.255-0.702c-0.035-0.097,0.015-0.204,0.111-0.239
			c0.096-0.035,0.204,0.015,0.24,0.111l0.254,0.702c0.036,0.098-0.014,0.204-0.111,0.239L38.985,32.678z"/>
	</g>
	<g>
		<defs>
			<polyline id="SVGID_89_" points="56,61 10,61 10,9 56,9 56,61 			"/>
		</defs>
		<clipPath id="SVGID_90_">
			<use xlink:href="#SVGID_89_"  overflow="visible"/>
		</clipPath>
		<path clip-path="url(#SVGID_90_)" d="M40.223,32.678l-0.063-0.012c-0.097-0.035-0.147-0.142-0.111-0.239l0.255-0.702
			c0.035-0.097,0.143-0.146,0.239-0.111c0.097,0.035,0.147,0.143,0.112,0.239L40.4,32.555L40.223,32.678z"/>
	</g>
	<path d="M73.254,27.185c0.873-0.149,2.099-0.261,3.825-0.261c1.746,0,2.99,0.335,3.826,1.003c0.798,0.632,1.337,1.672,1.337,2.897
		c0,1.225-0.409,2.266-1.151,2.971c-0.965,0.91-2.396,1.318-4.067,1.318c-0.371,0-0.706-0.019-0.965-0.056v4.476h-2.804
		L73.254,27.185L73.254,27.185z M76.059,32.866c0.241,0.056,0.539,0.074,0.947,0.074c1.504,0,2.433-0.761,2.433-2.042
		c0-1.151-0.798-1.839-2.209-1.839c-0.576,0-0.966,0.056-1.17,0.111L76.059,32.866L76.059,32.866z"/>
	<path d="M88.782,39.533l-0.167-0.91h-0.056c-0.594,0.725-1.522,1.113-2.6,1.113c-1.838,0-2.934-1.336-2.934-2.784
		c0-2.358,2.117-3.491,5.33-3.473v-0.13c0-0.483-0.26-1.17-1.653-1.17c-0.928,0-1.913,0.315-2.507,0.687l-0.52-1.819
		c0.631-0.353,1.875-0.799,3.528-0.799c3.027,0,3.993,1.783,3.993,3.918v3.157c0,0.872,0.037,1.709,0.13,2.21H88.782z
		 M88.448,35.243c-1.485-0.019-2.637,0.335-2.637,1.431c0,0.725,0.482,1.076,1.114,1.076c0.706,0,1.282-0.464,1.467-1.039
		c0.037-0.148,0.056-0.316,0.056-0.482V35.243z"/>
	<path d="M93.409,37.062c0.52,0.315,1.597,0.688,2.433,0.688c0.854,0,1.207-0.297,1.207-0.761c0-0.466-0.278-0.688-1.337-1.04
		c-1.875-0.632-2.6-1.652-2.582-2.729c0-1.69,1.449-2.972,3.696-2.972c1.058,0,2.005,0.241,2.562,0.521l-0.501,1.949
		c-0.409-0.223-1.188-0.52-1.968-0.52c-0.687,0-1.077,0.278-1.077,0.742c0,0.428,0.353,0.65,1.467,1.04
		c1.727,0.595,2.452,1.468,2.47,2.805c0,1.689-1.337,2.934-3.937,2.934c-1.188,0-2.247-0.26-2.934-0.631L93.409,37.062z"/>
	<path d="M101.471,37.062c0.52,0.315,1.597,0.688,2.433,0.688c0.854,0,1.207-0.297,1.207-0.761c0-0.466-0.278-0.688-1.337-1.04
		c-1.875-0.632-2.6-1.652-2.582-2.729c0-1.69,1.449-2.972,3.696-2.972c1.058,0,2.005,0.241,2.562,0.521l-0.501,1.949
		c-0.409-0.223-1.188-0.52-1.968-0.52c-0.687,0-1.077,0.278-1.077,0.742c0,0.428,0.353,0.65,1.467,1.04
		c1.727,0.595,2.452,1.468,2.47,2.805c0,1.689-1.337,2.934-3.937,2.934c-1.188,0-2.247-0.26-2.934-0.631L101.471,37.062z"/>
	<polygon points="109.644,27.017 117.295,27.017 117.295,29.338 112.485,29.338 112.485,32.198 116.979,32.198 116.979,34.501 
		112.485,34.501 112.485,39.533 109.644,39.533 	"/>
	<path d="M127.827,34.891c0,3.324-2.358,4.847-4.791,4.847c-2.656,0-4.698-1.745-4.698-4.68c0-2.934,1.931-4.81,4.847-4.81
		C125.97,30.248,127.827,32.161,127.827,34.891z M121.253,34.983c0,1.56,0.65,2.729,1.857,2.729c1.096,0,1.801-1.095,1.801-2.729
		c0-1.355-0.52-2.729-1.801-2.729C121.755,32.254,121.253,33.646,121.253,34.983z"/>
	<path d="M132.731,27.853v2.6h2.024v2.08h-2.024v3.287c0,1.096,0.261,1.597,1.115,1.597c0.353,0,0.631-0.037,0.834-0.074
		l0.021,2.136c-0.371,0.148-1.04,0.241-1.839,0.241c-0.909,0-1.672-0.314-2.117-0.778c-0.52-0.539-0.78-1.412-0.78-2.693v-3.714
		h-1.207v-2.08h1.207v-1.968L132.731,27.853z"/>
	<path d="M145.271,34.891c0,3.324-2.358,4.847-4.791,4.847c-2.656,0-4.698-1.745-4.698-4.68c0-2.934,1.931-4.81,4.847-4.81
		C143.412,30.248,145.271,32.161,145.271,34.891z M138.694,34.983c0,1.56,0.65,2.729,1.857,2.729c1.096,0,1.801-1.095,1.801-2.729
		c0-1.355-0.52-2.729-1.801-2.729C139.196,32.254,138.694,33.646,138.694,34.983z"/>
	<path d="M147.11,27.185c0.91-0.149,2.267-0.261,3.771-0.261c1.856,0,3.157,0.279,4.05,0.984c0.741,0.595,1.149,1.467,1.149,2.618
		c0,1.598-1.134,2.693-2.209,3.083v0.056c0.873,0.353,1.354,1.188,1.671,2.34c0.391,1.411,0.779,3.046,1.021,3.528h-2.897
		c-0.203-0.354-0.501-1.374-0.872-2.915c-0.335-1.561-0.873-1.987-2.023-2.006h-0.854v4.921h-2.806V27.185z M149.916,32.569h1.112
		c1.412,0,2.248-0.705,2.248-1.801c0-1.151-0.78-1.728-2.08-1.746c-0.688,0-1.077,0.056-1.28,0.093V32.569z"/>
	<path d="M167.003,34.891c0,3.324-2.357,4.847-4.791,4.847c-2.654,0-4.697-1.745-4.697-4.68c0-2.934,1.932-4.81,4.846-4.81
		C165.146,30.248,167.003,32.161,167.003,34.891z M160.431,34.983c0,1.56,0.648,2.729,1.855,2.729c1.096,0,1.802-1.095,1.802-2.729
		c0-1.355-0.521-2.729-1.802-2.729C160.931,32.254,160.431,33.646,160.431,34.983z"/>
	<path d="M168.731,37.062c0.521,0.315,1.599,0.688,2.435,0.688c0.854,0,1.207-0.297,1.207-0.761c0-0.466-0.279-0.688-1.338-1.04
		c-1.875-0.632-2.601-1.652-2.581-2.729c0-1.69,1.447-2.972,3.695-2.972c1.059,0,2.006,0.241,2.562,0.521l-0.502,1.949
		c-0.408-0.223-1.188-0.52-1.969-0.52c-0.688,0-1.076,0.278-1.076,0.742c0,0.428,0.354,0.65,1.467,1.04
		c1.727,0.595,2.451,1.468,2.471,2.805c0,1.689-1.338,2.934-3.938,2.934c-1.189,0-2.248-0.26-2.936-0.631L168.731,37.062z"/>
	<path d="M178.985,35.894c0.094,1.17,1.244,1.727,2.562,1.727c0.965,0,1.746-0.13,2.508-0.371l0.371,1.913
		c-0.93,0.371-2.062,0.557-3.287,0.557c-3.082,0-4.848-1.782-4.848-4.624c0-2.303,1.43-4.847,4.588-4.847
		c2.934,0,4.048,2.284,4.048,4.531c0,0.482-0.056,0.91-0.093,1.114H178.985z M182.312,33.962c0-0.687-0.297-1.838-1.599-1.838
		c-1.188,0-1.671,1.077-1.745,1.838H182.312z"/>
	<path d="M186.621,33.35c0-1.133-0.037-2.099-0.074-2.897h2.451l0.13,1.244h0.057c0.371-0.575,1.299-1.448,2.805-1.448
		c1.855,0,3.248,1.226,3.248,3.899v5.386h-2.821v-5.032c0-1.17-0.409-1.969-1.431-1.969c-0.779,0-1.244,0.539-1.43,1.059
		c-0.074,0.167-0.111,0.445-0.111,0.706v5.236h-2.822L186.621,33.35L186.621,33.35z"/>
	<path d="M197.506,26.349h2.823v5.181h0.037c0.297-0.39,0.669-0.688,1.113-0.929c0.408-0.223,0.947-0.353,1.467-0.353
		c1.802,0,3.177,1.244,3.177,3.975v5.311h-2.822v-4.995c0-1.188-0.409-2.006-1.468-2.006c-0.743,0-1.207,0.483-1.411,0.984
		c-0.073,0.186-0.093,0.427-0.093,0.631v5.386h-2.823V26.349z"/>
	<path d="M210.563,35.894c0.095,1.17,1.244,1.727,2.562,1.727c0.967,0,1.746-0.13,2.508-0.371l0.371,1.913
		c-0.929,0.371-2.062,0.557-3.287,0.557c-3.082,0-4.847-1.782-4.847-4.624c0-2.303,1.43-4.847,4.587-4.847
		c2.934,0,4.049,2.284,4.049,4.531c0,0.482-0.057,0.91-0.094,1.114H210.563z M213.89,33.962c0-0.687-0.298-1.838-1.599-1.838
		c-1.188,0-1.67,1.077-1.744,1.838H213.89z"/>
	<path d="M221.115,27.927c0,0.78-0.595,1.411-1.523,1.411c-0.891,0-1.483-0.631-1.467-1.411c-0.019-0.816,0.576-1.43,1.485-1.43
		C220.521,26.497,221.097,27.11,221.115,27.927z M218.199,39.533v-9.081h2.823v9.081H218.199z"/>
	<path d="M223.289,33.35c0-1.133-0.037-2.099-0.074-2.897h2.377l0.132,1.226h0.055c0.391-0.575,1.188-1.43,2.748-1.43
		c1.17,0,2.1,0.595,2.488,1.541h0.037c0.336-0.464,0.743-0.835,1.17-1.095c0.502-0.298,1.06-0.446,1.729-0.446
		c1.744,0,3.062,1.226,3.062,3.938v5.348h-2.748v-4.939c0-1.318-0.427-2.08-1.337-2.08c-0.649,0-1.114,0.445-1.301,0.984
		c-0.074,0.204-0.11,0.501-0.11,0.725v5.311h-2.748v-5.088c0-1.151-0.408-1.932-1.301-1.932c-0.724,0-1.15,0.558-1.318,1.021
		c-0.092,0.223-0.11,0.482-0.11,0.706v5.292h-2.749L223.289,33.35L223.289,33.35z"/>
	<path d="M239.062,38.029c0-1.004,0.687-1.729,1.67-1.729s1.652,0.706,1.652,1.729c0,0.984-0.669,1.707-1.671,1.707
		C239.747,39.736,239.062,39.014,239.062,38.029z"/>
	<path d="M248.854,35.634c-0.731,0.831-1.386,1.537-1.963,2.118c-0.576,0.581-1.047,1.016-1.408,1.303
		c-0.36,0.285-0.607,0.43-0.74,0.43c-0.217,0-0.459-0.176-0.729-0.523c-0.271-0.348-0.5-0.793-0.691-1.333
		c-0.191-0.539-0.287-1.088-0.287-1.644c0-0.806,0.391-1.618,1.172-2.436c0.779-0.818,1.669-1.497,2.666-2.037
		c0.996-0.539,1.743-0.81,2.242-0.81c0.406,0,0.805,0.258,1.195,0.772c0.639-1.337,1.248-2.524,1.823-3.562
		c0.578-1.038,1.062-1.811,1.452-2.317c0.391-0.506,0.668-0.76,0.835-0.76c0.183,0,0.351,0.09,0.504,0.268
		c0.154,0.179,0.23,0.38,0.23,0.604c0,0.432-0.316,1.173-0.947,2.224c-0.631,1.051-1.254,2.074-1.868,3.07
		c-0.613,0.997-1.142,1.979-1.582,2.946c-0.439,0.967-0.66,1.862-0.66,2.685c0,0.747,0.241,1.121,0.724,1.121
		c0.29,0,0.655-0.164,1.097-0.492c0.439-0.328,1.066-0.878,1.881-1.65v0.91c-1.794,2.316-3.177,3.476-4.148,3.476
		c-0.391,0-0.67-0.149-0.84-0.448c-0.172-0.299-0.256-0.742-0.256-1.333C248.556,37.415,248.653,36.557,248.854,35.634z
		 M249.774,32.595c-0.739,0.249-1.606,0.649-2.604,1.202c-0.997,0.553-1.6,0.933-1.807,1.14c-0.184,0.166-0.346,0.478-0.486,0.935
		s-0.211,0.802-0.211,1.034c0,0.141,0.041,0.257,0.124,0.349c0.083,0.091,0.187,0.138,0.312,0.138c0.116,0,0.25-0.051,0.398-0.149
		c0.15-0.101,0.389-0.295,0.717-0.586c0.328-0.29,0.541-0.478,0.641-0.562c0.143-0.124,0.455-0.392,0.941-0.803
		c0.485-0.411,0.84-0.733,1.064-0.966c0.224-0.233,0.416-0.492,0.572-0.778C249.597,33.261,249.709,32.943,249.774,32.595z"/>
	<path d="M255.791,36.059v0.312c0,0.489,0.121,0.872,0.36,1.146c0.242,0.273,0.558,0.41,0.947,0.41c0.406,0,0.828-0.095,1.264-0.285
		c0.438-0.19,0.871-0.445,1.304-0.761s0.959-0.739,1.582-1.271v0.76c-0.938,1.13-1.817,1.995-2.642,2.598
		c-0.821,0.602-1.656,0.902-2.504,0.902c-0.739,0-1.324-0.286-1.756-0.859c-0.434-0.572-0.647-1.357-0.647-2.354
		c0-0.872,0.202-1.663,0.608-2.373c0.407-0.71,1.072-1.459,1.994-2.248c0.631-0.54,1.258-0.947,1.881-1.221s1.18-0.411,1.67-0.411
		c0.39,0,0.699,0.089,0.929,0.268c0.228,0.179,0.342,0.446,0.342,0.804c0,0.523-0.194,1.044-0.586,1.563s-0.986,1.034-1.787,1.545
		S256.963,35.584,255.791,36.059z M255.916,35.248c0.748-0.291,1.388-0.652,1.918-1.084c0.531-0.432,0.924-0.845,1.179-1.239
		c0.252-0.395,0.379-0.683,0.379-0.866c0-0.19-0.086-0.286-0.262-0.286c-0.148,0-0.392,0.096-0.729,0.286
		c-0.338,0.191-0.678,0.44-1.021,0.748s-0.654,0.668-0.929,1.084C256.179,34.306,255.999,34.758,255.916,35.248z"/>
	<path d="M72.597,48.645c0.346,0.213,0.853,0.392,1.385,0.392c0.791,0,1.252-0.417,1.252-1.021c0-0.56-0.32-0.88-1.128-1.189
		c-0.977-0.348-1.581-0.854-1.581-1.696c0-0.933,0.773-1.625,1.936-1.625c0.613,0,1.057,0.142,1.323,0.293l-0.213,0.632
		c-0.195-0.107-0.595-0.285-1.137-0.285c-0.817,0-1.128,0.488-1.128,0.896c0,0.561,0.364,0.835,1.19,1.154
		c1.013,0.391,1.527,0.879,1.527,1.759c0,0.923-0.684,1.723-2.096,1.723c-0.577,0-1.208-0.169-1.527-0.382L72.597,48.645z"/>
	<path d="M77.858,43.602v3.543c0,1.34,0.595,1.908,1.394,1.908c0.888,0,1.457-0.586,1.457-1.908v-3.543h0.781v3.489
		c0,1.839-0.968,2.593-2.265,2.593c-1.225,0-2.149-0.701-2.149-2.558v-3.524H77.858z"/>
	<path d="M82.835,43.672c0.373-0.062,0.861-0.115,1.483-0.115c0.764,0,1.323,0.178,1.678,0.498c0.329,0.283,0.524,0.719,0.524,1.252
		c0,0.541-0.16,0.967-0.462,1.277c-0.408,0.436-1.074,0.657-1.829,0.657c-0.231,0-0.444-0.009-0.622-0.054v2.397h-0.773
		L82.835,43.672L82.835,43.672z M83.608,46.559c0.168,0.043,0.382,0.062,0.639,0.062c0.933,0,1.501-0.453,1.501-1.279
		c0-0.79-0.56-1.172-1.412-1.172c-0.337,0-0.595,0.026-0.728,0.062V46.559z"/>
	<polygon points="90.663,46.779 88.336,46.779 88.336,48.938 90.929,48.938 90.929,49.586 87.563,49.586 87.563,43.602 
		90.795,43.602 90.795,44.249 88.336,44.249 88.336,46.141 90.663,46.141 	"/>
	<path d="M91.935,43.682c0.391-0.08,0.95-0.125,1.483-0.125c0.826,0,1.358,0.15,1.731,0.488c0.302,0.266,0.471,0.675,0.471,1.137
		c0,0.791-0.497,1.313-1.128,1.527v0.025c0.462,0.16,0.737,0.586,0.879,1.209c0.195,0.834,0.337,1.412,0.462,1.643h-0.799
		c-0.098-0.169-0.231-0.684-0.4-1.43c-0.177-0.826-0.497-1.137-1.199-1.163h-0.728v2.593h-0.773L91.935,43.682L91.935,43.682z
		 M92.708,46.406h0.79c0.826,0,1.35-0.452,1.35-1.137c0-0.772-0.56-1.109-1.376-1.119c-0.373,0-0.64,0.035-0.764,0.07V46.406z"/>
	<path d="M96.61,48.645c0.346,0.213,0.853,0.392,1.385,0.392c0.791,0,1.252-0.417,1.252-1.021c0-0.56-0.32-0.88-1.128-1.189
		c-0.977-0.348-1.581-0.854-1.581-1.696c0-0.933,0.773-1.625,1.936-1.625c0.613,0,1.057,0.142,1.323,0.293l-0.213,0.632
		c-0.195-0.107-0.595-0.285-1.137-0.285c-0.817,0-1.128,0.488-1.128,0.896c0,0.561,0.364,0.835,1.19,1.154
		c1.013,0.391,1.527,0.879,1.527,1.759c0,0.923-0.684,1.723-2.096,1.723c-0.577,0-1.208-0.169-1.527-0.382L96.61,48.645z"/>
	<path d="M105.281,49.391c-0.284,0.143-0.853,0.284-1.581,0.284c-1.687,0-2.957-1.065-2.957-3.028c0-1.873,1.27-3.144,3.126-3.144
		c0.746,0,1.216,0.159,1.421,0.267l-0.187,0.631c-0.293-0.143-0.71-0.248-1.208-0.248c-1.403,0-2.335,0.896-2.335,2.469
		c0,1.465,0.844,2.406,2.3,2.406c0.471,0,0.95-0.098,1.261-0.25L105.281,49.391z"/>
	<polygon points="107.025,43.602 107.025,46.104 109.92,46.104 109.92,43.602 110.702,43.602 110.702,49.586 109.92,49.586 
		109.92,46.779 107.025,46.779 107.025,49.586 106.252,49.586 106.252,43.602 	"/>
	<path d="M112.046,49.586v-5.984h0.844l1.918,3.027c0.444,0.701,0.79,1.332,1.074,1.944l0.018-0.009
		c-0.071-0.799-0.089-1.527-0.089-2.461V43.6h0.728v5.985h-0.781l-1.901-3.037c-0.417-0.666-0.817-1.35-1.119-1.998l-0.027,0.009
		c0.044,0.756,0.062,1.475,0.062,2.469v2.559H112.046z"/>
	<polygon points="120.994,46.779 118.667,46.779 118.667,48.938 121.26,48.938 121.26,49.586 117.894,49.586 117.894,43.602 
		121.126,43.602 121.126,44.249 118.667,44.249 118.667,46.141 120.994,46.141 	"/>
	<polygon points="122.267,43.602 123.04,43.602 123.04,48.938 125.597,48.938 125.597,49.586 122.267,49.586 	"/>
	<polygon points="126.461,43.602 127.234,43.602 127.234,48.938 129.792,48.938 129.792,49.586 126.461,49.586 	"/>
	<path d="M132.54,43.672c0.373-0.062,0.861-0.115,1.482-0.115c0.765,0,1.322,0.178,1.679,0.498c0.329,0.283,0.524,0.719,0.524,1.252
		c0,0.541-0.16,0.967-0.463,1.277c-0.408,0.436-1.074,0.657-1.828,0.657c-0.231,0-0.444-0.009-0.623-0.054v2.397h-0.771V43.672z
		 M133.312,46.559c0.17,0.043,0.383,0.062,0.641,0.062c0.933,0,1.501-0.453,1.501-1.279c0-0.79-0.56-1.172-1.412-1.172
		c-0.338,0-0.597,0.026-0.729,0.062V46.559z"/>
	<path d="M137.269,43.682c0.391-0.08,0.949-0.125,1.482-0.125c0.825,0,1.357,0.15,1.73,0.488c0.304,0.266,0.472,0.675,0.472,1.137
		c0,0.791-0.497,1.313-1.128,1.527v0.025c0.462,0.16,0.736,0.586,0.88,1.209c0.194,0.834,0.337,1.412,0.461,1.643h-0.799
		c-0.099-0.169-0.229-0.684-0.4-1.43c-0.178-0.826-0.495-1.137-1.198-1.163h-0.728v2.593h-0.772V43.682z M138.041,46.406h0.789
		c0.826,0,1.351-0.452,1.351-1.137c0-0.772-0.56-1.109-1.375-1.119c-0.373,0-0.642,0.035-0.765,0.07V46.406z"/>
	<polygon points="145.147,46.779 142.821,46.779 142.821,48.938 145.414,48.938 145.414,49.586 142.049,49.586 142.049,43.602 
		145.281,43.602 145.281,44.249 142.821,44.249 142.821,46.141 145.147,46.141 	"/>
	<path d="M151.466,46.957c-0.044-0.835-0.098-1.838-0.089-2.584h-0.026c-0.203,0.701-0.453,1.447-0.754,2.273l-1.058,2.903h-0.586
		l-0.97-2.851c-0.283-0.844-0.522-1.617-0.691-2.327h-0.02c-0.018,0.746-0.062,1.749-0.114,2.646l-0.16,2.566h-0.735l0.418-5.984
		h0.983l1.021,2.895c0.25,0.736,0.453,1.395,0.604,2.017h0.026c0.15-0.604,0.363-1.262,0.631-2.017l1.064-2.895h0.985l0.373,5.984
		h-0.754L151.466,46.957z"/>
	<rect x="153.565" y="43.602" width="0.773" height="5.984"/>
	<path d="M156.463,43.602v3.543c0,1.34,0.597,1.908,1.396,1.908c0.889,0,1.457-0.586,1.457-1.908v-3.543h0.781v3.489
		c0,1.839-0.97,2.593-2.267,2.593c-1.226,0-2.147-0.701-2.147-2.558v-3.524H156.463z"/>
	<path d="M166.483,46.957c-0.043-0.835-0.098-1.838-0.088-2.584h-0.026c-0.204,0.701-0.453,1.447-0.755,2.273l-1.057,2.903h-0.586
		l-0.969-2.851c-0.285-0.844-0.523-1.617-0.693-2.327h-0.018c-0.018,0.746-0.062,1.749-0.115,2.646l-0.16,2.566h-0.736l0.418-5.984
		h0.984l1.021,2.895c0.248,0.736,0.453,1.395,0.604,2.017h0.027c0.15-0.604,0.363-1.262,0.631-2.017l1.064-2.895h0.986l0.373,5.984
		h-0.756L166.483,46.957z"/>
	<path d="M175.408,50.465c-0.81-0.213-1.601-0.453-2.292-0.691c-0.124-0.045-0.249-0.09-0.364-0.09
		c-1.421-0.054-2.637-1.102-2.637-3.027c0-1.918,1.172-3.152,2.788-3.152c1.625,0,2.682,1.262,2.682,3.028
		c0,1.536-0.71,2.521-1.705,2.868v0.035c0.596,0.15,1.243,0.293,1.749,0.381L175.408,50.465z M174.769,46.566
		c0-1.199-0.621-2.435-1.892-2.435c-1.308,0-1.944,1.208-1.937,2.505c-0.01,1.271,0.691,2.415,1.899,2.415
		C174.075,49.053,174.769,47.936,174.769,46.566z"/>
	<path d="M177.365,43.602v3.543c0,1.34,0.596,1.908,1.395,1.908c0.89,0,1.457-0.586,1.457-1.908v-3.543h0.781v3.489
		c0,1.839-0.97,2.593-2.267,2.593c-1.225,0-2.147-0.701-2.147-2.558v-3.524H177.365z"/>
	<path d="M183.009,47.703l-0.621,1.883h-0.8l2.033-5.984h0.933l2.043,5.984h-0.826l-0.64-1.883H183.009z M184.972,47.1l-0.587-1.723
		c-0.133-0.393-0.222-0.746-0.311-1.093h-0.019c-0.089,0.354-0.187,0.72-0.303,1.083l-0.586,1.732H184.972z"/>
	<polygon points="187.479,43.602 188.252,43.602 188.252,48.938 190.812,48.938 190.812,49.586 187.479,49.586 	"/>
	<rect x="191.674" y="43.602" width="0.772" height="5.984"/>
	<polygon points="194.937,44.258 193.115,44.258 193.115,43.602 197.546,43.602 197.546,44.258 195.717,44.258 195.717,49.586 
		194.937,49.586 	"/>
	<path d="M198.517,47.703l-0.621,1.883h-0.799l2.032-5.984h0.933l2.043,5.984h-0.826l-0.639-1.883H198.517z M198.365,42.748
		c0-0.249,0.187-0.443,0.444-0.443c0.238,0,0.416,0.194,0.416,0.443c0,0.248-0.168,0.453-0.426,0.453S198.365,42.996,198.365,42.748
		z M200.479,47.1l-0.586-1.723c-0.134-0.393-0.223-0.746-0.312-1.093h-0.019c-0.088,0.354-0.187,0.72-0.303,1.083l-0.586,1.732
		H200.479z M200.019,42.748c0-0.249,0.186-0.443,0.436-0.443c0.248,0,0.426,0.194,0.426,0.443c0,0.248-0.169,0.453-0.436,0.453
		C200.187,43.201,200.019,42.996,200.019,42.748z"/>
	<polygon points="203.438,44.258 201.619,44.258 201.619,43.602 206.051,43.602 206.051,44.258 204.222,44.258 204.222,49.586 
		203.438,49.586 	"/>
</g>
</svg>
