<?xml version="1.0" encoding="utf-8"?>
<!-- Generator: Adobe Illustrator 16.0.0, SVG Export Plug-In . SVG Version: 6.00 Build 0)  -->
<!DOCTYPE svg PUBLIC "-//W3C//DTD SVG 1.1//EN" "http://www.w3.org/Graphics/SVG/1.1/DTD/svg11.dtd">
<svg version="1.1" id="Ebene_1" xmlns="http://www.w3.org/2000/svg" xmlns:xlink="http://www.w3.org/1999/xlink" x="0px" y="0px"
	 width="260.247px" height="70px" viewBox="0 0 260.247 70" enable-background="new 0 0 260.247 70" xml:space="preserve">
<g>
	<g>
		<image overflow="visible" opacity="0.75" width="64" height="70" xlink:href="7436A4173206F259.png" >
		</image>
		<g>
			<rect x="6" y="6" fill="#FFFFFF" width="52" height="58"/>
		</g>
	</g>
	<rect x="9" y="9" fill="#E6E6E6" width="46" height="52"/>
	<g>
		<defs>
			<rect id="SVGID_1_" x="9" y="9" width="46" height="52"/>
		</defs>
		<clipPath id="SVGID_2_">
			<use xlink:href="#SVGID_1_"  overflow="visible"/>
		</clipPath>
		<g clip-path="url(#SVGID_2_)">
			<g>
				<g>
					<circle fill="#FFA000" cx="32.215" cy="17.928" r="7.072"/>
				</g>
				<g>
					<path fill="#FFDBC5" d="M15.754,71.298v-7.469c0-7.837,6.353-14.19,14.189-14.19h5.228c7.836,0,14.189,6.354,14.189,14.19
						v7.469H15.754z"/>
				</g>
				<g>
					<path fill="#FFA000" d="M15.754,71.298v-7.469c0-6.419,4.262-11.842,10.111-13.595l6.443,6.375l6.779-6.423
						c5.933,1.7,10.274,7.164,10.274,13.643v7.469H15.754z"/>
				</g>
				<g>
					<path fill="#FFDBC5" d="M15.564,33.892c0,9.385,8.805,16.991,16.991,16.991c8.188,0,16.991-7.606,16.991-16.991
						c0-9.383-7.607-16.99-16.991-16.99C23.172,16.901,15.564,24.509,15.564,33.892z"/>
				</g>
				<g>
					<path fill="#FFB300" d="M45.302,38.65c0,0-2.333,2.278-0.491,5.574c1.842,3.296,4.471,2.305,4.471,2.305
						s-1.27,2.447-3.759,3.213c-1.833,0.563-4.87,0.255-6.627-2.089c-3.966-5.288,0.109-11.415,0.109-11.415"/>
				</g>
				<g>
					<path fill="#FFDBC5" d="M15.564,33.892c0,9.385,8.805,16.991,16.991,16.991c8.188,0,16.991-7.606,16.991-16.991
						c0-9.383-7.607-16.99-16.991-16.99C23.172,16.901,15.564,24.509,15.564,33.892z"/>
				</g>
				<g>
					<path fill="#302824" d="M32.555,48.829c4.945,0,10.066-2.219,14.047-5.831c-3.27,4.738-8.784,7.885-14.047,7.885
						c-5.263,0-10.777-3.147-14.047-7.886C22.49,46.61,27.611,48.829,32.555,48.829z"/>
				</g>
				<g>
					<g>
						<ellipse fill="#FFB0B0" cx="41.192" cy="39.997" rx="2.35" ry="1.198"/>
					</g>
					<g>
						<ellipse fill="#FFB0B0" cx="23.92" cy="39.997" rx="2.35" ry="1.198"/>
					</g>
				</g>
				<g>
					<path fill="#FF6760" d="M32.555,46.44L32.555,46.44c-1.5,0-2.883-0.729-3.697-1.948c-0.114-0.171-0.068-0.402,0.103-0.519
						c0.172-0.114,0.403-0.067,0.518,0.104c0.676,1.012,1.825,1.615,3.076,1.615h0c1.251,0,2.401-0.604,3.078-1.615
						c0.113-0.171,0.346-0.218,0.518-0.104c0.172,0.116,0.217,0.348,0.102,0.519C35.438,45.711,34.055,46.44,32.555,46.44z"/>
				</g>
				<g>
					<path fill="#FFB300" d="M42.306,23.599c0,0,5.05,5.77,5.119,12.056c0.069,6.338-2.047,10.463-2.047,10.463
						s3.361-2.775,4.194-9.859c0,0,2.341-14.274-8.895-19.356c-11.234-5.083-19.207,0.162-23.216,6.684
						c-4.009,6.52-2.838,11.417-1.837,15.4c1.001,3.983,3.491,6.847,3.491,6.847c-0.622-2.49-3.112-5.726-1.115-14.39
						C19.605,30.907,37.088,26.809,42.306,23.599z"/>
				</g>
				<g>
					<path fill="#FFFFFF" d="M21.269,30.836c0.438,0.438,1.146,0.438,1.583,0l0,0c0.438-0.437,0.438-1.145,0-1.583l-2.904-2.904
						c-0.438-0.438-1.147-0.438-1.585,0l0,0c-0.437,0.438-0.437,1.146,0,1.583L21.269,30.836z"/>
				</g>
			</g>
			<g>
				<g>
					<polygon fill="#FFFFFF" points="32.319,56.66 30.078,56.286 28.514,58.402 23.854,51.06 25.598,49.565 					"/>
				</g>
				<g>
					<polygon fill="#FFFFFF" points="32.319,56.66 34.56,56.286 36.124,58.402 40.784,51.06 39.041,49.565 					"/>
				</g>
			</g>
			<g>
				<g id="path17_2_">
					<path d="M27.818,35.401c0-1.384-0.667-2.506-1.484-2.506c-0.822,0-1.488,1.122-1.488,2.506c0,1.383,0.666,2.505,1.488,2.505
						C27.152,37.906,27.818,36.784,27.818,35.401L27.818,35.401z"/>
					<path d="M26.334,37.912c-0.825,0-1.495-1.125-1.495-2.511c0-1.385,0.67-2.512,1.495-2.512c0.822,0,1.491,1.127,1.491,2.512
						C27.825,36.787,27.157,37.912,26.334,37.912z M26.334,32.903c-0.816,0-1.481,1.12-1.481,2.498s0.665,2.497,1.481,2.497
						c0.815,0,1.477-1.119,1.477-2.497S27.149,32.903,26.334,32.903z"/>
				</g>
				<g id="path19_2_">
					<path fill="#FFFFFF" d="M27.262,33.979c0-0.228-0.191-0.41-0.428-0.41c-0.238,0-0.429,0.183-0.429,0.41
						c0,0.227,0.191,0.41,0.429,0.41C27.071,34.389,27.262,34.205,27.262,33.979L27.262,33.979z"/>
					<path d="M26.834,34.395c-0.24,0-0.435-0.187-0.435-0.416s0.195-0.418,0.435-0.418c0.24,0,0.435,0.188,0.435,0.418
						S27.074,34.395,26.834,34.395z M26.834,33.574c-0.233,0-0.422,0.182-0.422,0.404c0,0.222,0.189,0.402,0.422,0.402
						c0.232,0,0.421-0.181,0.421-0.402C27.255,33.756,27.066,33.574,26.834,33.574z"/>
				</g>
				<g>
					<path d="M26.282,32.326c-0.104,0-0.187-0.083-0.187-0.187v-0.746c0-0.104,0.083-0.187,0.187-0.187
						c0.103,0,0.187,0.083,0.187,0.187v0.746C26.469,32.243,26.385,32.326,26.282,32.326z"/>
				</g>
				<g>
					<path d="M25.663,32.678c-0.076,0-0.148-0.047-0.175-0.123l-0.255-0.702c-0.035-0.097,0.015-0.204,0.112-0.239
						c0.096-0.035,0.204,0.015,0.239,0.111l0.255,0.702c0.035,0.098-0.015,0.204-0.112,0.239
						C25.706,32.674,25.684,32.678,25.663,32.678z"/>
				</g>
				<g>
					<path d="M26.901,32.678c-0.021,0-0.042-0.004-0.063-0.012c-0.098-0.035-0.147-0.142-0.111-0.239l0.255-0.702
						c0.035-0.097,0.143-0.146,0.24-0.111c0.096,0.035,0.146,0.143,0.111,0.239l-0.255,0.702
						C27.049,32.631,26.978,32.678,26.901,32.678z"/>
				</g>
			</g>
			<g>
				<g id="path17_1_">
					<path d="M40.141,35.401c0-1.384-0.667-2.506-1.484-2.506c-0.822,0-1.488,1.122-1.488,2.506c0,1.383,0.666,2.505,1.488,2.505
						C39.474,37.906,40.141,36.784,40.141,35.401L40.141,35.401z"/>
					<path d="M38.657,37.912c-0.824,0-1.495-1.125-1.495-2.511c0-1.385,0.67-2.512,1.495-2.512c0.822,0,1.491,1.127,1.491,2.512
						C40.147,36.787,39.479,37.912,38.657,37.912z M38.657,32.903c-0.816,0-1.481,1.12-1.481,2.498s0.665,2.497,1.481,2.497
						c0.815,0,1.478-1.119,1.478-2.497S39.472,32.903,38.657,32.903z"/>
				</g>
				<g id="path19_1_">
					<path fill="#FFFFFF" d="M39.585,33.979c0-0.228-0.191-0.41-0.429-0.41c-0.237,0-0.428,0.183-0.428,0.41
						c0,0.227,0.19,0.41,0.428,0.41C39.394,34.389,39.585,34.205,39.585,33.979L39.585,33.979z"/>
					<path d="M39.156,34.395c-0.239,0-0.435-0.187-0.435-0.416s0.195-0.418,0.435-0.418c0.241,0,0.436,0.188,0.436,0.418
						S39.396,34.395,39.156,34.395z M39.156,33.574c-0.232,0-0.421,0.182-0.421,0.404c0,0.222,0.189,0.402,0.421,0.402
						c0.233,0,0.422-0.181,0.422-0.402C39.578,33.756,39.389,33.574,39.156,33.574z"/>
				</g>
				<g>
					<path d="M38.604,32.326c-0.104,0-0.187-0.083-0.187-0.187v-0.746c0-0.104,0.083-0.187,0.187-0.187
						c0.103,0,0.187,0.083,0.187,0.187v0.746C38.791,32.243,38.708,32.326,38.604,32.326z"/>
				</g>
				<g>
					<path d="M37.985,32.678c-0.076,0-0.148-0.047-0.176-0.123l-0.255-0.702c-0.035-0.097,0.015-0.204,0.111-0.239
						s0.204,0.015,0.24,0.111l0.254,0.702c0.036,0.098-0.014,0.204-0.111,0.239C38.028,32.674,38.006,32.678,37.985,32.678z"/>
				</g>
				<g>
					<path d="M39.223,32.678c-0.021,0-0.042-0.004-0.063-0.012c-0.097-0.035-0.147-0.142-0.111-0.239l0.255-0.702
						c0.035-0.097,0.143-0.146,0.239-0.111c0.097,0.035,0.147,0.143,0.112,0.239l-0.255,0.702
						C39.371,32.631,39.3,32.678,39.223,32.678z"/>
				</g>
			</g>
		</g>
	</g>
</g>
<g>
	<g>
		<g>
			<path d="M72.254,27.185c0.873-0.149,2.099-0.261,3.825-0.261c1.746,0,2.99,0.335,3.826,1.003
				c0.798,0.632,1.337,1.672,1.337,2.897s-0.409,2.266-1.151,2.971c-0.965,0.91-2.396,1.318-4.067,1.318
				c-0.371,0-0.706-0.019-0.965-0.056v4.476h-2.804V27.185z M75.059,32.866c0.241,0.056,0.539,0.074,0.947,0.074
				c1.504,0,2.433-0.761,2.433-2.042c0-1.151-0.798-1.839-2.209-1.839c-0.576,0-0.966,0.056-1.17,0.111V32.866z"/>
			<path d="M87.782,39.533l-0.167-0.91h-0.056c-0.594,0.725-1.522,1.114-2.6,1.114c-1.838,0-2.934-1.337-2.934-2.785
				c0-2.358,2.117-3.491,5.33-3.473v-0.13c0-0.483-0.26-1.17-1.653-1.17c-0.928,0-1.913,0.315-2.507,0.687l-0.52-1.819
				c0.631-0.353,1.875-0.799,3.528-0.799c3.027,0,3.993,1.783,3.993,3.918v3.157c0,0.873,0.037,1.709,0.13,2.21H87.782z
				 M87.448,35.243c-1.485-0.019-2.637,0.335-2.637,1.431c0,0.724,0.482,1.076,1.114,1.076c0.706,0,1.282-0.464,1.467-1.039
				c0.037-0.148,0.056-0.316,0.056-0.483V35.243z"/>
			<path d="M92.409,37.063c0.52,0.315,1.597,0.687,2.433,0.687c0.854,0,1.207-0.297,1.207-0.761c0-0.465-0.278-0.688-1.337-1.04
				c-1.875-0.632-2.6-1.652-2.582-2.729c0-1.69,1.449-2.972,3.696-2.972c1.058,0,2.005,0.241,2.562,0.521l-0.501,1.949
				c-0.409-0.223-1.188-0.52-1.968-0.52c-0.687,0-1.077,0.278-1.077,0.742c0,0.428,0.353,0.65,1.467,1.04
				c1.727,0.595,2.452,1.468,2.47,2.805c0,1.689-1.337,2.934-3.937,2.934c-1.188,0-2.247-0.26-2.934-0.631L92.409,37.063z"/>
			<path d="M100.471,37.063c0.52,0.315,1.597,0.687,2.433,0.687c0.854,0,1.207-0.297,1.207-0.761c0-0.465-0.278-0.688-1.337-1.04
				c-1.875-0.632-2.6-1.652-2.582-2.729c0-1.69,1.449-2.972,3.696-2.972c1.058,0,2.005,0.241,2.562,0.521l-0.501,1.949
				c-0.409-0.223-1.188-0.52-1.968-0.52c-0.687,0-1.077,0.278-1.077,0.742c0,0.428,0.353,0.65,1.467,1.04
				c1.727,0.595,2.452,1.468,2.47,2.805c0,1.689-1.337,2.934-3.937,2.934c-1.188,0-2.247-0.26-2.934-0.631L100.471,37.063z"/>
			<path d="M108.644,27.017h7.651v2.321h-4.81v2.86h4.494v2.303h-4.494v5.032h-2.841V27.017z"/>
			<path d="M126.827,34.891c0,3.324-2.358,4.847-4.791,4.847c-2.656,0-4.698-1.745-4.698-4.68c0-2.934,1.931-4.81,4.847-4.81
				C124.97,30.248,126.827,32.161,126.827,34.891z M120.253,34.983c0,1.56,0.65,2.729,1.857,2.729c1.096,0,1.801-1.095,1.801-2.729
				c0-1.355-0.52-2.729-1.801-2.729C120.755,32.254,120.253,33.646,120.253,34.983z"/>
			<path d="M131.732,27.853v2.6h2.024v2.08h-2.024v3.287c0,1.096,0.26,1.597,1.114,1.597c0.353,0,0.632-0.037,0.835-0.074
				l0.02,2.136c-0.371,0.148-1.04,0.241-1.839,0.241c-0.91,0-1.671-0.315-2.117-0.779c-0.52-0.539-0.78-1.412-0.78-2.693v-3.714
				h-1.207v-2.08h1.207v-1.968L131.732,27.853z"/>
			<path d="M144.27,34.891c0,3.324-2.358,4.847-4.791,4.847c-2.656,0-4.698-1.745-4.698-4.68c0-2.934,1.931-4.81,4.847-4.81
				C142.412,30.248,144.27,32.161,144.27,34.891z M137.695,34.983c0,1.56,0.65,2.729,1.857,2.729c1.096,0,1.801-1.095,1.801-2.729
				c0-1.355-0.52-2.729-1.801-2.729C138.197,32.254,137.695,33.646,137.695,34.983z"/>
			<path d="M146.111,27.185c0.91-0.149,2.266-0.261,3.77-0.261c1.857,0,3.157,0.279,4.048,0.984
				c0.743,0.595,1.151,1.467,1.151,2.618c0,1.598-1.133,2.693-2.21,3.083v0.056c0.873,0.353,1.356,1.188,1.672,2.34
				c0.39,1.411,0.78,3.046,1.021,3.528h-2.897c-0.204-0.353-0.501-1.374-0.872-2.915c-0.335-1.561-0.873-1.987-2.024-2.006h-0.854
				v4.921h-2.804V27.185z M148.915,32.569h1.114c1.411,0,2.247-0.705,2.247-1.801c0-1.151-0.78-1.728-2.08-1.746
				c-0.687,0-1.077,0.056-1.281,0.093V32.569z"/>
			<path d="M166.003,34.891c0,3.324-2.358,4.847-4.791,4.847c-2.656,0-4.698-1.745-4.698-4.68c0-2.934,1.931-4.81,4.847-4.81
				C164.146,30.248,166.003,32.161,166.003,34.891z M159.429,34.983c0,1.56,0.65,2.729,1.857,2.729c1.096,0,1.801-1.095,1.801-2.729
				c0-1.355-0.52-2.729-1.801-2.729C159.931,32.254,159.429,33.646,159.429,34.983z"/>
			<path d="M167.732,37.063c0.521,0.315,1.598,0.687,2.433,0.687c0.854,0,1.207-0.297,1.207-0.761c0-0.465-0.278-0.688-1.337-1.04
				c-1.875-0.632-2.6-1.652-2.581-2.729c0-1.69,1.448-2.972,3.695-2.972c1.059,0,2.006,0.241,2.562,0.521l-0.501,1.949
				c-0.409-0.223-1.188-0.52-1.969-0.52c-0.687,0-1.077,0.278-1.077,0.742c0,0.428,0.354,0.65,1.467,1.04
				c1.728,0.595,2.452,1.468,2.471,2.805c0,1.689-1.338,2.934-3.938,2.934c-1.188,0-2.247-0.26-2.934-0.631L167.732,37.063z"/>
			<path d="M177.986,35.894c0.093,1.17,1.244,1.727,2.562,1.727c0.965,0,1.745-0.13,2.507-0.371l0.371,1.913
				c-0.929,0.371-2.062,0.557-3.287,0.557c-3.082,0-4.847-1.782-4.847-4.624c0-2.303,1.43-4.847,4.587-4.847
				c2.935,0,4.049,2.284,4.049,4.531c0,0.482-0.057,0.91-0.094,1.114H177.986z M181.31,33.962c0-0.687-0.297-1.838-1.597-1.838
				c-1.188,0-1.671,1.077-1.745,1.838H181.31z"/>
			<path d="M185.621,33.35c0-1.133-0.037-2.099-0.074-2.897h2.451l0.13,1.244h0.056c0.371-0.575,1.3-1.448,2.804-1.448
				c1.857,0,3.25,1.226,3.25,3.899v5.386h-2.822v-5.032c0-1.17-0.409-1.969-1.431-1.969c-0.779,0-1.244,0.539-1.43,1.059
				c-0.074,0.167-0.111,0.445-0.111,0.706v5.236h-2.822V33.35z"/>
			<path d="M196.506,26.349h2.823v5.181h0.037c0.297-0.39,0.668-0.687,1.114-0.929c0.408-0.223,0.946-0.353,1.467-0.353
				c1.801,0,3.175,1.244,3.175,3.975v5.311H202.3v-4.995c0-1.188-0.408-2.006-1.467-2.006c-0.743,0-1.207,0.483-1.411,0.984
				c-0.074,0.186-0.093,0.427-0.093,0.631v5.386h-2.823V26.349z"/>
			<path d="M209.564,35.894c0.093,1.17,1.244,1.727,2.562,1.727c0.966,0,1.746-0.13,2.507-0.371l0.372,1.913
				c-0.929,0.371-2.062,0.557-3.287,0.557c-3.083,0-4.847-1.782-4.847-4.624c0-2.303,1.43-4.847,4.587-4.847
				c2.934,0,4.048,2.284,4.048,4.531c0,0.482-0.056,0.91-0.093,1.114H209.564z M212.889,33.962c0-0.687-0.297-1.838-1.598-1.838
				c-1.188,0-1.671,1.077-1.745,1.838H212.889z"/>
			<path d="M220.115,27.927c0,0.78-0.595,1.411-1.523,1.411c-0.891,0-1.485-0.631-1.467-1.411c-0.019-0.816,0.576-1.43,1.485-1.43
				C219.521,26.497,220.097,27.11,220.115,27.927z M217.199,39.533v-9.081h2.823v9.081H217.199z"/>
			<path d="M222.289,33.35c0-1.133-0.037-2.099-0.074-2.897h2.377l0.13,1.226h0.056c0.391-0.575,1.188-1.43,2.749-1.43
				c1.17,0,2.098,0.595,2.488,1.541h0.037c0.334-0.464,0.742-0.835,1.17-1.095c0.501-0.298,1.059-0.446,1.727-0.446
				c1.746,0,3.064,1.226,3.064,3.938v5.348h-2.749v-4.939c0-1.318-0.427-2.08-1.337-2.08c-0.649,0-1.114,0.445-1.3,0.984
				c-0.074,0.204-0.111,0.501-0.111,0.725v5.311h-2.748v-5.088c0-1.151-0.409-1.932-1.3-1.932c-0.725,0-1.151,0.558-1.318,1.021
				c-0.093,0.223-0.111,0.482-0.111,0.706v5.292h-2.749V33.35z"/>
			<path d="M238.06,38.029c0-1.003,0.688-1.728,1.671-1.728c0.984,0,1.653,0.706,1.653,1.728c0,0.984-0.669,1.708-1.672,1.708
				C238.747,39.737,238.06,39.014,238.06,38.029z"/>
			<path d="M247.853,35.634c-0.73,0.831-1.385,1.537-1.962,2.118s-1.046,1.016-1.407,1.302s-0.608,0.43-0.741,0.43
				c-0.216,0-0.459-0.175-0.729-0.523c-0.271-0.349-0.501-0.793-0.691-1.333c-0.191-0.539-0.287-1.088-0.287-1.644
				c0-0.806,0.391-1.618,1.171-2.436c0.781-0.818,1.67-1.497,2.666-2.037c0.997-0.539,1.744-0.81,2.242-0.81
				c0.407,0,0.806,0.258,1.196,0.772c0.639-1.337,1.247-2.524,1.824-3.562s1.062-1.811,1.452-2.317
				c0.39-0.506,0.668-0.76,0.834-0.76c0.183,0,0.351,0.09,0.505,0.268c0.153,0.179,0.23,0.38,0.23,0.604
				c0,0.432-0.316,1.173-0.947,2.224s-1.254,2.074-1.868,3.07c-0.614,0.997-1.142,1.979-1.582,2.946s-0.66,1.862-0.66,2.685
				c0,0.747,0.24,1.121,0.723,1.121c0.29,0,0.655-0.164,1.096-0.492s1.067-0.878,1.881-1.65v0.909
				c-1.793,2.317-3.176,3.476-4.147,3.476c-0.391,0-0.671-0.149-0.841-0.448c-0.171-0.299-0.256-0.743-0.256-1.333
				C247.554,37.415,247.653,36.556,247.853,35.634z M248.774,32.595c-0.739,0.249-1.606,0.649-2.604,1.202
				c-0.996,0.553-1.599,0.933-1.806,1.14c-0.184,0.166-0.345,0.478-0.486,0.935s-0.212,0.802-0.212,1.034
				c0,0.141,0.042,0.257,0.125,0.349c0.083,0.091,0.187,0.137,0.312,0.137c0.116,0,0.249-0.05,0.398-0.149s0.388-0.295,0.716-0.586
				c0.328-0.29,0.542-0.478,0.642-0.561c0.142-0.124,0.455-0.392,0.94-0.803c0.486-0.411,0.841-0.733,1.065-0.966
				s0.415-0.492,0.573-0.778C248.596,33.261,248.708,32.943,248.774,32.595z"/>
			<path d="M254.791,36.058v0.312c0,0.49,0.12,0.872,0.361,1.146c0.241,0.273,0.557,0.41,0.947,0.41
				c0.406,0,0.828-0.095,1.264-0.286c0.437-0.19,0.87-0.444,1.302-0.76s0.96-0.739,1.582-1.271v0.76
				c-0.938,1.13-1.818,1.995-2.641,2.598c-0.822,0.602-1.656,0.902-2.504,0.902c-0.739,0-1.324-0.286-1.756-0.859
				c-0.433-0.573-0.648-1.357-0.648-2.354c0-0.872,0.204-1.663,0.61-2.373c0.407-0.71,1.071-1.459,1.993-2.248
				c0.631-0.54,1.259-0.947,1.881-1.221c0.623-0.274,1.18-0.411,1.67-0.411c0.39,0,0.699,0.089,0.928,0.268s0.343,0.446,0.343,0.804
				c0,0.523-0.195,1.044-0.586,1.563c-0.391,0.519-0.986,1.034-1.787,1.545C256.948,35.093,255.962,35.584,254.791,36.058z
				 M254.916,35.248c0.747-0.291,1.387-0.652,1.918-1.084s0.924-0.845,1.178-1.239c0.253-0.395,0.38-0.683,0.38-0.866
				c0-0.19-0.088-0.286-0.262-0.286c-0.149,0-0.393,0.096-0.729,0.286c-0.337,0.191-0.678,0.44-1.021,0.748
				c-0.345,0.308-0.654,0.668-0.929,1.084C255.178,34.306,254.999,34.758,254.916,35.248z"/>
		</g>
	</g>
	<g>
		<g>
			<path d="M71.598,48.645c0.346,0.213,0.853,0.391,1.385,0.391c0.791,0,1.253-0.417,1.253-1.021c0-0.559-0.32-0.879-1.128-1.189
				c-0.978-0.347-1.581-0.853-1.581-1.696c0-0.933,0.772-1.625,1.936-1.625c0.613,0,1.058,0.142,1.323,0.293l-0.213,0.631
				c-0.195-0.107-0.595-0.284-1.137-0.284c-0.816,0-1.128,0.488-1.128,0.896c0,0.56,0.364,0.835,1.19,1.154
				c1.013,0.391,1.527,0.879,1.527,1.759c0,0.923-0.684,1.723-2.096,1.723c-0.577,0-1.208-0.169-1.527-0.382L71.598,48.645z"/>
			<path d="M76.858,43.601v3.543c0,1.341,0.595,1.909,1.394,1.909c0.889,0,1.457-0.586,1.457-1.909v-3.543h0.781v3.49
				c0,1.838-0.968,2.593-2.265,2.593c-1.226,0-2.149-0.701-2.149-2.558v-3.525H76.858z"/>
			<path d="M81.835,43.672c0.373-0.062,0.861-0.116,1.483-0.116c0.764,0,1.323,0.178,1.679,0.498
				c0.328,0.284,0.523,0.719,0.523,1.252c0,0.542-0.159,0.968-0.462,1.278c-0.408,0.436-1.074,0.657-1.829,0.657
				c-0.23,0-0.444-0.009-0.621-0.053v2.397h-0.773V43.672z M82.608,46.558c0.168,0.044,0.382,0.062,0.639,0.062
				c0.933,0,1.501-0.453,1.501-1.279c0-0.79-0.56-1.172-1.412-1.172c-0.337,0-0.595,0.026-0.728,0.062V46.558z"/>
			<path d="M89.663,46.779h-2.327v2.158h2.593v0.648h-3.365v-5.985h3.232v0.648h-2.46v1.892h2.327V46.779z"/>
			<path d="M90.936,43.681c0.391-0.08,0.95-0.125,1.483-0.125c0.825,0,1.358,0.151,1.731,0.489c0.302,0.266,0.471,0.675,0.471,1.137
				c0,0.79-0.497,1.313-1.128,1.527v0.026c0.462,0.16,0.737,0.586,0.879,1.208c0.195,0.834,0.338,1.412,0.462,1.643h-0.799
				c-0.098-0.169-0.231-0.684-0.4-1.43c-0.177-0.826-0.497-1.137-1.198-1.163h-0.729v2.593h-0.772V43.681z M91.708,46.406h0.79
				c0.826,0,1.351-0.452,1.351-1.137c0-0.772-0.56-1.109-1.377-1.118c-0.373,0-0.64,0.035-0.764,0.07V46.406z"/>
			<path d="M95.61,48.645c0.346,0.213,0.853,0.391,1.385,0.391c0.791,0,1.253-0.417,1.253-1.021c0-0.559-0.32-0.879-1.128-1.189
				c-0.978-0.347-1.581-0.853-1.581-1.696c0-0.933,0.772-1.625,1.936-1.625c0.613,0,1.058,0.142,1.323,0.293l-0.213,0.631
				c-0.195-0.107-0.595-0.284-1.137-0.284c-0.816,0-1.128,0.488-1.128,0.896c0,0.56,0.364,0.835,1.19,1.154
				c1.013,0.391,1.527,0.879,1.527,1.759c0,0.923-0.684,1.723-2.096,1.723c-0.577,0-1.208-0.169-1.527-0.382L95.61,48.645z"/>
			<path d="M104.281,49.391c-0.284,0.142-0.853,0.284-1.581,0.284c-1.688,0-2.957-1.065-2.957-3.028c0-1.874,1.27-3.144,3.126-3.144
				c0.746,0,1.216,0.159,1.421,0.267l-0.187,0.63c-0.293-0.142-0.711-0.248-1.208-0.248c-1.403,0-2.336,0.896-2.336,2.469
				c0,1.465,0.844,2.406,2.301,2.406c0.471,0,0.95-0.098,1.261-0.249L104.281,49.391z"/>
			<path d="M106.025,43.601v2.504h2.896v-2.504h0.781v5.985h-0.781v-2.807h-2.896v2.807h-0.772v-5.985H106.025z"/>
			<path d="M111.047,49.586v-5.985h0.844l1.918,3.028c0.444,0.701,0.79,1.332,1.074,1.944l0.019-0.009
				c-0.071-0.799-0.089-1.527-0.089-2.46v-2.504h0.728v5.985h-0.781l-1.9-3.037c-0.417-0.666-0.817-1.35-1.119-1.998l-0.026,0.009
				c0.044,0.755,0.062,1.474,0.062,2.469v2.558H111.047z"/>
			<path d="M119.994,46.779h-2.327v2.158h2.593v0.648h-3.365v-5.985h3.232v0.648h-2.46v1.892h2.327V46.779z"/>
			<path d="M121.267,43.601h0.773v5.337h2.558v0.648h-3.331V43.601z"/>
			<path d="M125.462,43.601h0.772v5.337h2.558v0.648h-3.33V43.601z"/>
			<path d="M131.54,43.672c0.373-0.062,0.861-0.116,1.483-0.116c0.764,0,1.323,0.178,1.679,0.498
				c0.328,0.284,0.523,0.719,0.523,1.252c0,0.542-0.159,0.968-0.462,1.278c-0.408,0.436-1.074,0.657-1.829,0.657
				c-0.23,0-0.444-0.009-0.621-0.053v2.397h-0.773V43.672z M132.313,46.558c0.168,0.044,0.382,0.062,0.639,0.062
				c0.933,0,1.501-0.453,1.501-1.279c0-0.79-0.56-1.172-1.412-1.172c-0.337,0-0.595,0.026-0.728,0.062V46.558z"/>
			<path d="M136.268,43.681c0.392-0.08,0.95-0.125,1.483-0.125c0.826,0,1.358,0.151,1.731,0.489
				c0.303,0.266,0.471,0.675,0.471,1.137c0,0.79-0.497,1.313-1.128,1.527v0.026c0.462,0.16,0.737,0.586,0.88,1.208
				c0.195,0.834,0.337,1.412,0.462,1.643h-0.8c-0.098-0.169-0.23-0.684-0.399-1.43c-0.178-0.826-0.497-1.137-1.199-1.163h-0.728
				v2.593h-0.773V43.681z M137.041,46.406h0.79c0.826,0,1.35-0.452,1.35-1.137c0-0.772-0.56-1.109-1.376-1.118
				c-0.373,0-0.64,0.035-0.764,0.07V46.406z"/>
			<path d="M144.148,46.779h-2.326v2.158h2.593v0.648h-3.366v-5.985h3.233v0.648h-2.46v1.892h2.326V46.779z"/>
			<path d="M150.466,46.957c-0.044-0.835-0.098-1.838-0.089-2.584h-0.026c-0.204,0.701-0.453,1.447-0.755,2.273l-1.057,2.904h-0.586
				l-0.969-2.851c-0.284-0.844-0.523-1.617-0.692-2.327h-0.018c-0.018,0.746-0.062,1.749-0.115,2.646l-0.16,2.566h-0.737
				l0.418-5.985h0.985l1.021,2.895c0.248,0.737,0.453,1.395,0.604,2.017h0.026c0.151-0.604,0.364-1.262,0.631-2.017l1.065-2.895
				h0.986l0.373,5.985h-0.755L150.466,46.957z"/>
			<path d="M153.34,43.601v5.985h-0.773v-5.985H153.34z"/>
			<path d="M155.464,43.601v3.543c0,1.341,0.595,1.909,1.394,1.909c0.889,0,1.457-0.586,1.457-1.909v-3.543h0.781v3.49
				c0,1.838-0.968,2.593-2.265,2.593c-1.226,0-2.149-0.701-2.149-2.558v-3.525H155.464z"/>
			<path d="M165.485,46.957c-0.045-0.835-0.098-1.838-0.089-2.584h-0.027c-0.204,0.701-0.452,1.447-0.755,2.273l-1.057,2.904h-0.586
				l-0.968-2.851c-0.284-0.844-0.524-1.617-0.692-2.327h-0.019c-0.018,0.746-0.062,1.749-0.115,2.646l-0.16,2.566h-0.736
				l0.417-5.985h0.986l1.021,2.895c0.249,0.737,0.453,1.395,0.604,2.017h0.026c0.151-0.604,0.364-1.262,0.631-2.017l1.065-2.895
				h0.985l0.373,5.985h-0.755L165.485,46.957z"/>
			<path d="M174.408,50.465c-0.809-0.213-1.599-0.453-2.292-0.692c-0.124-0.044-0.248-0.089-0.364-0.089
				c-1.421-0.054-2.637-1.102-2.637-3.028c0-1.918,1.172-3.152,2.788-3.152c1.625,0,2.682,1.261,2.682,3.028
				c0,1.536-0.71,2.521-1.705,2.868v0.035c0.596,0.151,1.244,0.294,1.75,0.382L174.408,50.465z M173.769,46.566
				c0-1.199-0.622-2.434-1.892-2.434c-1.306,0-1.945,1.208-1.937,2.505c-0.009,1.27,0.693,2.415,1.9,2.415
				C173.075,49.053,173.769,47.935,173.769,46.566z"/>
			<path d="M176.366,43.601v3.543c0,1.341,0.595,1.909,1.394,1.909c0.889,0,1.457-0.586,1.457-1.909v-3.543h0.781v3.49
				c0,1.838-0.968,2.593-2.265,2.593c-1.226,0-2.149-0.701-2.149-2.558v-3.525H176.366z"/>
			<path d="M182.009,47.703l-0.621,1.883h-0.8l2.034-5.985h0.932l2.043,5.985h-0.826l-0.639-1.883H182.009z M183.972,47.1
				l-0.586-1.723c-0.134-0.392-0.223-0.746-0.312-1.093h-0.018c-0.089,0.355-0.187,0.72-0.302,1.083l-0.586,1.732H183.972z"/>
			<path d="M186.479,43.601h0.773v5.337h2.558v0.648h-3.331V43.601z"/>
			<path d="M191.447,43.601v5.985h-0.772v-5.985H191.447z"/>
			<path d="M193.936,44.258h-1.82v-0.657h4.431v0.657h-1.829v5.328h-0.781V44.258z"/>
			<path d="M197.517,47.703l-0.621,1.883h-0.8l2.034-5.985h0.932l2.043,5.985h-0.826l-0.639-1.883H197.517z M197.366,42.748
				c0-0.249,0.186-0.444,0.443-0.444c0.24,0,0.418,0.195,0.418,0.444c0,0.248-0.169,0.453-0.427,0.453
				S197.366,42.996,197.366,42.748z M199.479,47.1l-0.586-1.723c-0.134-0.392-0.223-0.746-0.312-1.093h-0.018
				c-0.089,0.355-0.187,0.72-0.302,1.083l-0.586,1.732H199.479z M199.018,42.748c0-0.249,0.187-0.444,0.436-0.444
				c0.248,0,0.426,0.195,0.426,0.444c0,0.248-0.169,0.453-0.436,0.453C199.187,43.201,199.018,42.996,199.018,42.748z"/>
			<path d="M202.44,44.258h-1.82v-0.657h4.431v0.657h-1.829v5.328h-0.781V44.258z"/>
		</g>
	</g>
</g>
</svg>
