<?xml version="1.0" encoding="utf-8"?>
<!-- Generator: Adobe Illustrator 16.0.0, SVG Export Plug-In . SVG Version: 6.00 Build 0)  -->
<!DOCTYPE svg PUBLIC "-//W3C//DTD SVG 1.0//EN" "http://www.w3.org/TR/2001/REC-SVG-20010904/DTD/svg10.dtd">
<svg version="1.0" id="Ebene_1" xmlns="http://www.w3.org/2000/svg" xmlns:xlink="http://www.w3.org/1999/xlink" x="0px" y="0px"
	 width="80.492px" height="80.492px" viewBox="0 0 80.492 80.492" enable-background="new 0 0 80.492 80.492" xml:space="preserve">
<g id="background">
</g>
<g id="ò_x2021__xF8FF__x5F_3">
	<g>
		<path fill="#DBF3FB" d="M80.492,40.246c0,22.227-18.02,40.246-40.246,40.246C18.019,80.492,0,62.473,0,40.246
			C0,18.018,18.019,0,40.246,0C62.473,0,80.492,18.018,80.492,40.246"/>
		<path fill="#697478" d="M44.212,41.391c-0.194-1.125-0.724-2.147-1.536-2.96c-0.857-0.858-1.939-1.403-3.135-1.567l0.225-1.597
			c1.544,0.216,2.947,0.917,4.052,2.021c1.052,1.053,1.738,2.374,1.982,3.828L44.212,41.391 M43.176,50.418
			c-0.068,0-0.139-0.002-0.209-0.006c-1.135-0.061-2.188-0.439-3.193-0.934c-2.246-1.088-4.164-2.604-5.768-4.513
			c-1.186-1.411-2.163-2.946-2.812-4.686c-0.313-0.842-0.537-1.701-0.471-2.61c0.045-0.56,0.254-1.038,0.665-1.434
			c0.446-0.425,0.865-0.866,1.306-1.297c0.286-0.283,0.607-0.423,0.929-0.423c0.324,0,0.648,0.142,0.937,0.423
			c0.357,0.35,0.701,0.701,1.051,1.052c0.343,0.342,0.688,0.678,1.023,1.021c0.596,0.604,0.596,1.307,0,1.911
			c-0.426,0.433-0.852,0.864-1.291,1.284c-0.113,0.112-0.128,0.201-0.067,0.342c0.283,0.686,0.7,1.299,1.164,1.866
			c0.933,1.147,1.991,2.171,3.259,2.961c0.271,0.171,0.566,0.291,0.852,0.448c0.055,0.031,0.104,0.046,0.148,0.046
			c0.074,0,0.14-0.04,0.209-0.114c0.426-0.439,0.865-0.873,1.299-1.305c0.287-0.284,0.609-0.426,0.932-0.426
			s0.645,0.142,0.928,0.426c0.701,0.693,1.396,1.387,2.088,2.088c0.599,0.611,0.599,1.328,0.007,1.917
			c-0.396,0.403-0.812,0.774-1.187,1.194C44.477,50.207,43.865,50.418,43.176,50.418 M48.398,41.116
			c-0.359-2.089-1.344-3.984-2.842-5.491c-1.584-1.581-3.591-2.582-5.808-2.895l0.224-1.597c2.561,0.358,4.888,1.515,6.716,3.35
			c1.737,1.738,2.879,3.939,3.297,6.356L48.398,41.116 M40.241,22.829c-4.593,0-9.187,1.753-12.689,5.26
			c-6.743,6.744-6.999,17.533-0.753,24.583l0.186,0.15c-0.679,1.462-1.842,3.268-3.692,4.177c-0.611,0.299-0.469,1.21,0.201,1.313
			c0.412,0.063,0.861,0.101,1.338,0.101c1.86,0,4.14-0.554,6.296-2.181l0.036,0.028c2.798,1.645,5.946,2.468,9.094,2.468
			c4.594,0,9.188-1.752,12.691-5.259c6.999-7.005,6.999-18.375-0.014-25.381C49.43,24.583,44.834,22.829,40.241,22.829"/>
		<circle fill="#FFFFFF" cx="40.295" cy="40.198" r="14.495"/>
		<path fill="#AAA9A7" d="M52.936,27.556c-7.014-7.014-18.376-7.014-25.384,0c-6.743,6.744-6.998,17.533-0.753,24.583l0.186,0.149
			c-0.679,1.462-1.842,3.269-3.692,4.178c-0.611,0.3-0.469,1.21,0.201,1.313c2.022,0.312,4.925-0.037,7.634-2.081l0.036,0.03
			c6.88,4.043,15.878,3.117,21.785-2.791C59.947,45.932,59.947,34.562,52.936,27.556z M46.158,47.924
			c-0.395,0.403-0.812,0.776-1.188,1.194c-0.544,0.61-1.229,0.806-2.005,0.761c-1.135-0.061-2.187-0.439-3.193-0.934
			c-2.246-1.088-4.163-2.604-5.768-4.514c-1.186-1.41-2.163-2.947-2.812-4.685c-0.313-0.843-0.537-1.701-0.471-2.611
			c0.045-0.56,0.254-1.037,0.665-1.433c0.447-0.425,0.865-0.865,1.305-1.297c0.575-0.568,1.291-0.56,1.866,0
			c0.357,0.35,0.7,0.701,1.052,1.052c0.342,0.343,0.687,0.679,1.021,1.021c0.596,0.604,0.596,1.306,0,1.911
			c-0.425,0.433-0.851,0.865-1.291,1.283c-0.112,0.112-0.127,0.201-0.066,0.343c0.283,0.686,0.7,1.296,1.164,1.866
			c0.932,1.147,1.991,2.17,3.259,2.961c0.271,0.173,0.567,0.292,0.852,0.448c0.143,0.082,0.245,0.052,0.357-0.066
			c0.427-0.44,0.865-0.873,1.299-1.307c0.574-0.568,1.291-0.568,1.859,0c0.699,0.693,1.395,1.389,2.088,2.089
			C46.75,46.618,46.75,47.334,46.158,47.924z M39.541,36.33l0.225-1.597c1.544,0.216,2.947,0.917,4.052,2.021
			c1.052,1.053,1.738,2.373,1.982,3.827l-1.589,0.276c-0.194-1.127-0.724-2.148-1.536-2.961
			C41.818,37.039,40.735,36.495,39.541,36.33z M48.398,40.582c-0.358-2.089-1.344-3.983-2.844-5.491
			c-1.582-1.582-3.589-2.582-5.806-2.895l0.224-1.596c2.561,0.358,4.888,1.515,6.716,3.35c1.737,1.738,2.879,3.939,3.297,6.356
			L48.398,40.582z"/>
	</g>
</g>
<g id="camera">
</g>
</svg>
