<?xml version="1.0" encoding="utf-8"?>
<!-- Generator: Adobe Illustrator 16.0.0, SVG Export Plug-In . SVG Version: 6.00 Build 0)  -->
<!DOCTYPE svg PUBLIC "-//W3C//DTD SVG 1.0//EN" "http://www.w3.org/TR/2001/REC-SVG-20010904/DTD/svg10.dtd">
<svg version="1.0" id="Ebene_1" xmlns="http://www.w3.org/2000/svg" xmlns:xlink="http://www.w3.org/1999/xlink" x="0px" y="0px"
	 width="261.248px" height="71px" viewBox="0 148.84 261.248 71" enable-background="new 0 148.84 261.248 71" xml:space="preserve"
	>
<g>
	<g>
		<g>
			<defs>
				<path id="SVGID_1_" d="M7,212.84v-58h52v58H7 M65,148.84H0v71h65V148.84"/>
			</defs>
			<clipPath id="SVGID_2_">
				<use xlink:href="#SVGID_1_"  overflow="visible"/>
			</clipPath>
		</g>
	</g>
	<polyline fill="#FFFFFF" points="59,212.84 7,212.84 7,154.84 59,154.84 59,212.84 	"/>
	<polyline fill="#DAF2FB" points="56,157.84 10,157.84 10,209.84 56,209.84 56,157.84 	"/>
	<path d="M73.254,176.025c0.873-0.148,2.099-0.262,3.825-0.262c1.746,0,2.99,0.336,3.826,1.004c0.798,0.632,1.337,1.672,1.337,2.896
		s-0.409,2.266-1.151,2.971c-0.965,0.91-2.396,1.318-4.067,1.318c-0.371,0-0.706-0.02-0.965-0.056v4.476h-2.804L73.254,176.025
		L73.254,176.025z M76.059,181.707c0.241,0.055,0.539,0.073,0.947,0.073c1.504,0,2.433-0.761,2.433-2.042
		c0-1.15-0.798-1.839-2.209-1.839c-0.576,0-0.966,0.056-1.17,0.11L76.059,181.707L76.059,181.707z"/>
	<path d="M88.782,188.373l-0.167-0.91h-0.056c-0.594,0.725-1.522,1.113-2.6,1.113c-1.838,0-2.934-1.336-2.934-2.783
		c0-2.359,2.117-3.492,5.33-3.474v-0.13c0-0.482-0.26-1.17-1.653-1.17c-0.928,0-1.913,0.314-2.507,0.688l-0.52-1.82
		c0.631-0.353,1.875-0.799,3.528-0.799c3.027,0,3.993,1.783,3.993,3.918v3.158c0,0.871,0.037,1.709,0.13,2.209H88.782z
		 M88.448,184.084c-1.485-0.02-2.637,0.334-2.637,1.43c0,0.725,0.482,1.076,1.114,1.076c0.706,0,1.282-0.463,1.467-1.039
		c0.037-0.148,0.056-0.316,0.056-0.482V184.084z"/>
	<path d="M93.409,185.902c0.52,0.316,1.597,0.688,2.433,0.688c0.854,0,1.207-0.297,1.207-0.76c0-0.467-0.278-0.689-1.337-1.041
		c-1.875-0.632-2.6-1.652-2.582-2.729c0-1.69,1.449-2.973,3.696-2.973c1.058,0,2.005,0.242,2.562,0.521l-0.501,1.949
		c-0.409-0.223-1.188-0.52-1.968-0.52c-0.687,0-1.077,0.277-1.077,0.741c0,0.429,0.353,0.649,1.467,1.04
		c1.727,0.596,2.452,1.469,2.47,2.805c0,1.689-1.337,2.934-3.937,2.934c-1.188,0-2.247-0.26-2.934-0.631L93.409,185.902z"/>
	<path d="M101.471,185.902c0.52,0.316,1.597,0.688,2.433,0.688c0.854,0,1.207-0.297,1.207-0.76c0-0.467-0.278-0.689-1.337-1.041
		c-1.875-0.632-2.6-1.652-2.582-2.729c0-1.69,1.449-2.973,3.696-2.973c1.058,0,2.005,0.242,2.562,0.521l-0.501,1.949
		c-0.409-0.223-1.188-0.52-1.968-0.52c-0.687,0-1.077,0.277-1.077,0.741c0,0.429,0.353,0.649,1.467,1.04
		c1.727,0.596,2.452,1.469,2.47,2.805c0,1.689-1.337,2.934-3.937,2.934c-1.188,0-2.247-0.26-2.934-0.631L101.471,185.902z"/>
	<polygon points="109.644,175.857 117.295,175.857 117.295,178.178 112.485,178.178 112.485,181.039 116.979,181.039 
		116.979,183.342 112.485,183.342 112.485,188.373 109.644,188.373 	"/>
	<path d="M127.827,183.731c0,3.323-2.358,4.847-4.791,4.847c-2.656,0-4.698-1.744-4.698-4.68c0-2.934,1.931-4.811,4.847-4.811
		C125.97,179.088,127.827,181.002,127.827,183.731z M121.253,183.823c0,1.56,0.65,2.729,1.857,2.729
		c1.096,0,1.801-1.096,1.801-2.729c0-1.354-0.52-2.729-1.801-2.729C121.755,181.094,121.253,182.486,121.253,183.823z"/>
	<path d="M132.731,176.693v2.6h2.024v2.08h-2.024v3.287c0,1.096,0.261,1.598,1.115,1.598c0.353,0,0.631-0.037,0.834-0.074
		l0.021,2.135c-0.371,0.148-1.04,0.242-1.839,0.242c-0.909,0-1.672-0.314-2.117-0.779c-0.52-0.539-0.78-1.412-0.78-2.693v-3.713
		h-1.207v-2.08h1.207v-1.969L132.731,176.693z"/>
	<path d="M145.271,183.731c0,3.323-2.358,4.847-4.791,4.847c-2.656,0-4.698-1.744-4.698-4.68c0-2.934,1.931-4.811,4.847-4.811
		C143.412,179.088,145.271,181.002,145.271,183.731z M138.694,183.823c0,1.56,0.65,2.729,1.857,2.729
		c1.096,0,1.801-1.096,1.801-2.729c0-1.354-0.52-2.729-1.801-2.729C139.196,181.094,138.694,182.486,138.694,183.823z"/>
	<path d="M147.11,176.025c0.91-0.148,2.267-0.262,3.771-0.262c1.856,0,3.157,0.279,4.05,0.984c0.741,0.596,1.149,1.467,1.149,2.618
		c0,1.599-1.134,2.692-2.209,3.083v0.057c0.873,0.353,1.354,1.188,1.671,2.34c0.391,1.41,0.779,3.045,1.021,3.527h-2.897
		c-0.203-0.354-0.501-1.373-0.872-2.914c-0.335-1.562-0.873-1.988-2.023-2.007h-0.854v4.921h-2.806V176.025z M149.916,181.409h1.112
		c1.412,0,2.248-0.704,2.248-1.801c0-1.151-0.78-1.728-2.08-1.746c-0.688,0-1.077,0.056-1.28,0.093V181.409z"/>
	<path d="M167.003,183.731c0,3.323-2.357,4.847-4.791,4.847c-2.654,0-4.697-1.744-4.697-4.68c0-2.934,1.932-4.811,4.846-4.811
		C165.146,179.088,167.003,181.002,167.003,183.731z M160.431,183.823c0,1.56,0.648,2.729,1.855,2.729
		c1.096,0,1.802-1.096,1.802-2.729c0-1.354-0.521-2.729-1.802-2.729C160.931,181.094,160.431,182.486,160.431,183.823z"/>
	<path d="M168.731,185.902c0.521,0.316,1.599,0.688,2.435,0.688c0.854,0,1.207-0.297,1.207-0.76c0-0.467-0.279-0.689-1.338-1.041
		c-1.875-0.632-2.601-1.652-2.581-2.729c0-1.69,1.447-2.973,3.695-2.973c1.059,0,2.006,0.242,2.562,0.521l-0.502,1.949
		c-0.408-0.223-1.188-0.52-1.969-0.52c-0.688,0-1.076,0.277-1.076,0.741c0,0.429,0.354,0.649,1.467,1.04
		c1.727,0.596,2.451,1.469,2.471,2.805c0,1.689-1.338,2.934-3.938,2.934c-1.189,0-2.248-0.26-2.936-0.631L168.731,185.902z"/>
	<path d="M178.985,184.734c0.094,1.17,1.244,1.727,2.562,1.727c0.965,0,1.746-0.129,2.508-0.371l0.371,1.914
		c-0.93,0.371-2.062,0.557-3.287,0.557c-3.082,0-4.848-1.783-4.848-4.624c0-2.304,1.43-4.847,4.588-4.847
		c2.934,0,4.048,2.283,4.048,4.531c0,0.481-0.056,0.909-0.093,1.113H178.985z M182.312,182.803c0-0.688-0.297-1.838-1.599-1.838
		c-1.188,0-1.671,1.076-1.745,1.838H182.312z"/>
	<path d="M186.621,182.19c0-1.134-0.037-2.099-0.074-2.897h2.451l0.13,1.244h0.057c0.371-0.574,1.299-1.447,2.805-1.447
		c1.855,0,3.248,1.226,3.248,3.898v5.387h-2.821v-5.033c0-1.17-0.409-1.969-1.431-1.969c-0.779,0-1.244,0.539-1.43,1.059
		c-0.074,0.168-0.111,0.445-0.111,0.707v5.236h-2.822L186.621,182.19L186.621,182.19z"/>
	<path d="M197.506,175.189h2.823v5.182h0.037c0.297-0.391,0.669-0.688,1.113-0.93c0.408-0.223,0.947-0.354,1.467-0.354
		c1.802,0,3.177,1.244,3.177,3.976v5.312h-2.822v-4.996c0-1.188-0.409-2.006-1.468-2.006c-0.743,0-1.207,0.483-1.411,0.984
		c-0.073,0.186-0.093,0.427-0.093,0.631v5.387h-2.823V175.189z"/>
	<path d="M210.563,184.734c0.095,1.17,1.244,1.727,2.562,1.727c0.967,0,1.746-0.129,2.508-0.371l0.371,1.914
		c-0.929,0.371-2.062,0.557-3.287,0.557c-3.082,0-4.847-1.783-4.847-4.624c0-2.304,1.43-4.847,4.587-4.847
		c2.934,0,4.049,2.283,4.049,4.531c0,0.481-0.057,0.909-0.094,1.113H210.563z M213.89,182.803c0-0.688-0.298-1.838-1.599-1.838
		c-1.188,0-1.67,1.076-1.744,1.838H213.89z"/>
	<path d="M221.115,176.768c0,0.779-0.595,1.41-1.523,1.41c-0.891,0-1.483-0.631-1.467-1.41c-0.019-0.816,0.576-1.43,1.485-1.43
		C220.521,175.338,221.097,175.95,221.115,176.768z M218.199,188.373v-9.08h2.823v9.08H218.199z"/>
	<path d="M223.289,182.19c0-1.134-0.037-2.099-0.074-2.897h2.377l0.132,1.227h0.055c0.391-0.575,1.188-1.43,2.748-1.43
		c1.17,0,2.1,0.594,2.488,1.541h0.037c0.336-0.465,0.743-0.836,1.17-1.096c0.502-0.298,1.06-0.445,1.729-0.445
		c1.744,0,3.062,1.226,3.062,3.938v5.348h-2.748v-4.938c0-1.318-0.427-2.08-1.337-2.08c-0.649,0-1.114,0.444-1.301,0.983
		c-0.074,0.205-0.11,0.502-0.11,0.726v5.312h-2.748v-5.088c0-1.152-0.408-1.933-1.301-1.933c-0.724,0-1.15,0.558-1.318,1.021
		c-0.092,0.223-0.11,0.482-0.11,0.707v5.291h-2.749L223.289,182.19L223.289,182.19z"/>
	<path d="M239.062,186.869c0-1.004,0.687-1.729,1.67-1.729s1.652,0.707,1.652,1.729c0,0.984-0.669,1.707-1.671,1.707
		C239.747,188.576,239.062,187.854,239.062,186.869z"/>
	<path d="M248.854,184.475c-0.731,0.83-1.386,1.537-1.963,2.117c-0.576,0.582-1.047,1.016-1.408,1.303
		c-0.36,0.285-0.607,0.43-0.74,0.43c-0.217,0-0.459-0.176-0.729-0.523c-0.271-0.348-0.5-0.793-0.691-1.332s-0.287-1.088-0.287-1.645
		c0-0.807,0.391-1.617,1.172-2.436c0.779-0.818,1.669-1.498,2.666-2.037c0.996-0.539,1.743-0.811,2.242-0.811
		c0.406,0,0.805,0.258,1.195,0.772c0.639-1.337,1.248-2.524,1.823-3.562c0.578-1.039,1.062-1.812,1.452-2.318
		c0.391-0.506,0.668-0.76,0.835-0.76c0.183,0,0.351,0.09,0.504,0.269c0.154,0.179,0.23,0.38,0.23,0.604
		c0,0.432-0.316,1.172-0.947,2.224c-0.631,1.051-1.254,2.073-1.868,3.069c-0.613,0.998-1.142,1.979-1.582,2.946
		c-0.439,0.968-0.66,1.862-0.66,2.685c0,0.748,0.241,1.121,0.724,1.121c0.29,0,0.655-0.164,1.097-0.492
		c0.439-0.328,1.066-0.877,1.881-1.649v0.909c-1.794,2.316-3.177,3.477-4.148,3.477c-0.391,0-0.67-0.15-0.84-0.449
		c-0.172-0.299-0.256-0.742-0.256-1.332C248.556,186.256,248.653,185.396,248.854,184.475z M249.774,181.436
		c-0.739,0.248-1.606,0.648-2.604,1.201c-0.997,0.554-1.6,0.934-1.807,1.141c-0.184,0.166-0.346,0.479-0.486,0.936
		s-0.211,0.801-0.211,1.033c0,0.141,0.041,0.258,0.124,0.35c0.083,0.09,0.187,0.137,0.312,0.137c0.116,0,0.25-0.051,0.398-0.148
		c0.15-0.102,0.389-0.295,0.717-0.586s0.541-0.479,0.641-0.562c0.143-0.123,0.455-0.391,0.941-0.803
		c0.485-0.41,0.84-0.732,1.064-0.965c0.224-0.234,0.416-0.492,0.572-0.779C249.597,182.102,249.709,181.783,249.774,181.436z"/>
	<path d="M255.791,184.898v0.312c0,0.488,0.121,0.871,0.36,1.145c0.242,0.273,0.558,0.41,0.947,0.41
		c0.406,0,0.828-0.094,1.264-0.285c0.438-0.189,0.871-0.445,1.304-0.76c0.433-0.316,0.959-0.74,1.582-1.271v0.76
		c-0.938,1.131-1.817,1.996-2.642,2.598c-0.821,0.602-1.656,0.902-2.504,0.902c-0.739,0-1.324-0.285-1.756-0.859
		c-0.434-0.572-0.647-1.357-0.647-2.354c0-0.871,0.202-1.662,0.608-2.373c0.407-0.709,1.072-1.459,1.994-2.248
		c0.631-0.539,1.258-0.947,1.881-1.221s1.18-0.411,1.67-0.411c0.39,0,0.699,0.089,0.929,0.269c0.228,0.179,0.342,0.445,0.342,0.804
		c0,0.522-0.194,1.044-0.586,1.563c-0.392,0.519-0.986,1.033-1.787,1.545C257.949,183.934,256.963,184.424,255.791,184.898z
		 M255.916,184.088c0.748-0.291,1.388-0.651,1.918-1.084c0.531-0.432,0.924-0.845,1.179-1.238c0.252-0.395,0.379-0.684,0.379-0.866
		c0-0.19-0.086-0.286-0.262-0.286c-0.148,0-0.392,0.096-0.729,0.286c-0.338,0.19-0.678,0.44-1.021,0.748s-0.654,0.668-0.929,1.084
		C256.179,183.146,255.999,183.598,255.916,184.088z"/>
	<path d="M72.597,197.484c0.346,0.213,0.853,0.393,1.385,0.393c0.791,0,1.252-0.418,1.252-1.021c0-0.559-0.32-0.879-1.128-1.189
		c-0.977-0.348-1.581-0.854-1.581-1.695c0-0.934,0.773-1.625,1.936-1.625c0.613,0,1.057,0.141,1.323,0.293l-0.213,0.631
		c-0.195-0.107-0.595-0.285-1.137-0.285c-0.817,0-1.128,0.488-1.128,0.896c0,0.561,0.364,0.836,1.19,1.154
		c1.013,0.391,1.527,0.879,1.527,1.76c0,0.922-0.684,1.723-2.096,1.723c-0.577,0-1.208-0.17-1.527-0.383L72.597,197.484z"/>
	<path d="M77.858,192.441v3.543c0,1.34,0.595,1.908,1.394,1.908c0.888,0,1.457-0.586,1.457-1.908v-3.543h0.781v3.49
		c0,1.838-0.968,2.592-2.265,2.592c-1.225,0-2.149-0.701-2.149-2.557v-3.525H77.858z"/>
	<path d="M82.835,192.512c0.373-0.062,0.861-0.115,1.483-0.115c0.764,0,1.323,0.178,1.678,0.498
		c0.329,0.283,0.524,0.719,0.524,1.252c0,0.541-0.16,0.967-0.462,1.277c-0.408,0.436-1.074,0.658-1.829,0.658
		c-0.231,0-0.444-0.01-0.622-0.055v2.398h-0.773L82.835,192.512L82.835,192.512z M83.608,195.398
		c0.168,0.043,0.382,0.062,0.639,0.062c0.933,0,1.501-0.453,1.501-1.279c0-0.791-0.56-1.172-1.412-1.172
		c-0.337,0-0.595,0.025-0.728,0.061V195.398z"/>
	<polygon points="90.663,195.619 88.336,195.619 88.336,197.777 90.929,197.777 90.929,198.426 87.563,198.426 87.563,192.441 
		90.795,192.441 90.795,193.09 88.336,193.09 88.336,194.98 90.663,194.98 	"/>
	<path d="M91.935,192.521c0.391-0.08,0.95-0.125,1.483-0.125c0.826,0,1.358,0.15,1.731,0.488c0.302,0.266,0.471,0.676,0.471,1.137
		c0,0.791-0.497,1.314-1.128,1.527v0.025c0.462,0.16,0.737,0.586,0.879,1.209c0.195,0.834,0.337,1.412,0.462,1.643h-0.799
		c-0.098-0.168-0.231-0.684-0.4-1.43c-0.177-0.826-0.497-1.137-1.199-1.162h-0.728v2.592h-0.773L91.935,192.521L91.935,192.521z
		 M92.708,195.246h0.79c0.826,0,1.35-0.451,1.35-1.137c0-0.771-0.56-1.109-1.376-1.119c-0.373,0-0.64,0.035-0.764,0.07V195.246z"/>
	<path d="M96.61,197.484c0.346,0.213,0.853,0.393,1.385,0.393c0.791,0,1.252-0.418,1.252-1.021c0-0.559-0.32-0.879-1.128-1.189
		c-0.977-0.348-1.581-0.854-1.581-1.695c0-0.934,0.773-1.625,1.936-1.625c0.613,0,1.057,0.141,1.323,0.293l-0.213,0.631
		c-0.195-0.107-0.595-0.285-1.137-0.285c-0.817,0-1.128,0.488-1.128,0.896c0,0.561,0.364,0.836,1.19,1.154
		c1.013,0.391,1.527,0.879,1.527,1.76c0,0.922-0.684,1.723-2.096,1.723c-0.577,0-1.208-0.17-1.527-0.383L96.61,197.484z"/>
	<path d="M105.281,198.23c-0.284,0.143-0.853,0.285-1.581,0.285c-1.687,0-2.957-1.066-2.957-3.029c0-1.873,1.27-3.143,3.126-3.143
		c0.746,0,1.216,0.158,1.421,0.266l-0.187,0.631c-0.293-0.143-0.71-0.248-1.208-0.248c-1.403,0-2.335,0.896-2.335,2.469
		c0,1.465,0.844,2.406,2.3,2.406c0.471,0,0.95-0.098,1.261-0.25L105.281,198.23z"/>
	<polygon points="107.025,192.441 107.025,194.943 109.92,194.943 109.92,192.441 110.702,192.441 110.702,198.426 109.92,198.426 
		109.92,195.619 107.025,195.619 107.025,198.426 106.252,198.426 106.252,192.441 	"/>
	<path d="M112.046,198.426v-5.984h0.844l1.918,3.027c0.444,0.701,0.79,1.332,1.074,1.945l0.018-0.01
		c-0.071-0.799-0.089-1.527-0.089-2.461v-2.504h0.728v5.986h-0.781l-1.901-3.037c-0.417-0.666-0.817-1.35-1.119-1.998l-0.027,0.008
		c0.044,0.756,0.062,1.475,0.062,2.469v2.559H112.046z"/>
	<polygon points="120.994,195.619 118.667,195.619 118.667,197.777 121.26,197.777 121.26,198.426 117.894,198.426 117.894,192.441 
		121.126,192.441 121.126,193.09 118.667,193.09 118.667,194.98 120.994,194.98 	"/>
	<polygon points="122.267,192.441 123.04,192.441 123.04,197.777 125.597,197.777 125.597,198.426 122.267,198.426 	"/>
	<polygon points="126.461,192.441 127.234,192.441 127.234,197.777 129.792,197.777 129.792,198.426 126.461,198.426 	"/>
	<path d="M132.54,192.512c0.373-0.062,0.861-0.115,1.482-0.115c0.765,0,1.322,0.178,1.679,0.498
		c0.329,0.283,0.524,0.719,0.524,1.252c0,0.541-0.16,0.967-0.463,1.277c-0.408,0.436-1.074,0.658-1.828,0.658
		c-0.231,0-0.444-0.01-0.623-0.055v2.398h-0.771V192.512z M133.312,195.398c0.17,0.043,0.383,0.062,0.641,0.062
		c0.933,0,1.501-0.453,1.501-1.279c0-0.791-0.56-1.172-1.412-1.172c-0.338,0-0.597,0.025-0.729,0.061V195.398z"/>
	<path d="M137.269,192.521c0.391-0.08,0.949-0.125,1.482-0.125c0.825,0,1.357,0.15,1.73,0.488c0.304,0.266,0.472,0.676,0.472,1.137
		c0,0.791-0.497,1.314-1.128,1.527v0.025c0.462,0.16,0.736,0.586,0.88,1.209c0.194,0.834,0.337,1.412,0.461,1.643h-0.799
		c-0.099-0.168-0.229-0.684-0.4-1.43c-0.178-0.826-0.495-1.137-1.198-1.162h-0.728v2.592h-0.772V192.521L137.269,192.521z
		 M138.041,195.246h0.789c0.826,0,1.351-0.451,1.351-1.137c0-0.771-0.56-1.109-1.375-1.119c-0.373,0-0.642,0.035-0.765,0.07V195.246
		L138.041,195.246z"/>
	<polygon points="145.147,195.619 142.821,195.619 142.821,197.777 145.414,197.777 145.414,198.426 142.049,198.426 
		142.049,192.441 145.281,192.441 145.281,193.09 142.821,193.09 142.821,194.98 145.147,194.98 	"/>
	<path d="M151.466,195.797c-0.044-0.834-0.098-1.838-0.089-2.584h-0.026c-0.203,0.701-0.453,1.447-0.754,2.273l-1.058,2.904h-0.586
		l-0.97-2.852c-0.283-0.844-0.522-1.617-0.691-2.326h-0.02c-0.018,0.746-0.062,1.748-0.114,2.645l-0.16,2.566h-0.735l0.418-5.984
		h0.983l1.021,2.895c0.25,0.736,0.453,1.395,0.604,2.018h0.026c0.15-0.604,0.363-1.262,0.631-2.018l1.064-2.895h0.985l0.373,5.984
		h-0.754L151.466,195.797z"/>
	<rect x="153.565" y="192.441" width="0.773" height="5.984"/>
	<path d="M156.463,192.441v3.543c0,1.34,0.597,1.908,1.396,1.908c0.889,0,1.457-0.586,1.457-1.908v-3.543h0.781v3.49
		c0,1.838-0.97,2.592-2.267,2.592c-1.226,0-2.147-0.701-2.147-2.557v-3.525H156.463z"/>
	<path d="M166.483,195.797c-0.043-0.834-0.098-1.838-0.088-2.584h-0.026c-0.204,0.701-0.453,1.447-0.755,2.273l-1.057,2.904h-0.586
		l-0.969-2.852c-0.285-0.844-0.523-1.617-0.693-2.326h-0.018c-0.018,0.746-0.062,1.748-0.115,2.645l-0.16,2.566h-0.736l0.418-5.984
		h0.984l1.021,2.895c0.248,0.736,0.453,1.395,0.604,2.018h0.027c0.15-0.604,0.363-1.262,0.631-2.018l1.064-2.895h0.986l0.373,5.984
		h-0.756L166.483,195.797z"/>
	<path d="M175.408,199.305c-0.81-0.213-1.601-0.453-2.292-0.691c-0.124-0.045-0.249-0.09-0.364-0.09
		c-1.421-0.053-2.637-1.102-2.637-3.027c0-1.918,1.172-3.152,2.788-3.152c1.625,0,2.682,1.262,2.682,3.029
		c0,1.535-0.71,2.52-1.705,2.867v0.035c0.596,0.15,1.243,0.293,1.749,0.381L175.408,199.305z M174.769,195.406
		c0-1.199-0.621-2.434-1.892-2.434c-1.308,0-1.944,1.207-1.937,2.504c-0.01,1.271,0.691,2.416,1.899,2.416
		C174.075,197.893,174.769,196.775,174.769,195.406z"/>
	<path d="M177.365,192.441v3.543c0,1.34,0.596,1.908,1.395,1.908c0.89,0,1.457-0.586,1.457-1.908v-3.543h0.781v3.49
		c0,1.838-0.97,2.592-2.267,2.592c-1.225,0-2.147-0.701-2.147-2.557v-3.525H177.365z"/>
	<path d="M183.009,196.543l-0.621,1.883h-0.8l2.033-5.984h0.933l2.043,5.984h-0.826l-0.64-1.883H183.009z M184.972,195.939
		l-0.587-1.723c-0.133-0.393-0.222-0.746-0.311-1.092h-0.019c-0.089,0.354-0.187,0.719-0.303,1.082l-0.586,1.732H184.972
		L184.972,195.939z"/>
	<polygon points="187.479,192.441 188.252,192.441 188.252,197.777 190.812,197.777 190.812,198.426 187.479,198.426 	"/>
	<rect x="191.674" y="192.441" width="0.772" height="5.984"/>
	<polygon points="194.937,193.098 193.115,193.098 193.115,192.441 197.546,192.441 197.546,193.098 195.717,193.098 
		195.717,198.426 194.937,198.426 	"/>
	<path d="M198.517,196.543l-0.621,1.883h-0.799l2.032-5.984h0.933l2.043,5.984h-0.826l-0.639-1.883H198.517z M198.365,191.588
		c0-0.248,0.187-0.443,0.444-0.443c0.238,0,0.416,0.195,0.416,0.443s-0.168,0.453-0.426,0.453S198.365,191.836,198.365,191.588z
		 M200.479,195.939l-0.586-1.723c-0.134-0.393-0.223-0.746-0.312-1.092h-0.019c-0.088,0.354-0.187,0.719-0.303,1.082l-0.586,1.732
		H200.479L200.479,195.939z M200.019,191.588c0-0.248,0.186-0.443,0.436-0.443c0.248,0,0.426,0.195,0.426,0.443
		s-0.169,0.453-0.436,0.453C200.187,192.041,200.019,191.836,200.019,191.588z"/>
	<polygon points="203.438,193.098 201.619,193.098 201.619,192.441 206.051,192.441 206.051,193.098 204.222,193.098 
		204.222,198.426 203.438,198.426 	"/>
	<g>
		<defs>
			<polyline id="SVGID_3_" points="56,157.84 10,157.84 10,209.84 56,209.84 56,157.84 			"/>
		</defs>
		<clipPath id="SVGID_4_">
			<use xlink:href="#SVGID_3_"  overflow="visible"/>
		</clipPath>
		<g clip-path="url(#SVGID_4_)">
			<g>
				<circle fill="#FFA000" cx="33.001" cy="166.19" r="6.769"/>
				<path fill="#FFDBC5" d="M17.245,217.325v-7.15c0-7.5,6.081-13.581,13.582-13.581h5.004c7.5,0,13.581,6.081,13.581,13.581v7.15
					H17.245"/>
				<path fill="#62C1C3" d="M17.245,217.325v-7.15c0-6.144,4.08-11.334,9.678-13.012l6.168,6.104l6.489-6.149
					c5.678,1.627,9.833,6.858,9.833,13.058v7.15H17.245"/>
				<path fill="#FFDBC5" d="M17.063,181.471c0,8.984,8.427,16.266,16.263,16.266c7.837,0,16.264-7.281,16.264-16.266
					c0-8.98-7.281-16.262-16.264-16.262C24.345,165.209,17.063,172.49,17.063,181.471"/>
				<path fill="#FFDBC5" d="M17.063,181.471c0,8.984,8.427,16.266,16.263,16.266c7.837,0,16.264-7.281,16.264-16.266
					c0-8.98-7.281-16.262-16.264-16.262C24.345,165.209,17.063,172.49,17.063,181.471"/>
				<path fill="#FFC5A4" d="M33.344,197.736c-0.001,0-0.003,0-0.004,0C33.342,197.736,33.343,197.736,33.344,197.736
					 M33.309,197.736c0.002,0,0.003,0,0.004,0C33.312,197.736,33.311,197.736,33.309,197.736 M33.295,197.736
					c0.002,0,0.002,0,0.004,0C33.298,197.736,33.297,197.736,33.295,197.736 M33.358,197.736c-0.001,0-0.002,0-0.004,0
					C33.356,197.736,33.356,197.736,33.358,197.736 M33.282,197.736c0.001,0,0.002,0,0.003,0
					C33.285,197.736,33.283,197.736,33.282,197.736 M33.372,197.736c-0.001,0-0.002,0-0.004,0
					C33.37,197.736,33.371,197.736,33.372,197.736 M33.268,197.736L33.268,197.736L33.268,197.736 M33.387,197.736
					c0,0-0.002,0-0.002,0C33.385,197.736,33.387,197.736,33.387,197.736 M33.25,197.736c0.002,0,0.002,0,0.004,0
					C33.253,197.736,33.253,197.736,33.25,197.736 M33.403,197.736c-0.001,0-0.002,0-0.004,0
					C33.4,197.736,33.402,197.736,33.403,197.736 M33.237,197.736c0.002,0,0.002,0,0.003,0
					C33.239,197.736,33.238,197.736,33.237,197.736 M33.416,197.736c0,0-0.001,0-0.003,0
					C33.415,197.736,33.416,197.736,33.416,197.736 M33.208,197.735C33.208,197.735,33.209,197.735,33.208,197.735
					C33.208,197.735,33.208,197.735,33.208,197.735 M33.446,197.735c0,0-0.001,0-0.002,0
					C33.444,197.735,33.445,197.735,33.446,197.735 M33.193,197.735c0,0,0.001,0,0.001,0
					C33.194,197.735,33.193,197.735,33.193,197.735 M33.461,197.735c0,0-0.002,0-0.002,0
					C33.459,197.735,33.46,197.735,33.461,197.735 M33.489,197.735L33.489,197.735L33.489,197.735 M33.149,197.733
					c0,0.002,0,0.002,0.001,0.002C33.149,197.735,33.149,197.735,33.149,197.733 M33.505,197.733c0,0-0.001,0.002-0.002,0.002
					C33.503,197.735,33.503,197.735,33.505,197.733"/>
				<path fill="#FFC5A4" d="M19.88,190.188c3.094,4.482,8.285,7.476,13.269,7.545c0,0.002,0,0.002,0.001,0.002
					c0.015,0,0.029,0,0.043,0c0,0,0.001,0,0.001,0c0.004,0,0.009,0,0.013,0c0,0,0,0,0.001,0c0.009,0.001,0.019,0.001,0.028,0.001
					c0.001,0,0.002,0,0.003,0c0.003,0,0.007,0,0.011,0c0.002,0,0.002,0,0.004,0c0.003,0,0.008,0,0.013,0l0,0c0.005,0,0.01,0,0.014,0
					c0.001,0,0.003,0,0.003,0c0.003,0,0.007,0,0.011,0c0.001,0,0.002,0,0.004,0c0.003,0,0.006,0,0.009,0c0.002,0,0.003,0,0.004,0
					c0.005,0,0.009,0,0.013,0c0.005,0,0.01,0,0.014,0c0.001,0,0.003,0,0.004,0c0.003,0,0.006,0,0.01,0c0.002,0,0.002,0,0.004,0
					c0.003,0,0.007,0,0.01,0c0.001,0,0.002,0,0.004,0c0.004,0,0.008,0,0.013,0c0,0,0.002,0,0.002,0c0.004,0,0.008,0,0.012,0
					c0.001,0,0.002,0,0.004,0c0.003,0,0.006,0,0.01,0c0.001,0,0.002,0,0.003,0c0.01,0,0.019,0,0.028-0.001c0,0,0.001,0,0.002,0
					c0.004,0,0.009,0,0.013,0c0,0,0.001,0,0.002,0c0.01,0,0.019,0,0.028,0l0,0c0.005,0,0.009,0,0.014,0c0,0,0.001-0.002,0.002-0.002
					c4.984-0.069,10.174-3.062,13.268-7.545c-3.811,3.457-8.713,5.582-13.447,5.582C28.594,195.771,23.691,193.646,19.88,190.188"/>
				<circle fill="#302824" cx="39.225" cy="183.487" r="1.139"/>
				<circle fill="#302824" cx="27.429" cy="183.487" r="1.139"/>
				<ellipse fill="#FFB0B0" cx="39.092" cy="187.315" rx="2.25" ry="1.405"/>
				<ellipse fill="#FFB0B0" cx="27.563" cy="187.315" rx="2.25" ry="1.405"/>
				<path fill="#FF6760" d="M29.787,191.668c0.832,1.244,2.192,1.866,3.54,1.862c1.348,0.004,2.708-0.618,3.54-1.862
					c0.11-0.164,0.066-0.387-0.098-0.496c-0.165-0.111-0.387-0.065-0.497,0.098c-0.689,1.031-1.811,1.547-2.945,1.547
					c-1.135,0-2.256-0.516-2.945-1.547c-0.109-0.163-0.332-0.209-0.496-0.098C29.722,191.281,29.678,191.504,29.787,191.668z"/>
				<path fill="#FFFFFF" d="M39.814,196.76c0,0,1.795,2.762,0.178,6.569c-1.542,3.629-6.068,3.306-6.902-0.062L39.814,196.76z"/>
				<path fill="#FFFFFF" d="M26.839,196.76c0,0-1.795,2.762-0.178,6.569c1.542,3.629,5.596,3.306,6.429-0.062L26.839,196.76z"/>
				<path fill="#FFB300" d="M42.659,171.619c0,0,4.834,5.522,4.9,11.538c0.066,6.068-1.959,10.016-1.959,10.016
					s3.217-2.654,4.014-9.437c0,0,2.241-13.663-8.515-18.527c-10.753-4.866-18.384,0.154-22.221,6.396
					c-3.838,6.241-2.718,10.931-1.759,14.742c0.958,3.812,3.341,6.553,3.341,6.553c-0.596-2.382-2.978-5.48-1.067-13.773
					C20.931,178.615,37.666,174.692,42.659,171.619z"/>
				<path fill="#FFFFFF" d="M22.523,178.548c0.419,0.419,1.097,0.419,1.515,0c0.42-0.419,0.42-1.097,0-1.517l-2.779-2.779
					c-0.419-0.419-1.098-0.419-1.517,0c-0.419,0.418-0.418,1.098,0,1.517L22.523,178.548z"/>
			</g>
			<ellipse fill="#FFFFFF" cx="27.052" cy="183.19" rx="0.342" ry="0.327"/>
			<path d="M26.709,183.19h-0.006c0,0.185,0.155,0.333,0.349,0.334c0.193-0.001,0.349-0.149,0.349-0.334
				c0-0.186-0.156-0.334-0.349-0.334s-0.349,0.148-0.349,0.334H26.709h0.007c0-0.177,0.149-0.32,0.335-0.32
				c0.187,0,0.335,0.144,0.336,0.32c0,0.178-0.149,0.32-0.336,0.32c-0.186,0-0.335-0.143-0.335-0.32H26.709z"/>
			<ellipse fill="#FFFFFF" cx="38.781" cy="183.19" rx="0.343" ry="0.327"/>
			<path d="M38.438,183.19h-0.006c0,0.185,0.157,0.333,0.35,0.334c0.193-0.001,0.348-0.149,0.348-0.334
				c0-0.186-0.155-0.334-0.348-0.334s-0.35,0.148-0.35,0.334H38.438h0.007c0-0.177,0.149-0.32,0.336-0.32
				c0.186,0,0.335,0.144,0.335,0.32c0,0.178-0.15,0.32-0.335,0.32c-0.187,0-0.336-0.143-0.336-0.32H38.438z"/>
		</g>
	</g>
</g>
</svg>
