<?xml version="1.0" encoding="utf-8"?>
<!-- Generator: Adobe Illustrator 16.0.0, SVG Export Plug-In . SVG Version: 6.00 Build 0)  -->
<!DOCTYPE svg PUBLIC "-//W3C//DTD SVG 1.0//EN" "http://www.w3.org/TR/2001/REC-SVG-20010904/DTD/svg10.dtd">
<svg version="1.0" id="Ebene_1" xmlns="http://www.w3.org/2000/svg" xmlns:xlink="http://www.w3.org/1999/xlink" x="0px" y="0px"
	 width="80.492px" height="80.492px" viewBox="0 0 80.492 80.492" enable-background="new 0 0 80.492 80.492" xml:space="preserve">
<g id="background">
</g>
<g id="ò_x2021__xF8FF__x5F_3">
	<g>
		<path fill="#DBF3FB" d="M80.492,40.246c0,22.227-18.02,40.246-40.246,40.246C18.019,80.492,0,62.473,0,40.246
			C0,18.018,18.019,0,40.246,0C62.473,0,80.492,18.018,80.492,40.246"/>
		<path fill="#697478" d="M62.593,23.304H17.882c-1.657,0-3,1.342-3,2.999v29.887c0,1.656,1.343,3,3,3h44.711c1.657,0,3-1.344,3-3
			V26.303C65.593,24.646,64.25,23.304,62.593,23.304"/>
		<path fill="#AAA9A7" d="M65.593,54.189c0,1.655-1.343,3-3,3H17.882c-1.657,0-3-1.345-3-3V24.303c0-1.657,1.343-3,3-3h44.711
			c1.657,0,3,1.343,3,3V54.189z"/>
		<path fill="#848484" d="M62.593,21.303H17.882c-1.657,0-3,1.484-3,3.315v-0.167l21.17,16.501c2.268,1.259,5.87,1.278,8.125,0.039
			L65.593,24.48v0.139C65.593,22.788,64.25,21.303,62.593,21.303z"/>
		<polygon fill="#848484" points="34.465,37.186 14.882,54.986 36.083,38.804 		"/>
		<polygon fill="#848484" points="46.025,37.186 65.609,54.986 44.408,38.804 		"/>
		<path fill="#EDEDED" d="M62.593,21.303H17.882c-1.657,0-3,1.343-3,3v0.148l21.17,15.05c2.268,1.14,5.87,1.157,8.125,0.036
			L65.593,24.48v-0.177C65.593,22.646,64.25,21.303,62.593,21.303z"/>
	</g>
</g>
<g id="camera">
</g>
</svg>
