<?xml version="1.0" encoding="utf-8"?>
<!-- Generator: Adobe Illustrator 16.0.0, SVG Export Plug-In . SVG Version: 6.00 Build 0)  -->
<!DOCTYPE svg PUBLIC "-//W3C//DTD SVG 1.0//EN" "http://www.w3.org/TR/2001/REC-SVG-20010904/DTD/svg10.dtd">
<svg version="1.0" xmlns="http://www.w3.org/2000/svg" xmlns:xlink="http://www.w3.org/1999/xlink" x="0px" y="0px"
	 width="80.492px" height="80.492px" viewBox="0 0 80.492 80.492" enable-background="new 0 0 80.492 80.492" xml:space="preserve">
<g id="background">
</g>
<g id="ò_x2021__xF8FF__x5F_3">
	<circle fill="#DBF3FB" cx="40.246" cy="40.246" r="40.246"/>
	<g>
		<g>
			<path fill="#7C6655" d="M35.007,30.722c-0.493,0-0.894-0.4-0.894-0.893v-2.062c0-0.493,0.4-0.893,0.894-0.893
				s0.893,0.4,0.893,0.893v2.062C35.899,30.322,35.5,30.722,35.007,30.722z"/>
			<path fill="#7C6655" d="M45.485,30.722c-0.494,0-0.893-0.4-0.893-0.893v-2.062c0-0.493,0.398-0.893,0.893-0.893
				c0.493,0,0.893,0.4,0.893,0.893v2.062C46.378,30.322,45.979,30.722,45.485,30.722z"/>
			<path fill="#E77200" d="M61.728,24.307l3.104,7.447l-13.619-2.848l-0.081,0.015l-0.45-2.665c-2.965-0.818-6.7-1.228-10.435-1.228
				c-3.735,0-7.471,0.409-10.435,1.228l-0.45,2.665l-0.082-0.015l-13.618,2.848l3.103-7.448l3.73-0.968
				c10.74-2.784,24.762-2.784,35.503,0L61.728,24.307z"/>
			<polygon fill="#C65C05" points="64.831,31.755 63.589,35.229 51.799,32.871 51.131,28.921 51.212,28.907 			"/>
			<path fill="#88C9B3" d="M56.305,36.854l4.131,18.609h-7.594H31.344h-3.422h-7.865l4.131-18.609l6.685-1.429l0.86-5.597H48.76
				l0.859,5.597L56.305,36.854z M48.938,43.288c0-4.8-3.893-8.692-8.692-8.692c-4.802,0-8.692,3.892-8.692,8.692
				c0,4.801,3.891,8.693,8.692,8.693C45.046,51.981,48.938,48.089,48.938,43.288z"/>
			<polygon fill="#C65C05" points="29.361,28.921 28.693,32.871 16.902,35.229 15.661,31.755 29.279,28.907 			"/>
			<polygon fill="#51B7A6" points="52.842,55.464 31.344,55.464 27.922,55.464 20.057,55.464 20.057,59.241 25.739,59.241 
				29.158,59.241 50.658,59.241 60.436,59.241 60.436,55.464 			"/>
		</g>
		<circle fill="#88C9B3" cx="40.246" cy="43.375" r="10.251"/>
		<g>
			<g>
				<path fill="#635044" d="M37.941,42.461c0,0.089-0.071,0.161-0.16,0.161h-2.754c-0.089,0-0.16-0.072-0.16-0.161v-2.752
					c0-0.089,0.071-0.162,0.16-0.162h2.754c0.089,0,0.16,0.072,0.16,0.162V42.461z"/>
				<path fill="#635044" d="M41.782,42.461c0,0.089-0.071,0.161-0.159,0.161h-2.754c-0.09,0-0.162-0.072-0.162-0.161v-2.752
					c0-0.089,0.072-0.162,0.162-0.162h2.754c0.088,0,0.159,0.072,0.159,0.162V42.461z"/>
				<path fill="#635044" d="M45.625,42.461c0,0.089-0.072,0.161-0.16,0.161h-2.754c-0.09,0-0.161-0.072-0.161-0.161v-2.752
					c0-0.089,0.071-0.162,0.161-0.162h2.754c0.088,0,0.16,0.072,0.16,0.162V42.461z"/>
			</g>
			<g>
				<path fill="#635044" d="M37.941,46.304c0,0.089-0.071,0.161-0.16,0.161h-2.754c-0.089,0-0.16-0.072-0.16-0.161v-2.753
					c0-0.089,0.071-0.162,0.16-0.162h2.754c0.089,0,0.16,0.073,0.16,0.162V46.304z"/>
				<path fill="#635044" d="M41.782,46.304c0,0.089-0.071,0.161-0.159,0.161h-2.754c-0.09,0-0.162-0.072-0.162-0.161v-2.753
					c0-0.089,0.072-0.162,0.162-0.162h2.754c0.088,0,0.159,0.073,0.159,0.162V46.304z"/>
				<path fill="#635044" d="M45.625,46.304c0,0.089-0.072,0.161-0.16,0.161h-2.754c-0.09,0-0.161-0.072-0.161-0.161v-2.753
					c0-0.089,0.071-0.162,0.161-0.162h2.754c0.088,0,0.16,0.073,0.16,0.162V46.304z"/>
			</g>
			<g>
				<path fill="#635044" d="M37.941,50.146c0,0.089-0.071,0.161-0.16,0.161h-2.754c-0.089,0-0.16-0.072-0.16-0.161v-2.752
					c0-0.089,0.071-0.161,0.16-0.161h2.754c0.089,0,0.16,0.072,0.16,0.161V50.146z"/>
				<path fill="#635044" d="M41.782,50.146c0,0.089-0.071,0.161-0.159,0.161h-2.754c-0.09,0-0.162-0.072-0.162-0.161v-2.752
					c0-0.089,0.072-0.161,0.162-0.161h2.754c0.088,0,0.159,0.072,0.159,0.161V50.146z"/>
				<path fill="#635044" d="M45.625,50.146c0,0.089-0.072,0.161-0.16,0.161h-2.754c-0.09,0-0.161-0.072-0.161-0.161v-2.752
					c0-0.089,0.071-0.161,0.161-0.161h2.754c0.088,0,0.16,0.072,0.16,0.161V50.146z"/>
			</g>
		</g>
		<g>
			<g>
				<path fill="#7C6655" d="M37.941,42.097c0,0.089-0.071,0.161-0.16,0.161h-2.754c-0.089,0-0.16-0.072-0.16-0.161v-2.752
					c0-0.089,0.071-0.162,0.16-0.162h2.754c0.089,0,0.16,0.072,0.16,0.162V42.097z"/>
				<path fill="#7C6655" d="M41.782,42.097c0,0.089-0.071,0.161-0.159,0.161h-2.754c-0.09,0-0.162-0.072-0.162-0.161v-2.752
					c0-0.089,0.072-0.162,0.162-0.162h2.754c0.088,0,0.159,0.072,0.159,0.162V42.097z"/>
				<path fill="#7C6655" d="M45.625,42.097c0,0.089-0.072,0.161-0.16,0.161h-2.754c-0.09,0-0.161-0.072-0.161-0.161v-2.752
					c0-0.089,0.071-0.162,0.161-0.162h2.754c0.088,0,0.16,0.072,0.16,0.162V42.097z"/>
			</g>
			<g>
				<path fill="#7C6655" d="M37.941,45.939c0,0.089-0.071,0.161-0.16,0.161h-2.754c-0.089,0-0.16-0.072-0.16-0.161v-2.753
					c0-0.089,0.071-0.162,0.16-0.162h2.754c0.089,0,0.16,0.073,0.16,0.162V45.939z"/>
				<path fill="#7C6655" d="M41.782,45.939c0,0.089-0.071,0.161-0.159,0.161h-2.754c-0.09,0-0.162-0.072-0.162-0.161v-2.753
					c0-0.089,0.072-0.162,0.162-0.162h2.754c0.088,0,0.159,0.073,0.159,0.162V45.939z"/>
				<path fill="#7C6655" d="M45.625,45.939c0,0.089-0.072,0.161-0.16,0.161h-2.754c-0.09,0-0.161-0.072-0.161-0.161v-2.753
					c0-0.089,0.071-0.162,0.161-0.162h2.754c0.088,0,0.16,0.073,0.16,0.162V45.939z"/>
			</g>
			<g>
				<path fill="#7C6655" d="M37.941,49.781c0,0.089-0.071,0.161-0.16,0.161h-2.754c-0.089,0-0.16-0.072-0.16-0.161v-2.752
					c0-0.089,0.071-0.161,0.16-0.161h2.754c0.089,0,0.16,0.072,0.16,0.161V49.781z"/>
				<path fill="#7C6655" d="M41.782,49.781c0,0.089-0.071,0.161-0.159,0.161h-2.754c-0.09,0-0.162-0.072-0.162-0.161v-2.752
					c0-0.089,0.072-0.161,0.162-0.161h2.754c0.088,0,0.159,0.072,0.159,0.161V49.781z"/>
				<path fill="#7C6655" d="M45.625,49.781c0,0.089-0.072,0.161-0.16,0.161h-2.754c-0.09,0-0.161-0.072-0.161-0.161v-2.752
					c0-0.089,0.071-0.161,0.161-0.161h2.754c0.088,0,0.16,0.072,0.16,0.161V49.781z"/>
			</g>
		</g>
	</g>
</g>
<g id="camera">
</g>
</svg>
