<?xml version="1.0" encoding="utf-8"?>
<!-- Generator: Adobe Illustrator 16.0.0, SVG Export Plug-In . SVG Version: 6.00 Build 0)  -->
<!DOCTYPE svg PUBLIC "-//W3C//DTD SVG 1.0//EN" "http://www.w3.org/TR/2001/REC-SVG-20010904/DTD/svg10.dtd">
<svg version="1.0" id="Ebene_1" xmlns="http://www.w3.org/2000/svg" xmlns:xlink="http://www.w3.org/1999/xlink" x="0px" y="0px"
	 width="80.492px" height="80.492px" viewBox="0 0 80.492 80.492" enable-background="new 0 0 80.492 80.492" xml:space="preserve">
<g id="background">
</g>
<g id="ò_x2021__xF8FF__x5F_3">
	<g>
		<path fill="#DBF3FB" d="M80.492,40.246c0,22.227-18.02,40.246-40.246,40.246C18.018,80.492,0,62.473,0,40.246
			C0,18.018,18.018,0,40.246,0C62.473,0,80.492,18.018,80.492,40.246"/>
		<path fill="#697478" d="M38.139,46.658c-0.867,0-1.475-0.277-1.83-0.827c-0.354-0.551-0.531-1.261-0.531-2.125
			c0-0.841,0.129-1.699,0.395-2.579c0.262-0.879,0.635-1.672,1.121-2.382c0.484-0.709,1.062-1.285,1.732-1.729
			c0.668-0.448,1.396-0.671,2.184-0.671c0.552,0,1.011,0.078,1.377,0.236c0.367,0.157,0.722,0.379,1.063,0.67l-0.983,5.433
			c-0.289,0.523-0.617,1.021-0.983,1.494c-0.369,0.473-0.748,0.893-1.144,1.26c-0.393,0.369-0.799,0.664-1.219,0.886
			C38.902,46.547,38.504,46.658,38.139,46.658 M41.209,23.512c-2.545,0-4.959,0.441-7.244,1.318
			c-2.281,0.882-4.289,2.134-6.021,3.761c-1.73,1.627-3.109,3.596-4.133,5.904c-1.023,2.309-1.535,4.896-1.535,7.756
			c0,2.808,0.445,5.282,1.338,7.421c0.893,2.137,2.133,3.928,3.719,5.372c1.588,1.442,3.465,2.533,5.631,3.269
			c2.164,0.732,4.52,1.103,7.064,1.103c1.445,0,2.725-0.108,3.84-0.317c1.114-0.209,2.211-0.576,3.284-1.102l-1.219-3.779
			c-0.787,0.368-1.668,0.645-2.637,0.828c-0.973,0.182-1.838,0.273-2.6,0.273c-2.258,0-4.258-0.31-6.002-0.926
			c-1.746-0.615-3.209-1.494-4.389-2.637c-1.182-1.141-2.08-2.523-2.699-4.154c-0.613-1.625-0.924-3.463-0.924-5.509
			c0-2.073,0.369-3.996,1.102-5.768c0.736-1.771,1.754-3.299,3.051-4.585c1.299-1.286,2.828-2.294,4.588-3.032
			c1.756-0.734,3.66-1.102,5.707-1.102c1.785,0,3.451,0.211,4.998,0.632c1.549,0.419,2.895,1.081,4.037,1.987
			c1.141,0.904,2.039,2.053,2.695,3.443c0.654,1.391,0.984,3.071,0.984,5.039c0,1.365-0.164,2.546-0.492,3.544
			c-0.328,0.996-0.756,1.823-1.279,2.479c-0.525,0.656-1.115,1.141-1.77,1.455c-0.656,0.316-1.328,0.474-2.011,0.474
			s-1.121-0.276-1.317-0.825c-0.195-0.552-0.189-1.445,0.021-2.679l1.89-10.668h-2.759l-1.219,1.26
			c-0.525-0.446-1.104-0.806-1.732-1.083c-0.629-0.274-1.401-0.414-2.321-0.414c-1.338,0-2.604,0.362-3.797,1.083
			c-1.195,0.723-2.246,1.672-3.152,2.854c-0.904,1.18-1.619,2.539-2.145,4.074c-0.523,1.535-0.787,3.115-0.787,4.743
			c0,0.867,0.123,1.654,0.375,2.362c0.248,0.708,0.582,1.313,1.002,1.812c0.422,0.497,0.92,0.885,1.496,1.16
			c0.578,0.276,1.182,0.413,1.811,0.413c0.789,0,1.51-0.118,2.168-0.354c0.654-0.234,1.258-0.556,1.809-0.963
			c0.553-0.408,1.057-0.873,1.516-1.398c0.459-0.525,0.888-1.064,1.279-1.614h0.156c-0.078,0.813-0.027,1.495,0.156,2.045
			c0.186,0.552,0.469,0.998,0.85,1.339c0.379,0.342,0.85,0.584,1.416,0.729c0.564,0.146,1.174,0.215,1.83,0.215
			c1.574,0,3.053-0.315,4.43-0.944c1.377-0.628,2.584-1.48,3.621-2.558c1.037-1.076,1.85-2.349,2.439-3.817
			c0.59-1.47,0.887-3.044,0.887-4.725c0-2.387-0.436-4.52-1.301-6.397c-0.865-1.875-2.059-3.465-3.582-4.763
			c-1.521-1.298-3.32-2.295-5.393-2.991C45.866,23.858,43.623,23.512,41.209,23.512"/>
		<path fill="#AAA9A7" d="M56.914,31.093c-0.865-1.875-2.059-3.465-3.582-4.764c-1.521-1.298-3.32-2.295-5.393-2.991
			c-2.072-0.695-4.316-1.043-6.73-1.043c-2.545,0-4.959,0.441-7.244,1.317c-2.281,0.882-4.289,2.134-6.021,3.761
			c-1.73,1.628-3.109,3.596-4.133,5.905c-1.023,2.309-1.535,4.896-1.535,7.756c0,2.808,0.445,5.28,1.338,7.42
			c0.893,2.137,2.133,3.928,3.719,5.372c1.588,1.443,3.465,2.531,5.631,3.268c2.164,0.733,4.52,1.102,7.064,1.102
			c1.445,0,2.725-0.106,3.84-0.316c1.114-0.209,2.211-0.574,3.284-1.102l-1.219-3.779c-0.787,0.368-1.668,0.645-2.637,0.828
			c-0.973,0.183-1.838,0.275-2.6,0.275c-2.258,0-4.258-0.311-6.002-0.927c-1.746-0.616-3.209-1.495-4.389-2.637
			c-1.182-1.142-2.08-2.524-2.699-4.154c-0.613-1.626-0.924-3.463-0.924-5.51c0-2.073,0.369-3.996,1.102-5.767
			c0.736-1.771,1.754-3.3,3.051-4.586c1.299-1.286,2.828-2.295,4.588-3.032c1.756-0.733,3.66-1.101,5.707-1.101
			c1.785,0,3.451,0.21,4.998,0.631c1.549,0.419,2.895,1.082,4.037,1.987c1.141,0.905,2.039,2.053,2.695,3.443
			c0.654,1.391,0.984,3.071,0.984,5.039c0,1.365-0.164,2.546-0.492,3.544c-0.328,0.995-0.756,1.823-1.279,2.479
			c-0.525,0.658-1.115,1.142-1.77,1.457c-0.656,0.315-1.328,0.474-2.011,0.474s-1.121-0.276-1.317-0.826
			c-0.195-0.553-0.189-1.445,0.021-2.678l1.89-10.668h-2.759L44.91,32.53c-0.525-0.447-1.104-0.807-1.732-1.083
			c-0.629-0.274-1.402-0.413-2.322-0.413c-1.337,0-2.604,0.361-3.796,1.082c-1.195,0.723-2.246,1.673-3.152,2.854
			c-0.904,1.18-1.619,2.539-2.145,4.074c-0.523,1.535-0.787,3.116-0.787,4.743c0,0.867,0.123,1.652,0.375,2.361
			c0.248,0.709,0.582,1.313,1.002,1.812c0.422,0.498,0.92,0.884,1.496,1.16c0.578,0.275,1.182,0.414,1.811,0.414
			c0.789,0,1.51-0.118,2.168-0.354c0.654-0.236,1.258-0.557,1.809-0.965c0.553-0.406,1.057-0.872,1.516-1.396
			c0.459-0.525,0.887-1.064,1.279-1.613h0.155c-0.078,0.812-0.026,1.494,0.156,2.045c0.187,0.553,0.469,0.998,0.85,1.339
			c0.38,0.343,0.851,0.584,1.416,0.729c0.564,0.144,1.175,0.215,1.83,0.215c1.574,0,3.054-0.315,4.431-0.945
			c1.377-0.629,2.584-1.482,3.621-2.559c1.036-1.075,1.85-2.348,2.438-3.816c0.59-1.47,0.887-3.044,0.887-4.725
			C58.215,35.102,57.779,32.97,56.914,31.093z M42.666,41.465c-0.289,0.524-0.617,1.023-0.984,1.495
			c-0.369,0.472-0.748,0.894-1.143,1.259c-0.393,0.369-0.799,0.664-1.219,0.887c-0.418,0.224-0.816,0.334-1.182,0.334
			c-0.867,0-1.475-0.276-1.83-0.826c-0.354-0.551-0.531-1.26-0.531-2.125c0-0.842,0.129-1.699,0.395-2.58
			c0.262-0.878,0.635-1.672,1.121-2.381c0.484-0.709,1.062-1.285,1.732-1.73c0.668-0.447,1.396-0.67,2.184-0.67
			c0.551,0,1.01,0.078,1.377,0.235c0.367,0.157,0.721,0.38,1.064,0.67L42.666,41.465z"/>
	</g>
</g>
<g id="camera">
</g>
</svg>
