<?xml version="1.0" encoding="utf-8"?>
<!-- Generator: Adobe Illustrator 16.0.0, SVG Export Plug-In . SVG Version: 6.00 Build 0)  -->
<!DOCTYPE svg PUBLIC "-//W3C//DTD SVG 1.0//EN" "http://www.w3.org/TR/2001/REC-SVG-20010904/DTD/svg10.dtd">
<svg version="1.0" id="Ebene_1" xmlns="http://www.w3.org/2000/svg" xmlns:xlink="http://www.w3.org/1999/xlink" x="0px" y="0px"
	 width="254.248px" height="58px" viewBox="7 154.84 254.248 58" enable-background="new 7 154.84 254.248 58" xml:space="preserve"
	>
<polyline fill="#FFFFFF" points="59,212.84 7,212.84 7,154.84 59,154.84 59,212.84 "/>
<polyline fill="#DAF2FB" points="56,157.84 10,157.84 10,209.84 56,209.84 56,157.84 "/>
<g>
	<g>
		<defs>
			<polyline id="SVGID_1_" points="56,157.84 10,157.84 10,209.84 56,209.84 56,157.84 			"/>
		</defs>
		<clipPath id="SVGID_2_">
			<use xlink:href="#SVGID_1_"  overflow="visible"/>
		</clipPath>
		<g clip-path="url(#SVGID_2_)">
			<g>
				<circle fill="#FFA000" cx="33.001" cy="166.19" r="6.769"/>
				<path fill="#FFDBC5" d="M17.245,217.325v-7.15c0-7.5,6.081-13.581,13.582-13.581h5.004c7.5,0,13.581,6.081,13.581,13.581v7.15
					H17.245"/>
				<path fill="#62C1C3" d="M17.245,217.325v-7.15c0-6.144,4.08-11.334,9.678-13.012l6.168,6.104l6.489-6.149
					c5.678,1.627,9.833,6.858,9.833,13.058v7.15L17.245,217.325"/>
				<path fill="#FFDBC5" d="M17.063,181.471c0,8.984,8.427,16.266,16.263,16.266c7.837,0,16.264-7.28,16.264-16.266
					c0-8.979-7.281-16.262-16.264-16.262C24.345,165.209,17.063,172.49,17.063,181.471"/>
				<path fill="#FFDBC5" d="M17.063,181.471c0,8.984,8.427,16.266,16.263,16.266c7.837,0,16.264-7.28,16.264-16.266
					c0-8.979-7.281-16.262-16.264-16.262C24.345,165.209,17.063,172.49,17.063,181.471"/>
				<path fill="#FFC5A4" d="M33.344,197.736c-0.001,0-0.003,0-0.004,0C33.342,197.736,33.343,197.736,33.344,197.736
					 M33.309,197.736c0.002,0,0.003,0,0.004,0C33.312,197.736,33.311,197.736,33.309,197.736 M33.295,197.736
					c0.002,0,0.002,0,0.004,0C33.298,197.736,33.297,197.736,33.295,197.736 M33.358,197.736c-0.001,0-0.002,0-0.004,0
					C33.356,197.736,33.356,197.736,33.358,197.736 M33.282,197.736c0.001,0,0.002,0,0.003,0
					C33.285,197.736,33.283,197.736,33.282,197.736 M33.372,197.736c-0.001,0-0.002,0-0.004,0
					C33.37,197.736,33.371,197.736,33.372,197.736 M33.268,197.736L33.268,197.736L33.268,197.736 M33.387,197.736h-0.002H33.387
					 M33.25,197.736c0.002,0,0.002,0,0.004,0C33.253,197.736,33.253,197.736,33.25,197.736 M33.403,197.736
					c-0.001,0-0.002,0-0.004,0C33.4,197.736,33.402,197.736,33.403,197.736 M33.237,197.736c0.002,0,0.002,0,0.003,0
					C33.239,197.736,33.238,197.736,33.237,197.736 M33.416,197.736c0,0-0.001,0-0.003,0
					C33.415,197.736,33.416,197.736,33.416,197.736 M33.208,197.734C33.208,197.734,33.209,197.734,33.208,197.734L33.208,197.734
					 M33.446,197.734c0,0-0.001,0-0.002,0C33.444,197.734,33.445,197.734,33.446,197.734 M33.193,197.734L33.193,197.734
					L33.193,197.734 M33.461,197.734h-0.002C33.459,197.734,33.46,197.734,33.461,197.734 M33.489,197.734L33.489,197.734
					L33.489,197.734 M33.149,197.732c0,0.002,0,0.002,0.001,0.002C33.149,197.734,33.149,197.734,33.149,197.732 M33.505,197.732
					c0,0-0.001,0.002-0.002,0.002C33.503,197.734,33.503,197.734,33.505,197.732"/>
				<path fill="#FFC5A4" d="M19.88,190.188c3.094,4.482,8.285,7.477,13.269,7.545c0,0.002,0,0.002,0.001,0.002
					c0.015,0,0.029,0,0.043,0h0.001c0.004,0,0.009,0,0.013,0c0,0,0,0,0.001,0c0.009,0.002,0.019,0.002,0.028,0.002
					c0.001,0,0.002,0,0.003,0c0.003,0,0.007,0,0.011,0c0.002,0,0.002,0,0.004,0c0.003,0,0.008,0,0.013,0l0,0c0.005,0,0.01,0,0.014,0
					c0.001,0,0.003,0,0.003,0c0.003,0,0.007,0,0.011,0c0.001,0,0.002,0,0.004,0c0.003,0,0.006,0,0.009,0c0.002,0,0.003,0,0.004,0
					c0.005,0,0.009,0,0.013,0c0.005,0,0.01,0,0.014,0c0.001,0,0.003,0,0.004,0c0.003,0,0.006,0,0.01,0c0.002,0,0.002,0,0.004,0
					c0.003,0,0.007,0,0.01,0c0.001,0,0.002,0,0.004,0c0.004,0,0.008,0,0.013,0h0.002c0.004,0,0.008,0,0.012,0
					c0.001,0,0.002,0,0.004,0c0.003,0,0.006,0,0.01,0c0.001,0,0.002,0,0.003,0c0.01,0,0.019,0,0.028-0.002c0,0,0.001,0,0.002,0
					c0.004,0,0.009,0,0.013,0c0,0,0.001,0,0.002,0c0.01,0,0.019,0,0.028,0l0,0c0.005,0,0.009,0,0.014,0c0,0,0.001-0.002,0.002-0.002
					c4.984-0.068,10.174-3.062,13.268-7.545c-3.811,3.457-8.713,5.582-13.447,5.582C28.594,195.771,23.691,193.646,19.88,190.188"/>
				<circle fill="#302824" cx="39.225" cy="183.487" r="1.139"/>
				<circle fill="#302824" cx="27.429" cy="183.487" r="1.139"/>
				<ellipse fill="#FFB0B0" cx="39.092" cy="187.315" rx="2.25" ry="1.405"/>
				<ellipse fill="#FFB0B0" cx="27.563" cy="187.315" rx="2.25" ry="1.405"/>
				<path fill="#FF6760" d="M29.787,191.668c0.832,1.244,2.192,1.866,3.54,1.861c1.348,0.005,2.708-0.617,3.54-1.861
					c0.11-0.164,0.066-0.387-0.098-0.496c-0.165-0.111-0.387-0.064-0.497,0.098c-0.689,1.031-1.811,1.547-2.945,1.547
					c-1.135,0-2.256-0.516-2.945-1.547c-0.109-0.162-0.332-0.209-0.496-0.098C29.722,191.281,29.678,191.504,29.787,191.668z"/>
				<path fill="#FFFFFF" d="M39.814,196.76c0,0,1.795,2.762,0.178,6.569c-1.542,3.629-6.068,3.306-6.902-0.062L39.814,196.76z"/>
				<path fill="#FFFFFF" d="M26.839,196.76c0,0-1.795,2.762-0.178,6.569c1.542,3.629,5.596,3.306,6.429-0.062L26.839,196.76z"/>
				<path fill="#FFB300" d="M42.659,171.619c0,0,4.834,5.521,4.9,11.538c0.066,6.067-1.959,10.016-1.959,10.016
					s3.217-2.653,4.014-9.437c0,0,2.241-13.663-8.515-18.527c-10.753-4.866-18.384,0.154-22.221,6.396
					c-3.838,6.24-2.718,10.931-1.759,14.742c0.958,3.812,3.341,6.553,3.341,6.553c-0.596-2.383-2.978-5.48-1.067-13.773
					C20.931,178.615,37.666,174.691,42.659,171.619z"/>
				<path fill="#FFFFFF" d="M22.523,178.548c0.419,0.419,1.097,0.419,1.515,0c0.42-0.419,0.42-1.097,0-1.517l-2.779-2.779
					c-0.419-0.419-1.098-0.419-1.517,0c-0.419,0.418-0.418,1.098,0,1.518L22.523,178.548z"/>
			</g>
			<ellipse fill="#FFFFFF" cx="27.052" cy="183.19" rx="0.342" ry="0.327"/>
			<path d="M26.709,183.189h-0.006c0,0.186,0.155,0.334,0.349,0.334c0.193,0,0.349-0.148,0.349-0.334s-0.156-0.334-0.349-0.334
				c-0.193,0-0.349,0.148-0.349,0.334H26.709h0.007c0-0.176,0.149-0.319,0.335-0.319c0.187,0,0.335,0.144,0.336,0.319
				c0,0.179-0.149,0.32-0.336,0.32c-0.186,0-0.335-0.143-0.335-0.32H26.709z"/>
			<ellipse fill="#FFFFFF" cx="38.781" cy="183.19" rx="0.343" ry="0.327"/>
			<path d="M38.438,183.189h-0.006c0,0.186,0.157,0.334,0.35,0.334c0.193,0,0.348-0.148,0.348-0.334s-0.155-0.334-0.348-0.334
				c-0.193,0-0.35,0.148-0.35,0.334H38.438h0.007c0-0.176,0.149-0.319,0.336-0.319c0.186,0,0.335,0.144,0.335,0.319
				c0,0.179-0.15,0.32-0.335,0.32c-0.187,0-0.336-0.143-0.336-0.32H38.438z"/>
		</g>
	</g>
</g>
<g>
	<g>
		<g>
			<path d="M72.625,175.756c0.873-0.149,2.099-0.261,3.825-0.261c1.746,0,2.99,0.335,3.826,1.003
				c0.798,0.632,1.337,1.672,1.337,2.897s-0.409,2.266-1.151,2.971c-0.965,0.91-2.396,1.318-4.067,1.318
				c-0.371,0-0.706-0.019-0.965-0.056v4.476h-2.804V175.756z M75.43,181.438c0.241,0.056,0.539,0.074,0.947,0.074
				c1.504,0,2.433-0.761,2.433-2.042c0-1.151-0.798-1.839-2.209-1.839c-0.576,0-0.966,0.056-1.17,0.111V181.438z"/>
			<path d="M88.153,188.104l-0.167-0.91H87.93c-0.594,0.725-1.522,1.114-2.6,1.114c-1.838,0-2.934-1.337-2.934-2.785
				c0-2.358,2.117-3.491,5.33-3.473v-0.13c0-0.483-0.26-1.17-1.653-1.17c-0.928,0-1.913,0.315-2.507,0.687l-0.52-1.819
				c0.631-0.353,1.875-0.799,3.528-0.799c3.027,0,3.993,1.783,3.993,3.918v3.157c0,0.873,0.037,1.709,0.13,2.21H88.153z
				 M87.819,183.814c-1.485-0.019-2.637,0.335-2.637,1.431c0,0.724,0.482,1.076,1.114,1.076c0.706,0,1.282-0.464,1.467-1.039
				c0.037-0.148,0.056-0.316,0.056-0.483V183.814z"/>
			<path d="M92.78,185.635c0.52,0.315,1.597,0.687,2.433,0.687c0.854,0,1.207-0.297,1.207-0.761c0-0.465-0.278-0.688-1.337-1.04
				c-1.875-0.632-2.6-1.652-2.582-2.729c0-1.69,1.449-2.972,3.696-2.972c1.058,0,2.005,0.241,2.562,0.521l-0.501,1.949
				c-0.409-0.223-1.188-0.52-1.968-0.52c-0.687,0-1.077,0.278-1.077,0.742c0,0.428,0.353,0.65,1.467,1.04
				c1.727,0.595,2.452,1.468,2.47,2.805c0,1.689-1.337,2.934-3.937,2.934c-1.188,0-2.247-0.26-2.934-0.631L92.78,185.635z"/>
			<path d="M100.842,185.635c0.52,0.315,1.597,0.687,2.433,0.687c0.854,0,1.207-0.297,1.207-0.761c0-0.465-0.278-0.688-1.337-1.04
				c-1.875-0.632-2.6-1.652-2.582-2.729c0-1.69,1.449-2.972,3.696-2.972c1.058,0,2.005,0.241,2.562,0.521l-0.501,1.949
				c-0.409-0.223-1.188-0.52-1.968-0.52c-0.687,0-1.077,0.278-1.077,0.742c0,0.428,0.353,0.65,1.467,1.04
				c1.727,0.595,2.452,1.468,2.47,2.805c0,1.689-1.337,2.934-3.937,2.934c-1.188,0-2.247-0.26-2.934-0.631L100.842,185.635z"/>
			<path d="M109.015,175.588h7.651v2.321h-4.81v2.86h4.494v2.303h-4.494v5.032h-2.841V175.588z"/>
			<path d="M127.198,183.462c0,3.324-2.358,4.847-4.791,4.847c-2.656,0-4.698-1.745-4.698-4.68c0-2.934,1.931-4.81,4.847-4.81
				C125.341,178.819,127.198,180.732,127.198,183.462z M120.625,183.555c0,1.56,0.65,2.729,1.857,2.729
				c1.096,0,1.801-1.095,1.801-2.729c0-1.355-0.52-2.729-1.801-2.729C121.126,180.825,120.625,182.218,120.625,183.555z"/>
			<path d="M132.104,176.424v2.6h2.024v2.08h-2.024v3.287c0,1.096,0.261,1.597,1.114,1.597c0.354,0,0.631-0.037,0.836-0.074
				l0.019,2.136c-0.372,0.148-1.04,0.241-1.839,0.241c-0.91,0-1.671-0.315-2.117-0.779c-0.52-0.539-0.78-1.412-0.78-2.693v-3.714
				h-1.207v-2.08h1.207v-1.968L132.104,176.424z"/>
			<path d="M144.641,183.462c0,3.324-2.358,4.847-4.791,4.847c-2.655,0-4.698-1.745-4.698-4.68c0-2.934,1.932-4.81,4.847-4.81
				C142.784,178.819,144.641,180.732,144.641,183.462z M138.067,183.555c0,1.56,0.649,2.729,1.856,2.729
				c1.096,0,1.802-1.095,1.802-2.729c0-1.355-0.521-2.729-1.802-2.729C138.568,180.825,138.067,182.218,138.067,183.555z"/>
			<path d="M146.482,175.756c0.91-0.149,2.266-0.261,3.77-0.261c1.857,0,3.157,0.279,4.048,0.984
				c0.743,0.595,1.152,1.467,1.152,2.618c0,1.598-1.133,2.693-2.211,3.083v0.056c0.873,0.353,1.356,1.188,1.672,2.34
				c0.391,1.411,0.78,3.046,1.021,3.528h-2.896c-0.205-0.353-0.502-1.374-0.873-2.915c-0.334-1.561-0.873-1.987-2.024-2.006h-0.854
				v4.921h-2.804V175.756z M149.286,181.141h1.115c1.41,0,2.246-0.705,2.246-1.801c0-1.151-0.779-1.728-2.08-1.746
				c-0.687,0-1.076,0.056-1.281,0.093V181.141z"/>
			<path d="M166.374,183.462c0,3.324-2.358,4.847-4.791,4.847c-2.656,0-4.698-1.745-4.698-4.68c0-2.934,1.931-4.81,4.847-4.81
				C164.517,178.819,166.374,180.732,166.374,183.462z M159.8,183.555c0,1.56,0.65,2.729,1.857,2.729
				c1.096,0,1.801-1.095,1.801-2.729c0-1.355-0.52-2.729-1.801-2.729C160.302,180.825,159.8,182.218,159.8,183.555z"/>
			<path d="M168.104,185.635c0.52,0.315,1.597,0.687,2.432,0.687c0.854,0,1.207-0.297,1.207-0.761c0-0.465-0.277-0.688-1.336-1.04
				c-1.876-0.632-2.601-1.652-2.582-2.729c0-1.69,1.449-2.972,3.695-2.972c1.059,0,2.006,0.241,2.562,0.521l-0.501,1.949
				c-0.409-0.223-1.188-0.52-1.968-0.52c-0.688,0-1.078,0.278-1.078,0.742c0,0.428,0.354,0.65,1.467,1.04
				c1.728,0.595,2.452,1.468,2.471,2.805c0,1.689-1.338,2.934-3.938,2.934c-1.188,0-2.246-0.26-2.934-0.631L168.104,185.635z"/>
			<path d="M178.357,184.465c0.093,1.17,1.244,1.727,2.562,1.727c0.966,0,1.745-0.13,2.507-0.371l0.371,1.913
				c-0.928,0.371-2.061,0.557-3.287,0.557c-3.082,0-4.846-1.782-4.846-4.624c0-2.303,1.43-4.847,4.586-4.847
				c2.935,0,4.049,2.284,4.049,4.531c0,0.482-0.057,0.91-0.094,1.114H178.357z M181.681,182.533c0-0.687-0.297-1.838-1.597-1.838
				c-1.188,0-1.671,1.077-1.745,1.838H181.681z"/>
			<path d="M185.992,181.921c0-1.133-0.037-2.099-0.074-2.897h2.451l0.13,1.244h0.056c0.372-0.575,1.3-1.448,2.804-1.448
				c1.857,0,3.25,1.226,3.25,3.899v5.386h-2.822v-5.032c0-1.17-0.408-1.969-1.43-1.969c-0.78,0-1.244,0.539-1.43,1.059
				c-0.074,0.167-0.111,0.445-0.111,0.706v5.236h-2.823V181.921z"/>
			<path d="M196.878,174.92h2.822v5.181h0.037c0.297-0.39,0.668-0.687,1.114-0.929c0.408-0.223,0.946-0.353,1.467-0.353
				c1.802,0,3.175,1.244,3.175,3.975v5.311h-2.822v-4.995c0-1.188-0.408-2.006-1.467-2.006c-0.742,0-1.207,0.483-1.411,0.984
				c-0.074,0.186-0.093,0.427-0.093,0.631v5.386h-2.822V174.92z"/>
			<path d="M209.937,184.465c0.092,1.17,1.244,1.727,2.562,1.727c0.965,0,1.745-0.13,2.506-0.371l0.372,1.913
				c-0.929,0.371-2.062,0.557-3.287,0.557c-3.083,0-4.847-1.782-4.847-4.624c0-2.303,1.43-4.847,4.587-4.847
				c2.935,0,4.048,2.284,4.048,4.531c0,0.482-0.056,0.91-0.093,1.114H209.937z M213.26,182.533c0-0.687-0.297-1.838-1.597-1.838
				c-1.189,0-1.672,1.077-1.746,1.838H213.26z"/>
			<path d="M220.486,176.498c0,0.78-0.595,1.411-1.522,1.411c-0.892,0-1.486-0.631-1.467-1.411c-0.02-0.816,0.575-1.43,1.484-1.43
				C219.892,175.068,220.468,175.682,220.486,176.498z M217.571,188.104v-9.081h2.822v9.081H217.571z"/>
			<path d="M222.661,181.921c0-1.133-0.037-2.099-0.074-2.897h2.377l0.129,1.226h0.057c0.39-0.575,1.188-1.43,2.748-1.43
				c1.17,0,2.098,0.595,2.488,1.541h0.037c0.334-0.464,0.742-0.835,1.17-1.095c0.502-0.298,1.059-0.446,1.727-0.446
				c1.746,0,3.064,1.226,3.064,3.938v5.348h-2.748v-4.939c0-1.318-0.428-2.08-1.338-2.08c-0.649,0-1.113,0.445-1.299,0.984
				c-0.074,0.204-0.111,0.501-0.111,0.725v5.311h-2.749v-5.088c0-1.151-0.409-1.932-1.3-1.932c-0.725,0-1.151,0.558-1.318,1.021
				c-0.093,0.223-0.111,0.482-0.111,0.706v5.292h-2.748V181.921z"/>
			<path d="M238.431,186.601c0-1.003,0.688-1.728,1.672-1.728s1.652,0.706,1.652,1.728c0,0.984-0.668,1.708-1.672,1.708
				C239.118,188.309,238.431,187.585,238.431,186.601z"/>
			<path d="M248.224,184.205c-0.73,0.831-1.385,1.537-1.961,2.118c-0.578,0.581-1.047,1.016-1.408,1.302s-0.608,0.43-0.741,0.43
				c-0.216,0-0.459-0.175-0.729-0.523c-0.271-0.349-0.501-0.793-0.691-1.333c-0.191-0.539-0.286-1.088-0.286-1.644
				c0-0.806,0.39-1.618,1.17-2.436c0.781-0.818,1.67-1.497,2.666-2.037c0.997-0.539,1.744-0.81,2.242-0.81
				c0.407,0,0.806,0.258,1.196,0.772c0.64-1.337,1.247-2.524,1.825-3.562c0.576-1.038,1.061-1.811,1.451-2.317
				c0.391-0.506,0.668-0.76,0.834-0.76c0.184,0,0.352,0.09,0.505,0.268c0.153,0.179,0.23,0.38,0.23,0.604
				c0,0.432-0.315,1.173-0.946,2.224c-0.632,1.051-1.254,2.074-1.869,3.07c-0.614,0.997-1.142,1.979-1.582,2.946
				c-0.439,0.968-0.66,1.862-0.66,2.685c0,0.747,0.24,1.121,0.723,1.121c0.291,0,0.656-0.164,1.096-0.492
				c0.44-0.328,1.067-0.878,1.881-1.65v0.909c-1.793,2.317-3.176,3.476-4.147,3.476c-0.391,0-0.671-0.149-0.841-0.448
				s-0.256-0.743-0.256-1.333C247.925,185.986,248.024,185.127,248.224,184.205z M249.146,181.166
				c-0.738,0.249-1.606,0.649-2.604,1.202c-0.996,0.553-1.598,0.933-1.806,1.14c-0.183,0.166-0.345,0.478-0.485,0.935
				c-0.143,0.457-0.213,0.802-0.213,1.034c0,0.141,0.042,0.257,0.125,0.349c0.083,0.091,0.188,0.137,0.312,0.137
				c0.116,0,0.249-0.05,0.398-0.149s0.388-0.295,0.716-0.586c0.328-0.29,0.543-0.478,0.643-0.561
				c0.141-0.124,0.454-0.392,0.939-0.803c0.486-0.411,0.842-0.733,1.066-0.966c0.224-0.232,0.414-0.492,0.572-0.778
				C248.968,181.832,249.079,181.515,249.146,181.166z"/>
			<path d="M255.163,184.629v0.312c0,0.49,0.119,0.872,0.361,1.146c0.24,0.273,0.556,0.41,0.946,0.41
				c0.407,0,0.828-0.095,1.265-0.286c0.436-0.19,0.869-0.444,1.301-0.76s0.96-0.739,1.582-1.271v0.76
				c-0.938,1.13-1.818,1.995-2.641,2.598c-0.822,0.602-1.656,0.902-2.504,0.902c-0.738,0-1.324-0.286-1.756-0.859
				s-0.648-1.357-0.648-2.354c0-0.872,0.204-1.663,0.611-2.373c0.406-0.71,1.07-1.459,1.992-2.248
				c0.631-0.54,1.259-0.947,1.881-1.221c0.623-0.274,1.18-0.411,1.67-0.411c0.391,0,0.699,0.089,0.928,0.268
				s0.343,0.446,0.343,0.804c0,0.523-0.195,1.044-0.585,1.563c-0.391,0.519-0.986,1.034-1.788,1.545
				S256.333,184.155,255.163,184.629z M255.287,183.819c0.747-0.291,1.387-0.652,1.919-1.084c0.531-0.432,0.924-0.845,1.177-1.239
				s0.38-0.683,0.38-0.866c0-0.19-0.088-0.286-0.262-0.286c-0.149,0-0.393,0.096-0.729,0.286c-0.336,0.191-0.678,0.44-1.021,0.748
				c-0.345,0.308-0.654,0.668-0.928,1.084C255.549,182.877,255.37,183.329,255.287,183.819z"/>
		</g>
	</g>
	<g>
		<g>
			<path d="M72.679,197.216c0.346,0.213,0.853,0.391,1.385,0.391c0.791,0,1.252-0.417,1.252-1.021c0-0.559-0.32-0.879-1.128-1.189
				c-0.977-0.347-1.581-0.853-1.581-1.696c0-0.933,0.773-1.625,1.936-1.625c0.613,0,1.057,0.142,1.323,0.293l-0.213,0.631
				c-0.195-0.107-0.595-0.284-1.137-0.284c-0.817,0-1.128,0.488-1.128,0.896c0,0.56,0.364,0.835,1.19,1.154
				c1.013,0.391,1.527,0.879,1.527,1.759c0,0.923-0.684,1.723-2.096,1.723c-0.577,0-1.208-0.169-1.527-0.382L72.679,197.216z"/>
			<path d="M77.94,192.172v3.543c0,1.341,0.595,1.909,1.394,1.909c0.888,0,1.457-0.586,1.457-1.909v-3.543h0.781v3.49
				c0,1.838-0.968,2.593-2.265,2.593c-1.225,0-2.149-0.701-2.149-2.558v-3.525H77.94z"/>
			<path d="M82.917,192.243c0.373-0.062,0.861-0.116,1.483-0.116c0.764,0,1.323,0.178,1.678,0.498
				c0.329,0.284,0.524,0.719,0.524,1.252c0,0.542-0.16,0.968-0.462,1.278c-0.408,0.436-1.074,0.657-1.829,0.657
				c-0.231,0-0.444-0.009-0.622-0.053v2.397h-0.773V192.243z M83.69,195.129c0.168,0.044,0.382,0.062,0.639,0.062
				c0.933,0,1.501-0.453,1.501-1.279c0-0.79-0.56-1.172-1.412-1.172c-0.337,0-0.595,0.026-0.728,0.062V195.129z"/>
			<path d="M90.745,195.351h-2.327v2.158h2.593v0.648h-3.366v-5.985h3.232v0.648h-2.459v1.892h2.327V195.351z"/>
			<path d="M92.017,192.252c0.391-0.08,0.95-0.125,1.483-0.125c0.826,0,1.358,0.151,1.731,0.489
				c0.302,0.266,0.471,0.675,0.471,1.137c0,0.79-0.497,1.313-1.128,1.527v0.026c0.462,0.16,0.737,0.586,0.879,1.208
				c0.195,0.834,0.337,1.412,0.462,1.643h-0.799c-0.098-0.169-0.231-0.684-0.4-1.43c-0.177-0.826-0.497-1.137-1.199-1.163H92.79
				v2.593h-0.773V192.252z M92.79,194.978h0.79c0.826,0,1.35-0.452,1.35-1.137c0-0.772-0.56-1.109-1.376-1.118
				c-0.373,0-0.64,0.035-0.764,0.07V194.978z"/>
			<path d="M96.692,197.216c0.346,0.213,0.853,0.391,1.385,0.391c0.791,0,1.252-0.417,1.252-1.021c0-0.559-0.32-0.879-1.128-1.189
				c-0.977-0.347-1.581-0.853-1.581-1.696c0-0.933,0.773-1.625,1.936-1.625c0.613,0,1.057,0.142,1.323,0.293l-0.213,0.631
				c-0.195-0.107-0.595-0.284-1.137-0.284c-0.817,0-1.128,0.488-1.128,0.896c0,0.56,0.364,0.835,1.19,1.154
				c1.013,0.391,1.527,0.879,1.527,1.759c0,0.923-0.684,1.723-2.096,1.723c-0.577,0-1.208-0.169-1.527-0.382L96.692,197.216z"/>
			<path d="M105.363,197.962c-0.284,0.142-0.853,0.284-1.581,0.284c-1.687,0-2.957-1.065-2.957-3.028
				c0-1.874,1.27-3.144,3.126-3.144c0.746,0,1.216,0.159,1.421,0.267l-0.187,0.63c-0.293-0.142-0.71-0.248-1.208-0.248
				c-1.403,0-2.335,0.896-2.335,2.469c0,1.465,0.844,2.406,2.3,2.406c0.471,0,0.95-0.098,1.261-0.249L105.363,197.962z"/>
			<path d="M107.107,192.172v2.504h2.895v-2.504h0.781v5.985h-0.781v-2.807h-2.895v2.807h-0.773v-5.985H107.107z"/>
			<path d="M112.128,198.157v-5.985h0.844l1.918,3.028c0.444,0.701,0.79,1.332,1.074,1.944l0.018-0.009
				c-0.071-0.799-0.089-1.527-0.089-2.46v-2.504h0.728v5.985h-0.781l-1.901-3.037c-0.417-0.666-0.817-1.35-1.119-1.998l-0.027,0.009
				c0.044,0.755,0.062,1.474,0.062,2.469v2.558H112.128z"/>
			<path d="M121.076,195.351h-2.327v2.158h2.593v0.648h-3.366v-5.985h3.232v0.648h-2.459v1.892h2.327V195.351z"/>
			<path d="M122.349,192.172h0.773v5.337h2.558v0.648h-3.331V192.172z"/>
			<path d="M126.543,192.172h0.773v5.337h2.558v0.648h-3.331V192.172z"/>
			<path d="M133.837,195.351h-2.326v2.158h2.593v0.648h-3.366v-5.985h3.232v0.648h-2.459v1.892h2.326V195.351z"/>
			<path d="M136.994,192.243c0.373-0.062,0.861-0.116,1.483-0.116c0.764,0,1.322,0.178,1.678,0.498
				c0.329,0.284,0.524,0.719,0.524,1.252c0,0.542-0.159,0.968-0.462,1.278c-0.408,0.436-1.074,0.657-1.829,0.657
				c-0.231,0-0.444-0.009-0.622-0.053v2.397h-0.772V192.243z M137.767,195.129c0.169,0.044,0.383,0.062,0.64,0.062
				c0.933,0,1.501-0.453,1.501-1.279c0-0.79-0.56-1.172-1.412-1.172c-0.338,0-0.596,0.026-0.729,0.062V195.129z"/>
			<path d="M141.722,192.252c0.391-0.08,0.951-0.125,1.484-0.125c0.825,0,1.357,0.151,1.73,0.489
				c0.303,0.266,0.471,0.675,0.471,1.137c0,0.79-0.496,1.313-1.127,1.527v0.026c0.461,0.16,0.736,0.586,0.879,1.208
				c0.195,0.834,0.338,1.412,0.462,1.643h-0.8c-0.098-0.169-0.23-0.684-0.399-1.43c-0.177-0.826-0.497-1.137-1.198-1.163h-0.729
				v2.593h-0.773V192.252z M142.495,194.978h0.79c0.826,0,1.351-0.452,1.351-1.137c0-0.772-0.561-1.109-1.377-1.118
				c-0.373,0-0.64,0.035-0.764,0.07V194.978z"/>
			<path d="M149.603,195.351h-2.326v2.158h2.593v0.648h-3.366v-5.985h3.232v0.648h-2.459v1.892h2.326V195.351z"/>
			<path d="M155.921,195.528c-0.045-0.835-0.098-1.838-0.09-2.584h-0.026c-0.204,0.701-0.452,1.447-0.755,2.273l-1.057,2.904h-0.586
				l-0.969-2.851c-0.283-0.844-0.523-1.617-0.691-2.327h-0.019c-0.018,0.746-0.062,1.749-0.115,2.646l-0.16,2.566h-0.737
				l0.418-5.985h0.986l1.021,2.895c0.249,0.737,0.453,1.395,0.604,2.017h0.025c0.152-0.604,0.365-1.262,0.631-2.017l1.066-2.895
				h0.985l0.373,5.985h-0.755L155.921,195.528z"/>
			<path d="M158.794,192.172v5.985h-0.773v-5.985H158.794z"/>
			<path d="M160.918,192.172v3.543c0,1.341,0.595,1.909,1.394,1.909c0.889,0,1.457-0.586,1.457-1.909v-3.543h0.781v3.49
				c0,1.838-0.968,2.593-2.265,2.593c-1.226,0-2.149-0.701-2.149-2.558v-3.525H160.918z"/>
			<path d="M170.939,195.528c-0.044-0.835-0.098-1.838-0.089-2.584h-0.027c-0.203,0.701-0.452,1.447-0.754,2.273l-1.057,2.904
				h-0.586l-0.969-2.851c-0.284-0.844-0.523-1.617-0.692-2.327h-0.019c-0.018,0.746-0.062,1.749-0.115,2.646l-0.16,2.566h-0.736
				l0.418-5.985h0.984l1.021,2.895c0.249,0.737,0.453,1.395,0.604,2.017h0.026c0.151-0.604,0.364-1.262,0.631-2.017l1.065-2.895
				h0.985l0.373,5.985h-0.754L170.939,195.528z"/>
			<path d="M179.862,199.036c-0.809-0.213-1.6-0.453-2.292-0.692c-0.124-0.044-0.249-0.089-0.364-0.089
				c-1.421-0.054-2.637-1.102-2.637-3.028c0-1.918,1.172-3.152,2.788-3.152c1.625,0,2.682,1.261,2.682,3.028
				c0,1.536-0.71,2.521-1.705,2.868v0.035c0.595,0.151,1.243,0.294,1.749,0.382L179.862,199.036z M179.222,195.138
				c0-1.199-0.621-2.434-1.891-2.434c-1.307,0-1.945,1.208-1.937,2.505c-0.009,1.27,0.692,2.415,1.9,2.415
				C178.529,197.624,179.222,196.506,179.222,195.138z"/>
			<path d="M181.82,192.172v3.543c0,1.341,0.595,1.909,1.394,1.909c0.889,0,1.457-0.586,1.457-1.909v-3.543h0.781v3.49
				c0,1.838-0.968,2.593-2.265,2.593c-1.226,0-2.149-0.701-2.149-2.558v-3.525H181.82z"/>
			<path d="M187.464,196.274l-0.622,1.883h-0.8l2.034-5.985h0.933l2.042,5.985h-0.825l-0.641-1.883H187.464z M189.426,195.671
				l-0.586-1.723c-0.134-0.392-0.222-0.746-0.312-1.093h-0.018c-0.088,0.355-0.186,0.72-0.302,1.083l-0.586,1.732H189.426z"/>
			<path d="M191.935,192.172h0.772v5.337h2.558v0.648h-3.33V192.172z"/>
			<path d="M196.901,192.172v5.985h-0.773v-5.985H196.901z"/>
			<path d="M199.39,192.829h-1.82v-0.657H202v0.657h-1.829v5.328h-0.781V192.829z"/>
			<path d="M202.972,196.274l-0.622,1.883h-0.8l2.034-5.985h0.933l2.042,5.985h-0.825l-0.641-1.883H202.972z M202.819,191.319
				c0-0.249,0.188-0.444,0.445-0.444c0.239,0,0.417,0.195,0.417,0.444c0,0.248-0.169,0.453-0.427,0.453
				S202.819,191.567,202.819,191.319z M204.934,195.671l-0.586-1.723c-0.134-0.392-0.222-0.746-0.312-1.093h-0.018
				c-0.088,0.355-0.186,0.72-0.302,1.083l-0.586,1.732H204.934z M204.472,191.319c0-0.249,0.187-0.444,0.436-0.444
				c0.248,0,0.426,0.195,0.426,0.444c0,0.248-0.168,0.453-0.436,0.453C204.641,191.772,204.472,191.567,204.472,191.319z"/>
			<path d="M207.895,192.829h-1.82v-0.657h4.431v0.657h-1.828v5.328h-0.782V192.829z"/>
		</g>
	</g>
</g>
</svg>
