<?xml version="1.0" encoding="utf-8"?>
<!-- Generator: Adobe Illustrator 16.0.0, SVG Export Plug-In . SVG Version: 6.00 Build 0)  -->
<!DOCTYPE svg PUBLIC "-//W3C//DTD SVG 1.0//EN" "http://www.w3.org/TR/2001/REC-SVG-20010904/DTD/svg10.dtd">
<svg version="1.0" id="Ebene_1" xmlns="http://www.w3.org/2000/svg" xmlns:xlink="http://www.w3.org/1999/xlink" x="0px" y="0px"
	 width="80.492px" height="80.492px" viewBox="0 0 80.492 80.492" enable-background="new 0 0 80.492 80.492" xml:space="preserve">
<g id="background">
</g>
<g id="ò_x2021__xF8FF__x5F_3">
	<g>
		<path fill="#DBF3FB" d="M80.492,40.246c0,22.227-18.018,40.246-40.246,40.246C18.02,80.492,0,62.473,0,40.246
			C0,18.018,18.02,0,40.246,0C62.475,0,80.492,18.018,80.492,40.246"/>
		<polyline fill="#697478" points="65.609,27.028 14.883,27.028 14.883,57.464 65.609,57.464 65.609,27.028 		"/>
		<rect x="14.883" y="25.027" fill="#AAA9A7" width="50.727" height="30.437"/>
		<path fill="#FFFFFF" d="M14.883,55.464h50.727V25.027H14.883V55.464z M53.773,29.254h7.608v7.609h-7.608V29.254z M39.4,30.945
			c0-0.466,0.379-0.845,0.846-0.845c0.467,0,0.846,0.379,0.846,0.845v18.601c0,0.468-0.379,0.845-0.846,0.845
			c-0.467,0-0.846-0.377-0.846-0.845V30.945z M19.109,34.327h15.219v1.691H19.109V34.327z M19.109,39.4h15.219v1.691H19.109V39.4z
			 M19.109,44.473h15.219v1.691H19.109V44.473z"/>
		<rect x="55.465" y="30.945" fill="#FFFFFF" width="4.227" height="4.228"/>
	</g>
</g>
<g id="camera">
</g>
</svg>
