<?xml version="1.0" encoding="utf-8"?>
<!-- Generator: Adobe Illustrator 16.0.0, SVG Export Plug-In . SVG Version: 6.00 Build 0)  -->
<!DOCTYPE svg PUBLIC "-//W3C//DTD SVG 1.0//EN" "http://www.w3.org/TR/2001/REC-SVG-20010904/DTD/svg10.dtd">
<svg version="1.0" xmlns="http://www.w3.org/2000/svg" xmlns:xlink="http://www.w3.org/1999/xlink" x="0px" y="0px"
	 width="80.492px" height="80.492px" viewBox="0 0 80.492 80.492" enable-background="new 0 0 80.492 80.492" xml:space="preserve">
<g id="background">
</g>
<g id="ò_x2021__xF8FF__x5F_3">
	<g>
		<path fill="#DBF3FB" d="M80.492,40.246c0,22.228-18.019,40.246-40.246,40.246S0,62.474,0,40.246S18.019,0,40.246,0
			S80.492,18.019,80.492,40.246"/>
		<g>
			<defs>
				<path id="SVGID_9_" d="M80.492,40.246c0,22.228-18.019,40.246-40.246,40.246S0,62.474,0,40.246S18.019,0,40.246,0
					S80.492,18.019,80.492,40.246"/>
			</defs>
			<clipPath id="SVGID_2_">
				<use xlink:href="#SVGID_9_"  overflow="visible"/>
			</clipPath>
			<path clip-path="url(#SVGID_2_)" fill="#FFDBC5" d="M22.911,64.913c0,0,6.792,9.681,11.786,8.336s0.804-11.95,0.804-11.95
				L22.911,64.913z"/>
			<path clip-path="url(#SVGID_2_)" fill="#62C1C3" d="M60.884,71.158c-1.209-14.76-15.484-20.567-15.484-20.567l-13.31-0.968
				l-1.452,42.344l24.923,0.242l-4.838-24.197C56.529,73.094,60.884,71.158,60.884,71.158"/>
			<g clip-path="url(#SVGID_2_)">
				<defs>
					<path id="SVGID_11_" d="M11.595,36.231c0,15.824,12.828,28.651,28.651,28.651c15.824,0,28.651-12.828,28.651-28.651
						S56.07,7.58,40.246,7.58C24.423,7.58,11.595,20.408,11.595,36.231"/>
				</defs>
				<clipPath id="SVGID_4_">
					<use xlink:href="#SVGID_11_"  overflow="visible"/>
				</clipPath>
				<circle clip-path="url(#SVGID_4_)" fill="#FFA000" cx="40.336" cy="19.933" r="7.251"/>
				<path clip-path="url(#SVGID_4_)" fill="#FFDBC5" d="M23.456,74.717v-7.659c0-8.036,6.515-14.551,14.551-14.551h5.361
					c8.037,0,14.552,6.515,14.552,14.551v7.659H23.456"/>
				<path clip-path="url(#SVGID_4_)" fill="#62C1C3" d="M23.456,74.717v-7.659c0-6.583,4.371-12.144,10.369-13.941l6.606,6.538
					l6.952-6.587c6.084,1.743,10.536,7.347,10.536,13.99v7.659H23.456"/>
				<path clip-path="url(#SVGID_4_)" fill="#FFDBC5" d="M23.261,36.305c0,9.623,9.03,17.425,17.425,17.425
					c8.396,0,17.425-7.802,17.425-17.425S50.31,18.881,40.686,18.881C31.062,18.881,23.261,26.682,23.261,36.305"/>
				<path clip-path="url(#SVGID_4_)" fill="#FFDBC5" d="M23.261,36.305c0,9.623,9.03,17.425,17.425,17.425
					c8.396,0,17.425-7.802,17.425-17.425S50.31,18.881,40.686,18.881C31.062,18.881,23.261,26.682,23.261,36.305"/>
				<path clip-path="url(#SVGID_4_)" fill="#FFC5A4" d="M40.761,53.729c-0.007,0-0.012,0-0.018,0
					C40.749,53.729,40.755,53.729,40.761,53.729 M40.61,53.729c0.006,0,0.012,0,0.018,0C40.622,53.729,40.617,53.729,40.61,53.729
					 M40.821,53.729c-0.007,0-0.014,0-0.02,0C40.808,53.729,40.814,53.729,40.821,53.729 M40.55,53.729c0.007,0,0.014,0,0.02,0
					C40.563,53.729,40.557,53.729,40.55,53.729 M40.878,53.729c-0.004,0-0.008,0-0.012,0C40.87,53.729,40.874,53.729,40.878,53.729
					 M40.493,53.729c0.004,0,0.008,0,0.013,0C40.501,53.729,40.497,53.729,40.493,53.729 M40.948,53.728c-0.004,0-0.008,0-0.013,0
					C40.939,53.728,40.944,53.728,40.948,53.728 M40.423,53.728c0.004,0,0.008,0,0.013,0C40.431,53.728,40.427,53.728,40.423,53.728
					 M41.011,53.726c-0.006,0-0.011,0-0.016,0C41,53.726,41.005,53.726,41.011,53.726 M40.36,53.726c0.006,0,0.011,0,0.016,0
					C40.371,53.726,40.365,53.726,40.36,53.726 M41.069,53.725c-0.004,0-0.008,0-0.012,0C41.062,53.725,41.065,53.725,41.069,53.725
					 M40.302,53.725c0.004,0,0.008,0,0.013,0C40.31,53.725,40.306,53.725,40.302,53.725 M41.199,53.72c-0.004,0-0.007,0-0.011,0
					C41.192,53.721,41.195,53.72,41.199,53.72 M40.171,53.72c0.004,0,0.008,0,0.012,0C40.179,53.721,40.175,53.72,40.171,53.72
					 M41.26,53.718c-0.003,0-0.007,0-0.01,0C41.253,53.718,41.257,53.718,41.26,53.718 M40.11,53.718c0.004,0,0.008,0,0.012,0
					C40.118,53.718,40.114,53.718,40.11,53.718 M39.924,53.708c0.001,0,0.002,0,0.003,0C39.926,53.709,39.925,53.709,39.924,53.708"
					/>
				<path clip-path="url(#SVGID_4_)" fill="#FFC5A4" d="M26.28,45.643c3.196,4.632,8.482,7.78,13.644,8.066c0.001,0,0.002,0,0.003,0
					c0.062,0.003,0.123,0.006,0.184,0.009c0.004,0,0.008,0,0.012,0c0.017,0,0.032,0.001,0.049,0.002c0.004,0,0.008,0,0.012,0
					c0.04,0.001,0.079,0.002,0.119,0.004c0.004,0,0.008,0,0.013,0c0.015,0,0.031,0.001,0.046,0.001c0.005,0,0.011,0,0.016,0
					c0.016,0,0.031,0,0.047,0.001c0.004,0,0.008,0,0.013,0c0.019,0,0.038,0,0.058,0.001c0.004,0,0.008,0,0.013,0
					c0.015,0,0.029,0,0.044,0c0.007,0,0.014,0,0.02,0c0.014,0,0.027,0,0.041,0c0.007,0,0.012,0,0.018,0c0.02,0,0.038,0,0.058,0
					c0.019,0,0.038,0,0.058,0c0.006,0,0.011,0,0.018,0c0.013,0,0.027,0,0.041,0c0.006,0,0.013,0,0.02,0c0.015,0,0.029,0,0.045,0
					c0.004,0,0.008,0,0.012,0c0.02,0,0.039,0,0.058-0.001c0.005,0,0.009,0,0.013,0c0.016,0,0.031-0.001,0.047-0.001
					c0.005,0,0.01,0,0.016,0c0.016,0,0.031-0.001,0.047-0.001c0.004,0,0.008,0,0.012,0c0.039-0.001,0.08-0.002,0.119-0.004
					c0.004,0,0.007,0,0.011,0c0.018,0,0.034-0.001,0.051-0.002c0.003,0,0.007,0,0.01,0c5.221-0.218,10.597-3.387,13.831-8.074
					c-4.082,3.704-9.334,5.98-14.405,5.98C35.615,51.624,30.362,49.347,26.28,45.643"/>
				<circle clip-path="url(#SVGID_4_)" fill="#302824" cx="47.004" cy="38.464" r="1.22"/>
				<circle clip-path="url(#SVGID_4_)" fill="#302824" cx="34.367" cy="38.464" r="1.221"/>
				<ellipse clip-path="url(#SVGID_4_)" fill="#FFB0B0" cx="46.862" cy="42.565" rx="2.41" ry="1.506"/>
				<ellipse clip-path="url(#SVGID_4_)" fill="#FFB0B0" cx="34.511" cy="42.565" rx="2.41" ry="1.506"/>
				<path clip-path="url(#SVGID_4_)" fill="#FF6760" d="M40.685,49.225L40.685,49.225c-1.539,0-2.956-0.747-3.791-1.997
					c-0.118-0.176-0.07-0.414,0.105-0.531c0.177-0.118,0.414-0.07,0.531,0.105c0.692,1.037,1.872,1.657,3.153,1.657h0.001
					c1.283,0,2.463-0.619,3.156-1.657c0.117-0.176,0.355-0.223,0.531-0.105s0.224,0.355,0.105,0.531
					C43.642,48.479,42.224,49.225,40.685,49.225z"/>
				<path clip-path="url(#SVGID_4_)" fill="#FFFFFF" d="M47.637,52.685c0,0,1.923,2.958,0.19,7.037
					c-1.653,3.889-6.502,3.543-7.396-0.067L47.637,52.685z"/>
				<path clip-path="url(#SVGID_4_)" fill="#FFFFFF" d="M33.734,52.685c0,0-1.922,2.958-0.189,7.037
					c1.651,3.889,5.994,3.543,6.887-0.067L33.734,52.685z"/>
				<path clip-path="url(#SVGID_4_)" fill="#FFB300" d="M50.685,25.749c0,0,5.179,5.917,5.249,12.363
					c0.071,6.5-2.099,10.73-2.099,10.73s3.446-2.846,4.301-10.111c0,0,2.401-14.638-9.122-19.85
					c-11.521-5.213-19.696,0.167-23.808,6.854s-2.91,11.71-1.884,15.795c1.027,4.084,3.58,7.02,3.58,7.02
					c-0.638-2.553-3.191-5.872-1.143-14.757C27.405,33.244,45.335,29.042,50.685,25.749z"/>
				<path clip-path="url(#SVGID_4_)" fill="#FFFFFF" d="M29.11,33.172c0.449,0.449,1.176,0.449,1.625,0s0.449-1.176,0-1.625
					l-2.979-2.978c-0.448-0.449-1.176-0.449-1.625,0c-0.448,0.448-0.448,1.175,0,1.625L29.11,33.172z"/>
			</g>
			<ellipse clip-path="url(#SVGID_2_)" fill="#FFFFFF" cx="33.963" cy="38.146" rx="0.367" ry="0.351"/>
			<path clip-path="url(#SVGID_2_)" d="M33.964,38.504c-0.206,0-0.374-0.161-0.374-0.358c0-0.197,0.168-0.357,0.374-0.357
				s0.373,0.161,0.373,0.357C34.337,38.343,34.17,38.504,33.964,38.504z M33.964,37.803c-0.199,0-0.36,0.154-0.36,0.343
				c0,0.19,0.161,0.344,0.36,0.344c0.198,0,0.359-0.154,0.359-0.344C34.323,37.957,34.162,37.803,33.964,37.803z"/>
			<ellipse clip-path="url(#SVGID_2_)" fill="#FFFFFF" cx="46.529" cy="38.146" rx="0.367" ry="0.351"/>
			<path clip-path="url(#SVGID_2_)" d="M46.529,38.504c-0.206,0-0.373-0.161-0.373-0.358c0-0.197,0.167-0.357,0.373-0.357
				s0.373,0.161,0.373,0.357C46.902,38.343,46.735,38.504,46.529,38.504z M46.529,37.803c-0.198,0-0.36,0.154-0.36,0.343
				c0,0.19,0.162,0.344,0.36,0.344s0.36-0.154,0.36-0.344C46.89,37.957,46.728,37.803,46.529,37.803z"/>
			<path clip-path="url(#SVGID_2_)" fill="#FFDBC5" d="M43.161,50.772l-0.242,6.835c0,0,10.876,20.161,17.239,15.244
				C65.481,68.738,51.811,59.907,43.161,50.772z"/>
			<path clip-path="url(#SVGID_2_)" fill="#898785" d="M24.771,53.555c-0.601,0-1.089-0.4-1.089-0.894V41.141
				c0-0.494,0.488-0.895,1.089-0.895h8.228c0.601,0,1.088,0.401,1.088,0.895v11.521c0,0.494-0.487,0.894-1.088,0.894H24.771z"/>
			<path clip-path="url(#SVGID_2_)" fill="#A2D4ED" d="M26.748,51.759c-0.624,0-1.13-0.415-1.13-0.928V42.97
				c0-0.512,0.506-0.928,1.13-0.928h4.272c0.624,0,1.132,0.416,1.132,0.928v7.861c0,0.513-0.508,0.928-1.132,0.928H26.748z"/>
			<path clip-path="url(#SVGID_2_)" fill="#AAA9A7" d="M43.161,64.807c0,0.601-0.489,1.088-1.09,1.088H17.633
				c-0.602,0-1.089-0.488-1.089-1.088V51.498c0-0.601,0.487-1.088,1.089-1.088h24.438c0.601,0,1.09,0.487,1.09,1.088V64.807z"/>
			<circle clip-path="url(#SVGID_2_)" fill="#898785" cx="34.269" cy="57.608" r="8.65"/>
			<circle clip-path="url(#SVGID_2_)" fill="#3A211A" cx="34.269" cy="57.607" r="6.418"/>
			<path clip-path="url(#SVGID_2_)" fill="#898785" d="M23.198,53.434c0,0.601-0.488,1.088-1.089,1.088h-2.903
				c-0.602,0-1.09-0.487-1.09-1.088v-0.242c0-0.602,0.488-1.089,1.09-1.089h2.903c0.601,0,1.089,0.487,1.089,1.089V53.434z"/>
			<path clip-path="url(#SVGID_2_)" fill="#FFDBC5" d="M20.663,59.113c0.353,1.724,0.497,4.864-0.89,6.199
				c-4.202,4.047-6.234-5.108-4.155-7.953C17.298,55.059,20.189,56.786,20.663,59.113z"/>
		</g>
	</g>
</g>
<g id="camera">
</g>
</svg>
